<?xml version="1.0" encoding="utf-8" standalone="no"?>
<!DOCTYPE svg PUBLIC "-//W3C//DTD SVG 1.1//EN"
  "http://www.w3.org/Graphics/SVG/1.1/DTD/svg11.dtd">
<svg xmlns:xlink="http://www.w3.org/1999/xlink" width="492.428125pt" height="419.373125pt" viewBox="0 0 492.428125 419.373125" xmlns="http://www.w3.org/2000/svg" version="1.1">
 <metadata>
  <rdf:RDF xmlns:dc="http://purl.org/dc/elements/1.1/" xmlns:cc="http://creativecommons.org/ns#" xmlns:rdf="http://www.w3.org/1999/02/22-rdf-syntax-ns#">
   <cc:Work>
    <dc:type rdf:resource="http://purl.org/dc/dcmitype/StillImage"/>
    <dc:date>2026-06-02T20:36:25.288688</dc:date>
    <dc:format>image/svg+xml</dc:format>
    <dc:creator>
     <cc:Agent>
      <dc:title>Matplotlib v3.10.9, https://matplotlib.org/</dc:title>
     </cc:Agent>
    </dc:creator>
   </cc:Work>
  </rdf:RDF>
 </metadata>
 <defs>
  <style type="text/css">*{stroke-linejoin: round; stroke-linecap: butt}</style>
 </defs>
 <g id="figure_1">
  <g id="patch_1">
   <path d="M 0 419.373125 
L 492.428125 419.373125 
L 492.428125 0 
L 0 0 
z
" style="fill: #ffffff"/>
  </g>
  <g id="axes_1">
   <g id="patch_2">
    <path d="M 55.838125 185.41125 
L 485.228125 185.41125 
L 485.228125 22.48125 
L 55.838125 22.48125 
z
" style="fill: #ffffff"/>
   </g>
   <g id="matplotlib.axis_1">
    <g id="xtick_1">
     <g id="line2d_1">
      <path d="M 75.355852 185.41125 
L 75.355852 22.48125 
" clip-path="url(#p2f275ffad3)" style="fill: none; stroke: #cccccc; stroke-linecap: round"/>
     </g>
    </g>
    <g id="xtick_2">
     <g id="line2d_2">
      <path d="M 153.426761 185.41125 
L 153.426761 22.48125 
" clip-path="url(#p2f275ffad3)" style="fill: none; stroke: #cccccc; stroke-linecap: round"/>
     </g>
    </g>
    <g id="xtick_3">
     <g id="line2d_3">
      <path d="M 231.49767 185.41125 
L 231.49767 22.48125 
" clip-path="url(#p2f275ffad3)" style="fill: none; stroke: #cccccc; stroke-linecap: round"/>
     </g>
    </g>
    <g id="xtick_4">
     <g id="line2d_4">
      <path d="M 309.56858 185.41125 
L 309.56858 22.48125 
" clip-path="url(#p2f275ffad3)" style="fill: none; stroke: #cccccc; stroke-linecap: round"/>
     </g>
    </g>
    <g id="xtick_5">
     <g id="line2d_5">
      <path d="M 387.639489 185.41125 
L 387.639489 22.48125 
" clip-path="url(#p2f275ffad3)" style="fill: none; stroke: #cccccc; stroke-linecap: round"/>
     </g>
    </g>
    <g id="xtick_6">
     <g id="line2d_6">
      <path d="M 465.710398 185.41125 
L 465.710398 22.48125 
" clip-path="url(#p2f275ffad3)" style="fill: none; stroke: #cccccc; stroke-linecap: round"/>
     </g>
    </g>
   </g>
   <g id="matplotlib.axis_2">
    <g id="ytick_1">
     <g id="line2d_7">
      <path d="M 55.838125 178.005341 
L 485.228125 178.005341 
" clip-path="url(#p2f275ffad3)" style="fill: none; stroke: #cccccc; stroke-linecap: round"/>
     </g>
     <g id="text_1">
      <!-- 0.30 -->
      <g style="fill: #262626" transform="translate(21.845938 182.184482) scale(0.11 -0.11)">
       <defs>
        <path id="DejaVuSans-30" d="M 2034 4250 
Q 1547 4250 1301 3770 
Q 1056 3291 1056 2328 
Q 1056 1369 1301 889 
Q 1547 409 2034 409 
Q 2525 409 2770 889 
Q 3016 1369 3016 2328 
Q 3016 3291 2770 3770 
Q 2525 4250 2034 4250 
z
M 2034 4750 
Q 2819 4750 3233 4129 
Q 3647 3509 3647 2328 
Q 3647 1150 3233 529 
Q 2819 -91 2034 -91 
Q 1250 -91 836 529 
Q 422 1150 422 2328 
Q 422 3509 836 4129 
Q 1250 4750 2034 4750 
z
" transform="scale(0.015625)"/>
        <path id="DejaVuSans-2e" d="M 684 794 
L 1344 794 
L 1344 0 
L 684 0 
L 684 794 
z
" transform="scale(0.015625)"/>
        <path id="DejaVuSans-33" d="M 2597 2516 
Q 3050 2419 3304 2112 
Q 3559 1806 3559 1356 
Q 3559 666 3084 287 
Q 2609 -91 1734 -91 
Q 1441 -91 1130 -33 
Q 819 25 488 141 
L 488 750 
Q 750 597 1062 519 
Q 1375 441 1716 441 
Q 2309 441 2620 675 
Q 2931 909 2931 1356 
Q 2931 1769 2642 2001 
Q 2353 2234 1838 2234 
L 1294 2234 
L 1294 2753 
L 1863 2753 
Q 2328 2753 2575 2939 
Q 2822 3125 2822 3475 
Q 2822 3834 2567 4026 
Q 2313 4219 1838 4219 
Q 1578 4219 1281 4162 
Q 984 4106 628 3988 
L 628 4550 
Q 988 4650 1302 4700 
Q 1616 4750 1894 4750 
Q 2613 4750 3031 4423 
Q 3450 4097 3450 3541 
Q 3450 3153 3228 2886 
Q 3006 2619 2597 2516 
z
" transform="scale(0.015625)"/>
       </defs>
       <use xlink:href="#DejaVuSans-30"/>
       <use xlink:href="#DejaVuSans-2e" transform="translate(63.623047 0)"/>
       <use xlink:href="#DejaVuSans-33" transform="translate(95.410156 0)"/>
       <use xlink:href="#DejaVuSans-30" transform="translate(159.033203 0)"/>
      </g>
     </g>
    </g>
    <g id="ytick_2">
     <g id="line2d_8">
      <path d="M 55.838125 147.121564 
L 485.228125 147.121564 
" clip-path="url(#p2f275ffad3)" style="fill: none; stroke: #cccccc; stroke-linecap: round"/>
     </g>
     <g id="text_2">
      <!-- 0.35 -->
      <g style="fill: #262626" transform="translate(21.845938 151.300704) scale(0.11 -0.11)">
       <defs>
        <path id="DejaVuSans-35" d="M 691 4666 
L 3169 4666 
L 3169 4134 
L 1269 4134 
L 1269 2991 
Q 1406 3038 1543 3061 
Q 1681 3084 1819 3084 
Q 2600 3084 3056 2656 
Q 3513 2228 3513 1497 
Q 3513 744 3044 326 
Q 2575 -91 1722 -91 
Q 1428 -91 1123 -41 
Q 819 9 494 109 
L 494 744 
Q 775 591 1075 516 
Q 1375 441 1709 441 
Q 2250 441 2565 725 
Q 2881 1009 2881 1497 
Q 2881 1984 2565 2268 
Q 2250 2553 1709 2553 
Q 1456 2553 1204 2497 
Q 953 2441 691 2322 
L 691 4666 
z
" transform="scale(0.015625)"/>
       </defs>
       <use xlink:href="#DejaVuSans-30"/>
       <use xlink:href="#DejaVuSans-2e" transform="translate(63.623047 0)"/>
       <use xlink:href="#DejaVuSans-33" transform="translate(95.410156 0)"/>
       <use xlink:href="#DejaVuSans-35" transform="translate(159.033203 0)"/>
      </g>
     </g>
    </g>
    <g id="ytick_3">
     <g id="line2d_9">
      <path d="M 55.838125 116.237787 
L 485.228125 116.237787 
" clip-path="url(#p2f275ffad3)" style="fill: none; stroke: #cccccc; stroke-linecap: round"/>
     </g>
     <g id="text_3">
      <!-- 0.40 -->
      <g style="fill: #262626" transform="translate(21.845938 120.416927) scale(0.11 -0.11)">
       <defs>
        <path id="DejaVuSans-34" d="M 2419 4116 
L 825 1625 
L 2419 1625 
L 2419 4116 
z
M 2253 4666 
L 3047 4666 
L 3047 1625 
L 3713 1625 
L 3713 1100 
L 3047 1100 
L 3047 0 
L 2419 0 
L 2419 1100 
L 313 1100 
L 313 1709 
L 2253 4666 
z
" transform="scale(0.015625)"/>
       </defs>
       <use xlink:href="#DejaVuSans-30"/>
       <use xlink:href="#DejaVuSans-2e" transform="translate(63.623047 0)"/>
       <use xlink:href="#DejaVuSans-34" transform="translate(95.410156 0)"/>
       <use xlink:href="#DejaVuSans-30" transform="translate(159.033203 0)"/>
      </g>
     </g>
    </g>
    <g id="ytick_4">
     <g id="line2d_10">
      <path d="M 55.838125 85.35401 
L 485.228125 85.35401 
" clip-path="url(#p2f275ffad3)" style="fill: none; stroke: #cccccc; stroke-linecap: round"/>
     </g>
     <g id="text_4">
      <!-- 0.45 -->
      <g style="fill: #262626" transform="translate(21.845938 89.53315) scale(0.11 -0.11)">
       <use xlink:href="#DejaVuSans-30"/>
       <use xlink:href="#DejaVuSans-2e" transform="translate(63.623047 0)"/>
       <use xlink:href="#DejaVuSans-34" transform="translate(95.410156 0)"/>
       <use xlink:href="#DejaVuSans-35" transform="translate(159.033203 0)"/>
      </g>
     </g>
    </g>
    <g id="ytick_5">
     <g id="line2d_11">
      <path d="M 55.838125 54.470233 
L 485.228125 54.470233 
" clip-path="url(#p2f275ffad3)" style="fill: none; stroke: #cccccc; stroke-linecap: round"/>
     </g>
     <g id="text_5">
      <!-- 0.50 -->
      <g style="fill: #262626" transform="translate(21.845938 58.649373) scale(0.11 -0.11)">
       <use xlink:href="#DejaVuSans-30"/>
       <use xlink:href="#DejaVuSans-2e" transform="translate(63.623047 0)"/>
       <use xlink:href="#DejaVuSans-35" transform="translate(95.410156 0)"/>
       <use xlink:href="#DejaVuSans-30" transform="translate(159.033203 0)"/>
      </g>
     </g>
    </g>
    <g id="ytick_6">
     <g id="line2d_12">
      <path d="M 55.838125 23.586455 
L 485.228125 23.586455 
" clip-path="url(#p2f275ffad3)" style="fill: none; stroke: #cccccc; stroke-linecap: round"/>
     </g>
     <g id="text_6">
      <!-- 0.55 -->
      <g style="fill: #262626" transform="translate(21.845938 27.765596) scale(0.11 -0.11)">
       <use xlink:href="#DejaVuSans-30"/>
       <use xlink:href="#DejaVuSans-2e" transform="translate(63.623047 0)"/>
       <use xlink:href="#DejaVuSans-35" transform="translate(95.410156 0)"/>
       <use xlink:href="#DejaVuSans-35" transform="translate(159.033203 0)"/>
      </g>
     </g>
    </g>
    <g id="text_7">
     <!-- f(x) -->
     <g style="fill: #262626" transform="translate(15.558281 113.429453) rotate(-90) scale(0.11 -0.11)">
      <defs>
       <path id="DejaVuSans-66" d="M 2375 4863 
L 2375 4384 
L 1825 4384 
Q 1516 4384 1395 4259 
Q 1275 4134 1275 3809 
L 1275 3500 
L 2222 3500 
L 2222 3053 
L 1275 3053 
L 1275 0 
L 697 0 
L 697 3053 
L 147 3053 
L 147 3500 
L 697 3500 
L 697 3744 
Q 697 4328 969 4595 
Q 1241 4863 1831 4863 
L 2375 4863 
z
" transform="scale(0.015625)"/>
       <path id="DejaVuSans-28" d="M 1984 4856 
Q 1566 4138 1362 3434 
Q 1159 2731 1159 2009 
Q 1159 1288 1364 580 
Q 1569 -128 1984 -844 
L 1484 -844 
Q 1016 -109 783 600 
Q 550 1309 550 2009 
Q 550 2706 781 3412 
Q 1013 4119 1484 4856 
L 1984 4856 
z
" transform="scale(0.015625)"/>
       <path id="DejaVuSans-78" d="M 3513 3500 
L 2247 1797 
L 3578 0 
L 2900 0 
L 1881 1375 
L 863 0 
L 184 0 
L 1544 1831 
L 300 3500 
L 978 3500 
L 1906 2253 
L 2834 3500 
L 3513 3500 
z
" transform="scale(0.015625)"/>
       <path id="DejaVuSans-29" d="M 513 4856 
L 1013 4856 
Q 1481 4119 1714 3412 
Q 1947 2706 1947 2009 
Q 1947 1309 1714 600 
Q 1481 -109 1013 -844 
L 513 -844 
Q 928 -128 1133 580 
Q 1338 1288 1338 2009 
Q 1338 2731 1133 3434 
Q 928 4138 513 4856 
z
" transform="scale(0.015625)"/>
      </defs>
      <use xlink:href="#DejaVuSans-66"/>
      <use xlink:href="#DejaVuSans-28" transform="translate(35.205078 0)"/>
      <use xlink:href="#DejaVuSans-78" transform="translate(74.21875 0)"/>
      <use xlink:href="#DejaVuSans-29" transform="translate(133.398438 0)"/>
     </g>
    </g>
   </g>
   <g id="line2d_13">
    <path d="M 75.355852 178.005341 
L 309.046366 30.09374 
L 309.046366 30.09374 
" clip-path="url(#p2f275ffad3)" style="fill: none; stroke: #4878d0; stroke-width: 2.5; stroke-linecap: round"/>
   </g>
   <g id="line2d_14">
    <path d="M 310.3519 29.887159 
L 311.657433 30.09374 
L 312.962967 30.30032 
L 314.2685 30.5069 
L 315.574034 30.713481 
L 316.879568 30.920061 
L 318.185101 31.126642 
L 319.490635 31.333222 
L 320.796168 31.539803 
L 322.101702 31.746383 
L 323.407236 31.952964 
L 324.712769 32.159544 
L 326.018303 32.366124 
L 327.323836 32.572705 
L 328.62937 32.779285 
L 329.934904 32.985866 
L 331.240437 33.192446 
L 332.545971 33.399027 
L 333.851504 33.605607 
L 335.157038 33.812188 
L 336.462572 34.018768 
L 337.768105 34.225349 
L 339.073639 34.431929 
L 340.379172 34.638509 
L 341.684706 34.84509 
L 342.99024 35.05167 
L 344.295773 35.258251 
L 345.601307 35.464831 
L 346.90684 35.671412 
L 348.212374 35.877992 
L 349.517908 36.084573 
L 350.823441 36.291153 
L 352.128975 36.497733 
L 353.434508 36.704314 
L 354.740042 36.910894 
L 356.045576 37.117475 
L 357.351109 37.324055 
L 358.656643 37.530636 
L 359.962176 37.737216 
L 361.26771 37.943797 
L 362.573244 38.150377 
L 363.878777 38.356957 
L 365.184311 38.563538 
L 366.489844 38.770118 
L 367.795378 38.976699 
L 369.100912 39.183279 
L 370.406445 39.38986 
L 371.711979 39.59644 
L 373.017512 39.803021 
L 374.323046 40.009601 
L 375.62858 40.216182 
L 376.934113 40.422762 
L 378.239647 40.629342 
L 379.54518 40.835923 
L 380.850714 41.042503 
L 382.156248 41.249084 
L 383.461781 41.455664 
L 384.767315 41.662245 
L 386.072848 41.868825 
L 387.378382 42.075406 
L 388.683916 42.281986 
L 389.989449 42.488566 
L 391.294983 42.695147 
L 392.600516 42.901727 
L 393.90605 43.108308 
L 395.211583 43.314888 
L 396.517117 43.521469 
L 397.822651 43.728049 
L 399.128184 43.93463 
L 400.433718 44.14121 
L 401.739251 44.347791 
L 403.044785 44.554371 
L 404.350319 44.760951 
L 405.655852 44.967532 
L 406.961386 45.174112 
L 408.266919 45.380693 
L 409.572453 45.587273 
L 410.877987 45.793854 
L 412.18352 46.000434 
L 413.489054 46.207015 
L 414.794587 46.413595 
L 416.100121 46.620175 
L 417.405655 46.826756 
L 418.711188 47.033336 
L 420.016722 47.239917 
L 421.322255 47.446497 
L 422.627789 47.653078 
L 423.933323 47.859658 
L 425.238856 48.066239 
L 426.54439 48.272819 
L 427.849923 48.479399 
L 429.155457 48.68598 
L 430.460991 48.89256 
L 431.766524 49.099141 
L 433.072058 49.305721 
L 434.377591 49.512302 
L 435.683125 49.718882 
L 436.988659 49.925463 
L 438.294192 50.132043 
L 439.599726 50.338624 
L 440.905259 50.545204 
L 442.210793 50.751784 
L 443.516327 50.958365 
L 444.82186 51.164945 
L 446.127394 51.371526 
L 447.432927 51.578106 
L 448.738461 51.784687 
L 450.043995 51.991267 
L 451.349528 52.197848 
L 452.655062 52.404428 
L 453.960595 52.611008 
L 455.266129 52.817589 
L 456.571663 53.024169 
L 457.877196 53.23075 
L 459.18273 53.43733 
L 460.488263 53.643911 
L 461.793797 53.850491 
L 463.099331 54.057072 
L 464.404864 54.263652 
L 465.710398 54.470233 
" clip-path="url(#p2f275ffad3)" style="fill: none; stroke: #ee854a; stroke-width: 2.5; stroke-linecap: round"/>
   </g>
   <g id="line2d_15">
    <path d="M 309.56858 185.41125 
L 309.56858 22.48125 
" clip-path="url(#p2f275ffad3)" style="fill: none; stroke-dasharray: 0.8,1.32; stroke-dashoffset: 0; stroke: #808080; stroke-opacity: 0.9; stroke-width: 0.8"/>
   </g>
   <g id="patch_3">
    <path d="M 55.838125 185.41125 
L 55.838125 22.48125 
" style="fill: none; stroke: #cccccc; stroke-width: 1.25; stroke-linejoin: miter; stroke-linecap: square"/>
   </g>
   <g id="patch_4">
    <path d="M 485.228125 185.41125 
L 485.228125 22.48125 
" style="fill: none; stroke: #cccccc; stroke-width: 1.25; stroke-linejoin: miter; stroke-linecap: square"/>
   </g>
   <g id="patch_5">
    <path d="M 55.838125 185.41125 
L 485.228125 185.41125 
" style="fill: none; stroke: #cccccc; stroke-width: 1.25; stroke-linejoin: miter; stroke-linecap: square"/>
   </g>
   <g id="patch_6">
    <path d="M 55.838125 22.48125 
L 485.228125 22.48125 
" style="fill: none; stroke: #cccccc; stroke-width: 1.25; stroke-linejoin: miter; stroke-linecap: square"/>
   </g>
   <g id="text_8">
    <!-- Linear Spline: f(x) = β₀ + β₁x + β₂(x−ξ)₊ -->
    <g style="fill: #262626" transform="translate(136.345938 16.48125) scale(0.12 -0.12)">
     <defs>
      <path id="DejaVuSans-Bold-4c" d="M 588 4666 
L 1791 4666 
L 1791 909 
L 3903 909 
L 3903 0 
L 588 0 
L 588 4666 
z
" transform="scale(0.015625)"/>
      <path id="DejaVuSans-Bold-69" d="M 538 3500 
L 1656 3500 
L 1656 0 
L 538 0 
L 538 3500 
z
M 538 4863 
L 1656 4863 
L 1656 3950 
L 538 3950 
L 538 4863 
z
" transform="scale(0.015625)"/>
      <path id="DejaVuSans-Bold-6e" d="M 4056 2131 
L 4056 0 
L 2931 0 
L 2931 347 
L 2931 1631 
Q 2931 2084 2911 2256 
Q 2891 2428 2841 2509 
Q 2775 2619 2662 2680 
Q 2550 2741 2406 2741 
Q 2056 2741 1856 2470 
Q 1656 2200 1656 1722 
L 1656 0 
L 538 0 
L 538 3500 
L 1656 3500 
L 1656 2988 
Q 1909 3294 2193 3439 
Q 2478 3584 2822 3584 
Q 3428 3584 3742 3212 
Q 4056 2841 4056 2131 
z
" transform="scale(0.015625)"/>
      <path id="DejaVuSans-Bold-65" d="M 4031 1759 
L 4031 1441 
L 1416 1441 
Q 1456 1047 1700 850 
Q 1944 653 2381 653 
Q 2734 653 3104 758 
Q 3475 863 3866 1075 
L 3866 213 
Q 3469 63 3072 -14 
Q 2675 -91 2278 -91 
Q 1328 -91 801 392 
Q 275 875 275 1747 
Q 275 2603 792 3093 
Q 1309 3584 2216 3584 
Q 3041 3584 3536 3087 
Q 4031 2591 4031 1759 
z
M 2881 2131 
Q 2881 2450 2695 2645 
Q 2509 2841 2209 2841 
Q 1884 2841 1681 2658 
Q 1478 2475 1428 2131 
L 2881 2131 
z
" transform="scale(0.015625)"/>
      <path id="DejaVuSans-Bold-61" d="M 2106 1575 
Q 1756 1575 1579 1456 
Q 1403 1338 1403 1106 
Q 1403 894 1545 773 
Q 1688 653 1941 653 
Q 2256 653 2472 879 
Q 2688 1106 2688 1447 
L 2688 1575 
L 2106 1575 
z
M 3816 1997 
L 3816 0 
L 2688 0 
L 2688 519 
Q 2463 200 2181 54 
Q 1900 -91 1497 -91 
Q 953 -91 614 226 
Q 275 544 275 1050 
Q 275 1666 698 1953 
Q 1122 2241 2028 2241 
L 2688 2241 
L 2688 2328 
Q 2688 2594 2478 2717 
Q 2269 2841 1825 2841 
Q 1466 2841 1156 2769 
Q 847 2697 581 2553 
L 581 3406 
Q 941 3494 1303 3539 
Q 1666 3584 2028 3584 
Q 2975 3584 3395 3211 
Q 3816 2838 3816 1997 
z
" transform="scale(0.015625)"/>
      <path id="DejaVuSans-Bold-72" d="M 3138 2547 
Q 2991 2616 2845 2648 
Q 2700 2681 2553 2681 
Q 2122 2681 1889 2404 
Q 1656 2128 1656 1613 
L 1656 0 
L 538 0 
L 538 3500 
L 1656 3500 
L 1656 2925 
Q 1872 3269 2151 3426 
Q 2431 3584 2822 3584 
Q 2878 3584 2943 3579 
Q 3009 3575 3134 3559 
L 3138 2547 
z
" transform="scale(0.015625)"/>
      <path id="DejaVuSans-Bold-20" transform="scale(0.015625)"/>
      <path id="DejaVuSans-Bold-53" d="M 3834 4519 
L 3834 3531 
Q 3450 3703 3084 3790 
Q 2719 3878 2394 3878 
Q 1963 3878 1756 3759 
Q 1550 3641 1550 3391 
Q 1550 3203 1689 3098 
Q 1828 2994 2194 2919 
L 2706 2816 
Q 3484 2659 3812 2340 
Q 4141 2022 4141 1434 
Q 4141 663 3683 286 
Q 3225 -91 2284 -91 
Q 1841 -91 1394 -6 
Q 947 78 500 244 
L 500 1259 
Q 947 1022 1364 901 
Q 1781 781 2169 781 
Q 2563 781 2772 912 
Q 2981 1044 2981 1288 
Q 2981 1506 2839 1625 
Q 2697 1744 2272 1838 
L 1806 1941 
Q 1106 2091 782 2419 
Q 459 2747 459 3303 
Q 459 4000 909 4375 
Q 1359 4750 2203 4750 
Q 2588 4750 2994 4692 
Q 3400 4634 3834 4519 
z
" transform="scale(0.015625)"/>
      <path id="DejaVuSans-Bold-70" d="M 1656 506 
L 1656 -1331 
L 538 -1331 
L 538 3500 
L 1656 3500 
L 1656 2988 
Q 1888 3294 2169 3439 
Q 2450 3584 2816 3584 
Q 3463 3584 3878 3070 
Q 4294 2556 4294 1747 
Q 4294 938 3878 423 
Q 3463 -91 2816 -91 
Q 2450 -91 2169 54 
Q 1888 200 1656 506 
z
M 2400 2772 
Q 2041 2772 1848 2508 
Q 1656 2244 1656 1747 
Q 1656 1250 1848 986 
Q 2041 722 2400 722 
Q 2759 722 2948 984 
Q 3138 1247 3138 1747 
Q 3138 2247 2948 2509 
Q 2759 2772 2400 2772 
z
" transform="scale(0.015625)"/>
      <path id="DejaVuSans-Bold-6c" d="M 538 4863 
L 1656 4863 
L 1656 0 
L 538 0 
L 538 4863 
z
" transform="scale(0.015625)"/>
      <path id="DejaVuSans-Bold-3a" d="M 716 3500 
L 1844 3500 
L 1844 2291 
L 716 2291 
L 716 3500 
z
M 716 1209 
L 1844 1209 
L 1844 0 
L 716 0 
L 716 1209 
z
" transform="scale(0.015625)"/>
      <path id="DejaVuSans-Bold-66" d="M 2841 4863 
L 2841 4128 
L 2222 4128 
Q 1984 4128 1890 4042 
Q 1797 3956 1797 3744 
L 1797 3500 
L 2753 3500 
L 2753 2700 
L 1797 2700 
L 1797 0 
L 678 0 
L 678 2700 
L 122 2700 
L 122 3500 
L 678 3500 
L 678 3744 
Q 678 4316 997 4589 
Q 1316 4863 1984 4863 
L 2841 4863 
z
" transform="scale(0.015625)"/>
      <path id="DejaVuSans-Bold-28" d="M 2413 -844 
L 1484 -844 
Q 1006 -72 778 623 
Q 550 1319 550 2003 
Q 550 2688 779 3389 
Q 1009 4091 1484 4856 
L 2413 4856 
Q 2013 4116 1813 3408 
Q 1613 2700 1613 2009 
Q 1613 1319 1811 609 
Q 2009 -100 2413 -844 
z
" transform="scale(0.015625)"/>
      <path id="DejaVuSans-Bold-78" d="M 1422 1791 
L 159 3500 
L 1344 3500 
L 2059 2463 
L 2784 3500 
L 3969 3500 
L 2706 1797 
L 4031 0 
L 2847 0 
L 2059 1106 
L 1281 0 
L 97 0 
L 1422 1791 
z
" transform="scale(0.015625)"/>
      <path id="DejaVuSans-Bold-29" d="M 513 -844 
Q 913 -100 1113 609 
Q 1313 1319 1313 2009 
Q 1313 2700 1113 3408 
Q 913 4116 513 4856 
L 1441 4856 
Q 1916 4091 2145 3389 
Q 2375 2688 2375 2003 
Q 2375 1319 2147 623 
Q 1919 -72 1441 -844 
L 513 -844 
z
" transform="scale(0.015625)"/>
      <path id="DejaVuSans-Bold-3d" d="M 678 3084 
L 4684 3084 
L 4684 2350 
L 678 2350 
L 678 3084 
z
M 678 1663 
L 4684 1663 
L 4684 922 
L 678 922 
L 678 1663 
z
" transform="scale(0.015625)"/>
      <path id="DejaVuSans-Bold-3b2" d="M 2575 3038 
Q 2772 3309 2772 3503 
Q 2772 3769 2648 3948 
Q 2525 4128 2241 4128 
Q 1900 4128 1778 3864 
Q 1656 3600 1656 3103 
L 1656 1747 
Q 1656 1250 1848 986 
Q 2041 722 2400 722 
Q 2800 722 2953 934 
Q 3106 1147 3106 1275 
Q 3106 1722 2738 1988 
Q 2538 2122 1988 2134 
L 1988 2847 
Q 2497 2925 2575 3038 
z
M 538 -1331 
L 538 3044 
Q 538 3922 969 4369 
Q 1325 4741 1672 4845 
Q 2019 4950 2259 4950 
Q 2500 4947 2538 4941 
Q 3178 4841 3538 4438 
Q 3788 4163 3788 3600 
Q 3788 3313 3616 3053 
Q 3406 2734 3094 2709 
Q 3556 2584 3844 2322 
Q 4294 1919 4294 1288 
Q 4294 731 3903 320 
Q 3513 -91 2809 -91 
Q 2106 -91 1656 506 
L 1656 -1331 
L 538 -1331 
z
" transform="scale(0.015625)"/>
      <path id="DejaVuSans-Bold-2080" d="M 1806 1288 
Q 1806 1779 1706 1979 
Q 1606 2179 1368 2179 
Q 1131 2179 1028 1979 
Q 928 1779 928 1288 
Q 928 791 1028 588 
Q 1131 385 1369 385 
Q 1603 385 1706 588 
Q 1806 791 1806 1288 
z
M 2547 1285 
Q 2547 626 2241 279 
Q 1931 -71 1369 -71 
Q 797 -71 494 279 
Q 188 632 188 1285 
Q 188 1935 494 2285 
Q 803 2638 1369 2638 
Q 1931 2638 2241 2285 
Q 2547 1935 2547 1285 
z
" transform="scale(0.015625)"/>
      <path id="DejaVuSans-Bold-2b" d="M 3053 4013 
L 3053 2375 
L 4684 2375 
L 4684 1638 
L 3053 1638 
L 3053 0 
L 2309 0 
L 2309 1638 
L 678 1638 
L 678 2375 
L 2309 2375 
L 2309 4013 
L 3053 4013 
z
" transform="scale(0.015625)"/>
      <path id="DejaVuSans-Bold-2081" d="M 441 466 
L 1088 466 
L 1088 2094 
L 384 1932 
L 384 2432 
L 1100 2585 
L 1806 2585 
L 1806 466 
L 2444 466 
L 2444 -24 
L 441 -24 
L 441 466 
z
" transform="scale(0.015625)"/>
      <path id="DejaVuSans-Bold-2082" d="M 1288 501 
L 2444 501 
L 2444 -24 
L 341 -24 
L 341 454 
L 1319 1285 
Q 1509 1451 1590 1576 
Q 1672 1701 1672 1826 
Q 1672 1982 1558 2079 
Q 1444 2176 1259 2176 
Q 1066 2176 844 2105 
Q 622 2035 359 1888 
L 359 2469 
Q 631 2554 886 2596 
Q 1141 2638 1375 2638 
Q 1869 2638 2150 2436 
Q 2431 2235 2431 1888 
Q 2431 1663 2320 1474 
Q 2209 1285 1894 1016 
L 1288 501 
z
" transform="scale(0.015625)"/>
      <path id="DejaVuSans-Bold-2212" d="M 678 2375 
L 4684 2375 
L 4684 1638 
L 678 1638 
L 678 2375 
z
" transform="scale(0.015625)"/>
      <path id="DejaVuSans-Bold-3be" d="M 2519 800 
Q 2897 803 3191 491 
Q 3466 200 3466 -294 
Q 3466 -784 3192 -1057 
Q 2919 -1331 2397 -1331 
L 2397 -628 
Q 2616 -628 2691 -536 
Q 2766 -444 2766 -325 
Q 2766 -206 2673 -103 
Q 2581 0 2397 0 
Q 278 3 278 1344 
Q 278 2459 1525 2709 
Q 669 2725 672 3438 
Q 678 3928 1422 4063 
L 341 4063 
L 341 4863 
L 3413 4863 
L 3413 4063 
Q 1706 4063 1706 3438 
Q 1703 2841 2950 2847 
L 2950 2134 
Q 1400 2138 1397 1344 
Q 1400 797 2519 800 
z
" transform="scale(0.015625)"/>
      <path id="DejaVuSans-Bold-208a" d="M 1925 2222 
L 1925 1307 
L 2950 1307 
L 2950 891 
L 1925 891 
L 1925 -24 
L 1456 -24 
L 1456 891 
L 428 891 
L 428 1307 
L 1456 1307 
L 1456 2222 
L 1925 2222 
z
" transform="scale(0.015625)"/>
     </defs>
     <use xlink:href="#DejaVuSans-Bold-4c"/>
     <use xlink:href="#DejaVuSans-Bold-69" transform="translate(63.720703 0)"/>
     <use xlink:href="#DejaVuSans-Bold-6e" transform="translate(97.998047 0)"/>
     <use xlink:href="#DejaVuSans-Bold-65" transform="translate(169.189453 0)"/>
     <use xlink:href="#DejaVuSans-Bold-61" transform="translate(237.011719 0)"/>
     <use xlink:href="#DejaVuSans-Bold-72" transform="translate(304.492188 0)"/>
     <use xlink:href="#DejaVuSans-Bold-20" transform="translate(353.808594 0)"/>
     <use xlink:href="#DejaVuSans-Bold-53" transform="translate(388.623047 0)"/>
     <use xlink:href="#DejaVuSans-Bold-70" transform="translate(460.644531 0)"/>
     <use xlink:href="#DejaVuSans-Bold-6c" transform="translate(532.226562 0)"/>
     <use xlink:href="#DejaVuSans-Bold-69" transform="translate(566.503906 0)"/>
     <use xlink:href="#DejaVuSans-Bold-6e" transform="translate(600.78125 0)"/>
     <use xlink:href="#DejaVuSans-Bold-65" transform="translate(671.972656 0)"/>
     <use xlink:href="#DejaVuSans-Bold-3a" transform="translate(739.794922 0)"/>
     <use xlink:href="#DejaVuSans-Bold-20" transform="translate(779.785156 0)"/>
     <use xlink:href="#DejaVuSans-Bold-66" transform="translate(814.599609 0)"/>
     <use xlink:href="#DejaVuSans-Bold-28" transform="translate(858.105469 0)"/>
     <use xlink:href="#DejaVuSans-Bold-78" transform="translate(903.808594 0)"/>
     <use xlink:href="#DejaVuSans-Bold-29" transform="translate(968.310547 0)"/>
     <use xlink:href="#DejaVuSans-Bold-20" transform="translate(1014.013672 0)"/>
     <use xlink:href="#DejaVuSans-Bold-3d" transform="translate(1048.828125 0)"/>
     <use xlink:href="#DejaVuSans-Bold-20" transform="translate(1132.617188 0)"/>
     <use xlink:href="#DejaVuSans-Bold-3b2" transform="translate(1167.431641 0)"/>
     <use xlink:href="#DejaVuSans-Bold-2080" transform="translate(1239.013672 0)"/>
     <use xlink:href="#DejaVuSans-Bold-20" transform="translate(1282.8125 0)"/>
     <use xlink:href="#DejaVuSans-Bold-2b" transform="translate(1317.626953 0)"/>
     <use xlink:href="#DejaVuSans-Bold-20" transform="translate(1401.416016 0)"/>
     <use xlink:href="#DejaVuSans-Bold-3b2" transform="translate(1436.230469 0)"/>
     <use xlink:href="#DejaVuSans-Bold-2081" transform="translate(1507.8125 0)"/>
     <use xlink:href="#DejaVuSans-Bold-78" transform="translate(1551.611328 0)"/>
     <use xlink:href="#DejaVuSans-Bold-20" transform="translate(1616.113281 0)"/>
     <use xlink:href="#DejaVuSans-Bold-2b" transform="translate(1650.927734 0)"/>
     <use xlink:href="#DejaVuSans-Bold-20" transform="translate(1734.716797 0)"/>
     <use xlink:href="#DejaVuSans-Bold-3b2" transform="translate(1769.53125 0)"/>
     <use xlink:href="#DejaVuSans-Bold-2082" transform="translate(1841.113281 0)"/>
     <use xlink:href="#DejaVuSans-Bold-28" transform="translate(1884.912109 0)"/>
     <use xlink:href="#DejaVuSans-Bold-78" transform="translate(1930.615234 0)"/>
     <use xlink:href="#DejaVuSans-Bold-2212" transform="translate(1995.117188 0)"/>
     <use xlink:href="#DejaVuSans-Bold-3be" transform="translate(2078.90625 0)"/>
     <use xlink:href="#DejaVuSans-Bold-29" transform="translate(2137.988281 0)"/>
     <use xlink:href="#DejaVuSans-Bold-208a" transform="translate(2183.691406 0)"/>
    </g>
   </g>
   <g id="legend_1">
    <g id="patch_7">
     <path d="M 428.985938 45.159375 
L 478.228125 45.159375 
Q 480.228125 45.159375 480.228125 43.159375 
L 480.228125 29.48125 
Q 480.228125 27.48125 478.228125 27.48125 
L 428.985938 27.48125 
Q 426.985938 27.48125 426.985938 29.48125 
L 426.985938 43.159375 
Q 426.985938 45.159375 428.985938 45.159375 
z
" style="fill: #ffffff; opacity: 0.8; stroke: #cccccc; stroke-linejoin: miter"/>
    </g>
    <g id="line2d_16">
     <path d="M 430.985938 35.579687 
L 440.985938 35.579687 
L 450.985938 35.579687 
" style="fill: none; stroke: #4878d0; stroke-width: 2.5; stroke-linecap: round"/>
    </g>
    <g id="text_9">
     <!-- f(x) -->
     <g style="fill: #262626" transform="translate(458.985938 39.079687) scale(0.1 -0.1)">
      <use xlink:href="#DejaVuSans-66"/>
      <use xlink:href="#DejaVuSans-28" transform="translate(35.205078 0)"/>
      <use xlink:href="#DejaVuSans-78" transform="translate(74.21875 0)"/>
      <use xlink:href="#DejaVuSans-29" transform="translate(133.398438 0)"/>
     </g>
    </g>
   </g>
  </g>
  <g id="axes_2">
   <g id="patch_8">
    <path d="M 55.838125 377.38125 
L 485.228125 377.38125 
L 485.228125 214.45125 
L 55.838125 214.45125 
z
" style="fill: #ffffff"/>
   </g>
   <g id="matplotlib.axis_3">
    <g id="xtick_7">
     <g id="line2d_17">
      <path d="M 75.355852 377.38125 
L 75.355852 214.45125 
" clip-path="url(#pc2805d0c4f)" style="fill: none; stroke: #cccccc; stroke-linecap: round"/>
     </g>
     <g id="text_10">
      <!-- 0.0 -->
      <g style="fill: #262626" transform="translate(66.609134 395.239531) scale(0.11 -0.11)">
       <use xlink:href="#DejaVuSans-30"/>
       <use xlink:href="#DejaVuSans-2e" transform="translate(63.623047 0)"/>
       <use xlink:href="#DejaVuSans-30" transform="translate(95.410156 0)"/>
      </g>
     </g>
    </g>
    <g id="xtick_8">
     <g id="line2d_18">
      <path d="M 153.426761 377.38125 
L 153.426761 214.45125 
" clip-path="url(#pc2805d0c4f)" style="fill: none; stroke: #cccccc; stroke-linecap: round"/>
     </g>
     <g id="text_11">
      <!-- 0.2 -->
      <g style="fill: #262626" transform="translate(144.680043 395.239531) scale(0.11 -0.11)">
       <defs>
        <path id="DejaVuSans-32" d="M 1228 531 
L 3431 531 
L 3431 0 
L 469 0 
L 469 531 
Q 828 903 1448 1529 
Q 2069 2156 2228 2338 
Q 2531 2678 2651 2914 
Q 2772 3150 2772 3378 
Q 2772 3750 2511 3984 
Q 2250 4219 1831 4219 
Q 1534 4219 1204 4116 
Q 875 4013 500 3803 
L 500 4441 
Q 881 4594 1212 4672 
Q 1544 4750 1819 4750 
Q 2544 4750 2975 4387 
Q 3406 4025 3406 3419 
Q 3406 3131 3298 2873 
Q 3191 2616 2906 2266 
Q 2828 2175 2409 1742 
Q 1991 1309 1228 531 
z
" transform="scale(0.015625)"/>
       </defs>
       <use xlink:href="#DejaVuSans-30"/>
       <use xlink:href="#DejaVuSans-2e" transform="translate(63.623047 0)"/>
       <use xlink:href="#DejaVuSans-32" transform="translate(95.410156 0)"/>
      </g>
     </g>
    </g>
    <g id="xtick_9">
     <g id="line2d_19">
      <path d="M 231.49767 377.38125 
L 231.49767 214.45125 
" clip-path="url(#pc2805d0c4f)" style="fill: none; stroke: #cccccc; stroke-linecap: round"/>
     </g>
     <g id="text_12">
      <!-- 0.4 -->
      <g style="fill: #262626" transform="translate(222.750952 395.239531) scale(0.11 -0.11)">
       <use xlink:href="#DejaVuSans-30"/>
       <use xlink:href="#DejaVuSans-2e" transform="translate(63.623047 0)"/>
       <use xlink:href="#DejaVuSans-34" transform="translate(95.410156 0)"/>
      </g>
     </g>
    </g>
    <g id="xtick_10">
     <g id="line2d_20">
      <path d="M 309.56858 377.38125 
L 309.56858 214.45125 
" clip-path="url(#pc2805d0c4f)" style="fill: none; stroke: #cccccc; stroke-linecap: round"/>
     </g>
     <g id="text_13">
      <!-- 0.6 -->
      <g style="fill: #262626" transform="translate(300.821861 395.239531) scale(0.11 -0.11)">
       <defs>
        <path id="DejaVuSans-36" d="M 2113 2584 
Q 1688 2584 1439 2293 
Q 1191 2003 1191 1497 
Q 1191 994 1439 701 
Q 1688 409 2113 409 
Q 2538 409 2786 701 
Q 3034 994 3034 1497 
Q 3034 2003 2786 2293 
Q 2538 2584 2113 2584 
z
M 3366 4563 
L 3366 3988 
Q 3128 4100 2886 4159 
Q 2644 4219 2406 4219 
Q 1781 4219 1451 3797 
Q 1122 3375 1075 2522 
Q 1259 2794 1537 2939 
Q 1816 3084 2150 3084 
Q 2853 3084 3261 2657 
Q 3669 2231 3669 1497 
Q 3669 778 3244 343 
Q 2819 -91 2113 -91 
Q 1303 -91 875 529 
Q 447 1150 447 2328 
Q 447 3434 972 4092 
Q 1497 4750 2381 4750 
Q 2619 4750 2861 4703 
Q 3103 4656 3366 4563 
z
" transform="scale(0.015625)"/>
       </defs>
       <use xlink:href="#DejaVuSans-30"/>
       <use xlink:href="#DejaVuSans-2e" transform="translate(63.623047 0)"/>
       <use xlink:href="#DejaVuSans-36" transform="translate(95.410156 0)"/>
      </g>
     </g>
    </g>
    <g id="xtick_11">
     <g id="line2d_21">
      <path d="M 387.639489 377.38125 
L 387.639489 214.45125 
" clip-path="url(#pc2805d0c4f)" style="fill: none; stroke: #cccccc; stroke-linecap: round"/>
     </g>
     <g id="text_14">
      <!-- 0.8 -->
      <g style="fill: #262626" transform="translate(378.89277 395.239531) scale(0.11 -0.11)">
       <defs>
        <path id="DejaVuSans-38" d="M 2034 2216 
Q 1584 2216 1326 1975 
Q 1069 1734 1069 1313 
Q 1069 891 1326 650 
Q 1584 409 2034 409 
Q 2484 409 2743 651 
Q 3003 894 3003 1313 
Q 3003 1734 2745 1975 
Q 2488 2216 2034 2216 
z
M 1403 2484 
Q 997 2584 770 2862 
Q 544 3141 544 3541 
Q 544 4100 942 4425 
Q 1341 4750 2034 4750 
Q 2731 4750 3128 4425 
Q 3525 4100 3525 3541 
Q 3525 3141 3298 2862 
Q 3072 2584 2669 2484 
Q 3125 2378 3379 2068 
Q 3634 1759 3634 1313 
Q 3634 634 3220 271 
Q 2806 -91 2034 -91 
Q 1263 -91 848 271 
Q 434 634 434 1313 
Q 434 1759 690 2068 
Q 947 2378 1403 2484 
z
M 1172 3481 
Q 1172 3119 1398 2916 
Q 1625 2713 2034 2713 
Q 2441 2713 2670 2916 
Q 2900 3119 2900 3481 
Q 2900 3844 2670 4047 
Q 2441 4250 2034 4250 
Q 1625 4250 1398 4047 
Q 1172 3844 1172 3481 
z
" transform="scale(0.015625)"/>
       </defs>
       <use xlink:href="#DejaVuSans-30"/>
       <use xlink:href="#DejaVuSans-2e" transform="translate(63.623047 0)"/>
       <use xlink:href="#DejaVuSans-38" transform="translate(95.410156 0)"/>
      </g>
     </g>
    </g>
    <g id="xtick_12">
     <g id="line2d_22">
      <path d="M 465.710398 377.38125 
L 465.710398 214.45125 
" clip-path="url(#pc2805d0c4f)" style="fill: none; stroke: #cccccc; stroke-linecap: round"/>
     </g>
     <g id="text_15">
      <!-- 1.0 -->
      <g style="fill: #262626" transform="translate(456.963679 395.239531) scale(0.11 -0.11)">
       <defs>
        <path id="DejaVuSans-31" d="M 794 531 
L 1825 531 
L 1825 4091 
L 703 3866 
L 703 4441 
L 1819 4666 
L 2450 4666 
L 2450 531 
L 3481 531 
L 3481 0 
L 794 0 
L 794 531 
z
" transform="scale(0.015625)"/>
       </defs>
       <use xlink:href="#DejaVuSans-31"/>
       <use xlink:href="#DejaVuSans-2e" transform="translate(63.623047 0)"/>
       <use xlink:href="#DejaVuSans-30" transform="translate(95.410156 0)"/>
      </g>
     </g>
    </g>
    <g id="text_16">
     <!-- x -->
     <g style="fill: #262626" transform="translate(267.277813 409.885469) scale(0.11 -0.11)">
      <use xlink:href="#DejaVuSans-78"/>
     </g>
    </g>
   </g>
   <g id="matplotlib.axis_4">
    <g id="ytick_7">
     <g id="line2d_23">
      <path d="M 55.838125 369.975341 
L 485.228125 369.975341 
" clip-path="url(#pc2805d0c4f)" style="fill: none; stroke: #cccccc; stroke-linecap: round"/>
     </g>
     <g id="text_17">
      <!-- 0.0 -->
      <g style="fill: #262626" transform="translate(28.844688 374.154482) scale(0.11 -0.11)">
       <use xlink:href="#DejaVuSans-30"/>
       <use xlink:href="#DejaVuSans-2e" transform="translate(63.623047 0)"/>
       <use xlink:href="#DejaVuSans-30" transform="translate(95.410156 0)"/>
      </g>
     </g>
    </g>
    <g id="ytick_8">
     <g id="line2d_24">
      <path d="M 55.838125 332.945795 
L 485.228125 332.945795 
" clip-path="url(#pc2805d0c4f)" style="fill: none; stroke: #cccccc; stroke-linecap: round"/>
     </g>
     <g id="text_18">
      <!-- 0.1 -->
      <g style="fill: #262626" transform="translate(28.844688 337.124936) scale(0.11 -0.11)">
       <use xlink:href="#DejaVuSans-30"/>
       <use xlink:href="#DejaVuSans-2e" transform="translate(63.623047 0)"/>
       <use xlink:href="#DejaVuSans-31" transform="translate(95.410156 0)"/>
      </g>
     </g>
    </g>
    <g id="ytick_9">
     <g id="line2d_25">
      <path d="M 55.838125 295.91625 
L 485.228125 295.91625 
" clip-path="url(#pc2805d0c4f)" style="fill: none; stroke: #cccccc; stroke-linecap: round"/>
     </g>
     <g id="text_19">
      <!-- 0.2 -->
      <g style="fill: #262626" transform="translate(28.844688 300.095391) scale(0.11 -0.11)">
       <use xlink:href="#DejaVuSans-30"/>
       <use xlink:href="#DejaVuSans-2e" transform="translate(63.623047 0)"/>
       <use xlink:href="#DejaVuSans-32" transform="translate(95.410156 0)"/>
      </g>
     </g>
    </g>
    <g id="ytick_10">
     <g id="line2d_26">
      <path d="M 55.838125 258.886705 
L 485.228125 258.886705 
" clip-path="url(#pc2805d0c4f)" style="fill: none; stroke: #cccccc; stroke-linecap: round"/>
     </g>
     <g id="text_20">
      <!-- 0.3 -->
      <g style="fill: #262626" transform="translate(28.844688 263.065845) scale(0.11 -0.11)">
       <use xlink:href="#DejaVuSans-30"/>
       <use xlink:href="#DejaVuSans-2e" transform="translate(63.623047 0)"/>
       <use xlink:href="#DejaVuSans-33" transform="translate(95.410156 0)"/>
      </g>
     </g>
    </g>
    <g id="ytick_11">
     <g id="line2d_27">
      <path d="M 55.838125 221.857159 
L 485.228125 221.857159 
" clip-path="url(#pc2805d0c4f)" style="fill: none; stroke: #cccccc; stroke-linecap: round"/>
     </g>
     <g id="text_21">
      <!-- 0.4 -->
      <g style="fill: #262626" transform="translate(28.844688 226.0363) scale(0.11 -0.11)">
       <use xlink:href="#DejaVuSans-30"/>
       <use xlink:href="#DejaVuSans-2e" transform="translate(63.623047 0)"/>
       <use xlink:href="#DejaVuSans-34" transform="translate(95.410156 0)"/>
      </g>
     </g>
    </g>
    <g id="text_22">
     <!-- b(x) -->
     <g style="fill: #262626" transform="translate(22.557031 306.954922) rotate(-90) scale(0.11 -0.11)">
      <defs>
       <path id="DejaVuSans-62" d="M 3116 1747 
Q 3116 2381 2855 2742 
Q 2594 3103 2138 3103 
Q 1681 3103 1420 2742 
Q 1159 2381 1159 1747 
Q 1159 1113 1420 752 
Q 1681 391 2138 391 
Q 2594 391 2855 752 
Q 3116 1113 3116 1747 
z
M 1159 2969 
Q 1341 3281 1617 3432 
Q 1894 3584 2278 3584 
Q 2916 3584 3314 3078 
Q 3713 2572 3713 1747 
Q 3713 922 3314 415 
Q 2916 -91 2278 -91 
Q 1894 -91 1617 61 
Q 1341 213 1159 525 
L 1159 0 
L 581 0 
L 581 4863 
L 1159 4863 
L 1159 2969 
z
" transform="scale(0.015625)"/>
      </defs>
      <use xlink:href="#DejaVuSans-62"/>
      <use xlink:href="#DejaVuSans-28" transform="translate(63.476562 0)"/>
      <use xlink:href="#DejaVuSans-78" transform="translate(102.490234 0)"/>
      <use xlink:href="#DejaVuSans-29" transform="translate(161.669922 0)"/>
     </g>
    </g>
   </g>
   <g id="line2d_28">
    <path d="M 75.355852 369.975341 
L 309.046366 369.975341 
L 309.046366 369.975341 
" clip-path="url(#pc2805d0c4f)" style="fill: none; stroke: #ee854a; stroke-width: 2.5; stroke-linecap: round"/>
   </g>
   <g id="line2d_29">
    <path d="M 310.3519 369.232273 
L 311.657433 367.993827 
L 312.962967 366.75538 
L 314.2685 365.516934 
L 315.574034 364.278488 
L 316.879568 363.040041 
L 318.185101 361.801595 
L 319.490635 360.563149 
L 320.796168 359.324702 
L 322.101702 358.086256 
L 323.407236 356.84781 
L 324.712769 355.609363 
L 326.018303 354.370917 
L 327.323836 353.132471 
L 328.62937 351.894024 
L 329.934904 350.655578 
L 331.240437 349.417132 
L 332.545971 348.178685 
L 333.851504 346.940239 
L 335.157038 345.701793 
L 336.462572 344.463346 
L 337.768105 343.2249 
L 339.073639 341.986454 
L 340.379172 340.748007 
L 341.684706 339.509561 
L 342.99024 338.271115 
L 344.295773 337.032668 
L 345.601307 335.794222 
L 346.90684 334.555776 
L 348.212374 333.317329 
L 349.517908 332.078883 
L 350.823441 330.840437 
L 352.128975 329.60199 
L 353.434508 328.363544 
L 354.740042 327.125098 
L 356.045576 325.886651 
L 357.351109 324.648205 
L 358.656643 323.409759 
L 359.962176 322.171312 
L 361.26771 320.932866 
L 362.573244 319.69442 
L 363.878777 318.455973 
L 365.184311 317.217527 
L 366.489844 315.979081 
L 367.795378 314.740634 
L 369.100912 313.502188 
L 370.406445 312.263742 
L 371.711979 311.025295 
L 373.017512 309.786849 
L 374.323046 308.548403 
L 375.62858 307.309956 
L 376.934113 306.07151 
L 378.239647 304.833064 
L 379.54518 303.594617 
L 380.850714 302.356171 
L 382.156248 301.117725 
L 383.461781 299.879278 
L 384.767315 298.640832 
L 386.072848 297.402386 
L 387.378382 296.163939 
L 388.683916 294.925493 
L 389.989449 293.687047 
L 391.294983 292.4486 
L 392.600516 291.210154 
L 393.90605 289.971708 
L 395.211583 288.733261 
L 396.517117 287.494815 
L 397.822651 286.256369 
L 399.128184 285.017922 
L 400.433718 283.779476 
L 401.739251 282.54103 
L 403.044785 281.302583 
L 404.350319 280.064137 
L 405.655852 278.825691 
L 406.961386 277.587244 
L 408.266919 276.348798 
L 409.572453 275.110352 
L 410.877987 273.871905 
L 412.18352 272.633459 
L 413.489054 271.395013 
L 414.794587 270.156566 
L 416.100121 268.91812 
L 417.405655 267.679674 
L 418.711188 266.441227 
L 420.016722 265.202781 
L 421.322255 263.964335 
L 422.627789 262.725888 
L 423.933323 261.487442 
L 425.238856 260.248996 
L 426.54439 259.010549 
L 427.849923 257.772103 
L 429.155457 256.533657 
L 430.460991 255.29521 
L 431.766524 254.056764 
L 433.072058 252.818317 
L 434.377591 251.579871 
L 435.683125 250.341425 
L 436.988659 249.102978 
L 438.294192 247.864532 
L 439.599726 246.626086 
L 440.905259 245.387639 
L 442.210793 244.149193 
L 443.516327 242.910747 
L 444.82186 241.6723 
L 446.127394 240.433854 
L 447.432927 239.195408 
L 448.738461 237.956961 
L 450.043995 236.718515 
L 451.349528 235.480069 
L 452.655062 234.241622 
L 453.960595 233.003176 
L 455.266129 231.76473 
L 456.571663 230.526283 
L 457.877196 229.287837 
L 459.18273 228.049391 
L 460.488263 226.810944 
L 461.793797 225.572498 
L 463.099331 224.334052 
L 464.404864 223.095605 
L 465.710398 221.857159 
" clip-path="url(#pc2805d0c4f)" style="fill: none; stroke: #ee854a; stroke-width: 2.5; stroke-linecap: round"/>
   </g>
   <g id="line2d_30">
    <path d="M 309.56858 377.38125 
L 309.56858 214.45125 
" clip-path="url(#pc2805d0c4f)" style="fill: none; stroke-dasharray: 0.8,1.32; stroke-dashoffset: 0; stroke: #808080; stroke-opacity: 0.9; stroke-width: 0.8"/>
   </g>
   <g id="patch_9">
    <path d="M 55.838125 377.38125 
L 55.838125 214.45125 
" style="fill: none; stroke: #cccccc; stroke-width: 1.25; stroke-linejoin: miter; stroke-linecap: square"/>
   </g>
   <g id="patch_10">
    <path d="M 485.228125 377.38125 
L 485.228125 214.45125 
" style="fill: none; stroke: #cccccc; stroke-width: 1.25; stroke-linejoin: miter; stroke-linecap: square"/>
   </g>
   <g id="patch_11">
    <path d="M 55.838125 377.38125 
L 485.228125 377.38125 
" style="fill: none; stroke: #cccccc; stroke-width: 1.25; stroke-linejoin: miter; stroke-linecap: square"/>
   </g>
   <g id="patch_12">
    <path d="M 55.838125 214.45125 
L 485.228125 214.45125 
" style="fill: none; stroke: #cccccc; stroke-width: 1.25; stroke-linejoin: miter; stroke-linecap: square"/>
   </g>
   <g id="text_23">
    <!-- Truncated Linear Basis Function at ξ = 0.6 -->
    <g style="fill: #262626" transform="translate(127.755625 208.45125) scale(0.12 -0.12)">
     <defs>
      <path id="DejaVuSans-Bold-54" d="M 31 4666 
L 4331 4666 
L 4331 3756 
L 2784 3756 
L 2784 0 
L 1581 0 
L 1581 3756 
L 31 3756 
L 31 4666 
z
" transform="scale(0.015625)"/>
      <path id="DejaVuSans-Bold-75" d="M 500 1363 
L 500 3500 
L 1625 3500 
L 1625 3150 
Q 1625 2866 1622 2436 
Q 1619 2006 1619 1863 
Q 1619 1441 1641 1255 
Q 1663 1069 1716 984 
Q 1784 875 1895 815 
Q 2006 756 2150 756 
Q 2500 756 2700 1025 
Q 2900 1294 2900 1772 
L 2900 3500 
L 4019 3500 
L 4019 0 
L 2900 0 
L 2900 506 
Q 2647 200 2364 54 
Q 2081 -91 1741 -91 
Q 1134 -91 817 281 
Q 500 653 500 1363 
z
" transform="scale(0.015625)"/>
      <path id="DejaVuSans-Bold-63" d="M 3366 3391 
L 3366 2478 
Q 3138 2634 2908 2709 
Q 2678 2784 2431 2784 
Q 1963 2784 1702 2511 
Q 1441 2238 1441 1747 
Q 1441 1256 1702 982 
Q 1963 709 2431 709 
Q 2694 709 2930 787 
Q 3166 866 3366 1019 
L 3366 103 
Q 3103 6 2833 -42 
Q 2563 -91 2291 -91 
Q 1344 -91 809 395 
Q 275 881 275 1747 
Q 275 2613 809 3098 
Q 1344 3584 2291 3584 
Q 2566 3584 2833 3536 
Q 3100 3488 3366 3391 
z
" transform="scale(0.015625)"/>
      <path id="DejaVuSans-Bold-74" d="M 1759 4494 
L 1759 3500 
L 2913 3500 
L 2913 2700 
L 1759 2700 
L 1759 1216 
Q 1759 972 1856 886 
Q 1953 800 2241 800 
L 2816 800 
L 2816 0 
L 1856 0 
Q 1194 0 917 276 
Q 641 553 641 1216 
L 641 2700 
L 84 2700 
L 84 3500 
L 641 3500 
L 641 4494 
L 1759 4494 
z
" transform="scale(0.015625)"/>
      <path id="DejaVuSans-Bold-64" d="M 2919 2988 
L 2919 4863 
L 4044 4863 
L 4044 0 
L 2919 0 
L 2919 506 
Q 2688 197 2409 53 
Q 2131 -91 1766 -91 
Q 1119 -91 703 423 
Q 288 938 288 1747 
Q 288 2556 703 3070 
Q 1119 3584 1766 3584 
Q 2128 3584 2408 3439 
Q 2688 3294 2919 2988 
z
M 2181 722 
Q 2541 722 2730 984 
Q 2919 1247 2919 1747 
Q 2919 2247 2730 2509 
Q 2541 2772 2181 2772 
Q 1825 2772 1636 2509 
Q 1447 2247 1447 1747 
Q 1447 1247 1636 984 
Q 1825 722 2181 722 
z
" transform="scale(0.015625)"/>
      <path id="DejaVuSans-Bold-42" d="M 2456 2859 
Q 2741 2859 2887 2984 
Q 3034 3109 3034 3353 
Q 3034 3594 2887 3720 
Q 2741 3847 2456 3847 
L 1791 3847 
L 1791 2859 
L 2456 2859 
z
M 2497 819 
Q 2859 819 3042 972 
Q 3225 1125 3225 1434 
Q 3225 1738 3044 1889 
Q 2863 2041 2497 2041 
L 1791 2041 
L 1791 819 
L 2497 819 
z
M 3616 2497 
Q 4003 2384 4215 2081 
Q 4428 1778 4428 1338 
Q 4428 663 3972 331 
Q 3516 0 2584 0 
L 588 0 
L 588 4666 
L 2394 4666 
Q 3366 4666 3802 4372 
Q 4238 4078 4238 3431 
Q 4238 3091 4078 2852 
Q 3919 2613 3616 2497 
z
" transform="scale(0.015625)"/>
      <path id="DejaVuSans-Bold-73" d="M 3272 3391 
L 3272 2541 
Q 2913 2691 2578 2766 
Q 2244 2841 1947 2841 
Q 1628 2841 1473 2761 
Q 1319 2681 1319 2516 
Q 1319 2381 1436 2309 
Q 1553 2238 1856 2203 
L 2053 2175 
Q 2913 2066 3209 1816 
Q 3506 1566 3506 1031 
Q 3506 472 3093 190 
Q 2681 -91 1863 -91 
Q 1516 -91 1145 -36 
Q 775 19 384 128 
L 384 978 
Q 719 816 1070 734 
Q 1422 653 1784 653 
Q 2113 653 2278 743 
Q 2444 834 2444 1013 
Q 2444 1163 2330 1236 
Q 2216 1309 1875 1350 
L 1678 1375 
Q 931 1469 631 1722 
Q 331 1975 331 2491 
Q 331 3047 712 3315 
Q 1094 3584 1881 3584 
Q 2191 3584 2531 3537 
Q 2872 3491 3272 3391 
z
" transform="scale(0.015625)"/>
      <path id="DejaVuSans-Bold-46" d="M 588 4666 
L 3834 4666 
L 3834 3756 
L 1791 3756 
L 1791 2888 
L 3713 2888 
L 3713 1978 
L 1791 1978 
L 1791 0 
L 588 0 
L 588 4666 
z
" transform="scale(0.015625)"/>
      <path id="DejaVuSans-Bold-6f" d="M 2203 2784 
Q 1831 2784 1636 2517 
Q 1441 2250 1441 1747 
Q 1441 1244 1636 976 
Q 1831 709 2203 709 
Q 2569 709 2762 976 
Q 2956 1244 2956 1747 
Q 2956 2250 2762 2517 
Q 2569 2784 2203 2784 
z
M 2203 3584 
Q 3106 3584 3614 3096 
Q 4122 2609 4122 1747 
Q 4122 884 3614 396 
Q 3106 -91 2203 -91 
Q 1297 -91 786 396 
Q 275 884 275 1747 
Q 275 2609 786 3096 
Q 1297 3584 2203 3584 
z
" transform="scale(0.015625)"/>
      <path id="DejaVuSans-Bold-30" d="M 2944 2338 
Q 2944 3213 2780 3570 
Q 2616 3928 2228 3928 
Q 1841 3928 1675 3570 
Q 1509 3213 1509 2338 
Q 1509 1453 1675 1090 
Q 1841 728 2228 728 
Q 2613 728 2778 1090 
Q 2944 1453 2944 2338 
z
M 4147 2328 
Q 4147 1169 3647 539 
Q 3147 -91 2228 -91 
Q 1306 -91 806 539 
Q 306 1169 306 2328 
Q 306 3491 806 4120 
Q 1306 4750 2228 4750 
Q 3147 4750 3647 4120 
Q 4147 3491 4147 2328 
z
" transform="scale(0.015625)"/>
      <path id="DejaVuSans-Bold-2e" d="M 653 1209 
L 1778 1209 
L 1778 0 
L 653 0 
L 653 1209 
z
" transform="scale(0.015625)"/>
      <path id="DejaVuSans-Bold-36" d="M 2316 2303 
Q 2000 2303 1842 2098 
Q 1684 1894 1684 1484 
Q 1684 1075 1842 870 
Q 2000 666 2316 666 
Q 2634 666 2792 870 
Q 2950 1075 2950 1484 
Q 2950 1894 2792 2098 
Q 2634 2303 2316 2303 
z
M 3803 4544 
L 3803 3681 
Q 3506 3822 3243 3889 
Q 2981 3956 2731 3956 
Q 2194 3956 1894 3657 
Q 1594 3359 1544 2772 
Q 1750 2925 1990 3001 
Q 2231 3078 2516 3078 
Q 3231 3078 3670 2659 
Q 4109 2241 4109 1563 
Q 4109 813 3618 361 
Q 3128 -91 2303 -91 
Q 1394 -91 895 523 
Q 397 1138 397 2266 
Q 397 3422 980 4083 
Q 1563 4744 2578 4744 
Q 2900 4744 3203 4694 
Q 3506 4644 3803 4544 
z
" transform="scale(0.015625)"/>
     </defs>
     <use xlink:href="#DejaVuSans-Bold-54"/>
     <use xlink:href="#DejaVuSans-Bold-72" transform="translate(57.212891 0)"/>
     <use xlink:href="#DejaVuSans-Bold-75" transform="translate(106.529297 0)"/>
     <use xlink:href="#DejaVuSans-Bold-6e" transform="translate(177.720703 0)"/>
     <use xlink:href="#DejaVuSans-Bold-63" transform="translate(248.912109 0)"/>
     <use xlink:href="#DejaVuSans-Bold-61" transform="translate(308.189453 0)"/>
     <use xlink:href="#DejaVuSans-Bold-74" transform="translate(375.669922 0)"/>
     <use xlink:href="#DejaVuSans-Bold-65" transform="translate(423.472656 0)"/>
     <use xlink:href="#DejaVuSans-Bold-64" transform="translate(491.294922 0)"/>
     <use xlink:href="#DejaVuSans-Bold-20" transform="translate(562.876953 0)"/>
     <use xlink:href="#DejaVuSans-Bold-4c" transform="translate(597.691406 0)"/>
     <use xlink:href="#DejaVuSans-Bold-69" transform="translate(661.412109 0)"/>
     <use xlink:href="#DejaVuSans-Bold-6e" transform="translate(695.689453 0)"/>
     <use xlink:href="#DejaVuSans-Bold-65" transform="translate(766.880859 0)"/>
     <use xlink:href="#DejaVuSans-Bold-61" transform="translate(834.703125 0)"/>
     <use xlink:href="#DejaVuSans-Bold-72" transform="translate(902.183594 0)"/>
     <use xlink:href="#DejaVuSans-Bold-20" transform="translate(951.5 0)"/>
     <use xlink:href="#DejaVuSans-Bold-42" transform="translate(986.314453 0)"/>
     <use xlink:href="#DejaVuSans-Bold-61" transform="translate(1062.535156 0)"/>
     <use xlink:href="#DejaVuSans-Bold-73" transform="translate(1130.015625 0)"/>
     <use xlink:href="#DejaVuSans-Bold-69" transform="translate(1189.537109 0)"/>
     <use xlink:href="#DejaVuSans-Bold-73" transform="translate(1223.814453 0)"/>
     <use xlink:href="#DejaVuSans-Bold-20" transform="translate(1283.335938 0)"/>
     <use xlink:href="#DejaVuSans-Bold-46" transform="translate(1318.150391 0)"/>
     <use xlink:href="#DejaVuSans-Bold-75" transform="translate(1381.460938 0)"/>
     <use xlink:href="#DejaVuSans-Bold-6e" transform="translate(1452.652344 0)"/>
     <use xlink:href="#DejaVuSans-Bold-63" transform="translate(1523.84375 0)"/>
     <use xlink:href="#DejaVuSans-Bold-74" transform="translate(1583.121094 0)"/>
     <use xlink:href="#DejaVuSans-Bold-69" transform="translate(1630.923828 0)"/>
     <use xlink:href="#DejaVuSans-Bold-6f" transform="translate(1665.201172 0)"/>
     <use xlink:href="#DejaVuSans-Bold-6e" transform="translate(1733.902344 0)"/>
     <use xlink:href="#DejaVuSans-Bold-20" transform="translate(1805.09375 0)"/>
     <use xlink:href="#DejaVuSans-Bold-61" transform="translate(1839.908203 0)"/>
     <use xlink:href="#DejaVuSans-Bold-74" transform="translate(1907.388672 0)"/>
     <use xlink:href="#DejaVuSans-Bold-20" transform="translate(1955.191406 0)"/>
     <use xlink:href="#DejaVuSans-Bold-3be" transform="translate(1990.005859 0)"/>
     <use xlink:href="#DejaVuSans-Bold-20" transform="translate(2049.087891 0)"/>
     <use xlink:href="#DejaVuSans-Bold-3d" transform="translate(2083.902344 0)"/>
     <use xlink:href="#DejaVuSans-Bold-20" transform="translate(2167.691406 0)"/>
     <use xlink:href="#DejaVuSans-Bold-30" transform="translate(2202.505859 0)"/>
     <use xlink:href="#DejaVuSans-Bold-2e" transform="translate(2272.085938 0)"/>
     <use xlink:href="#DejaVuSans-Bold-36" transform="translate(2310.074219 0)"/>
    </g>
   </g>
   <g id="legend_2">
    <g id="patch_13">
     <path d="M 62.838125 237.149688 
L 168.956875 237.149688 
Q 170.956875 237.149688 170.956875 235.149688 
L 170.956875 221.45125 
Q 170.956875 219.45125 168.956875 219.45125 
L 62.838125 219.45125 
Q 60.838125 219.45125 60.838125 221.45125 
L 60.838125 235.149688 
Q 60.838125 237.149688 62.838125 237.149688 
z
" style="fill: #ffffff; opacity: 0.8; stroke: #cccccc; stroke-linejoin: miter"/>
    </g>
    <g id="line2d_31">
     <path d="M 64.838125 227.549688 
L 74.838125 227.549688 
L 84.838125 227.549688 
" style="fill: none; stroke: #ee854a; stroke-width: 2.5; stroke-linecap: round"/>
    </g>
    <g id="text_24">
     <!-- b(x) = (x − ξ)₊ -->
     <g style="fill: #262626" transform="translate(92.838125 231.049688) scale(0.1 -0.1)">
      <defs>
       <path id="DejaVuSans-20" transform="scale(0.015625)"/>
       <path id="DejaVuSans-3d" d="M 678 2906 
L 4684 2906 
L 4684 2381 
L 678 2381 
L 678 2906 
z
M 678 1631 
L 4684 1631 
L 4684 1100 
L 678 1100 
L 678 1631 
z
" transform="scale(0.015625)"/>
       <path id="DejaVuSans-2212" d="M 678 2272 
L 4684 2272 
L 4684 1741 
L 678 1741 
L 678 2272 
z
" transform="scale(0.015625)"/>
       <path id="DejaVuSans-3be" d="M 2281 397 
Q 2694 394 2941 159 
Q 3203 -88 3203 -463 
Q 3203 -822 2972 -1072 
Q 2722 -1344 2213 -1344 
Q 2213 -1109 2213 -872 
Q 2428 -888 2559 -750 
Q 2659 -641 2659 -525 
Q 2659 -359 2559 -222 
Q 2463 -91 2281 -91 
Q 334 -91 334 1275 
Q 334 2213 1375 2488 
Q 500 2600 500 3413 
Q 500 4028 1188 4284 
L 538 4284 
L 538 4863 
L 3003 4863 
L 3003 4284 
Q 1038 4284 1038 3375 
Q 1038 2778 2688 2750 
L 2688 2219 
Q 906 2288 913 1275 
Q 916 428 2281 397 
z
" transform="scale(0.015625)"/>
       <path id="DejaVuSans-208a" d="M 1853 2222 
L 1853 1247 
L 2950 1247 
L 2950 951 
L 1853 951 
L 1853 -24 
L 1525 -24 
L 1525 951 
L 428 951 
L 428 1247 
L 1525 1247 
L 1525 2222 
L 1853 2222 
z
" transform="scale(0.015625)"/>
      </defs>
      <use xlink:href="#DejaVuSans-62"/>
      <use xlink:href="#DejaVuSans-28" transform="translate(63.476562 0)"/>
      <use xlink:href="#DejaVuSans-78" transform="translate(102.490234 0)"/>
      <use xlink:href="#DejaVuSans-29" transform="translate(161.669922 0)"/>
      <use xlink:href="#DejaVuSans-20" transform="translate(200.683594 0)"/>
      <use xlink:href="#DejaVuSans-3d" transform="translate(232.470703 0)"/>
      <use xlink:href="#DejaVuSans-20" transform="translate(316.259766 0)"/>
      <use xlink:href="#DejaVuSans-28" transform="translate(348.046875 0)"/>
      <use xlink:href="#DejaVuSans-78" transform="translate(387.060547 0)"/>
      <use xlink:href="#DejaVuSans-20" transform="translate(446.240234 0)"/>
      <use xlink:href="#DejaVuSans-2212" transform="translate(478.027344 0)"/>
      <use xlink:href="#DejaVuSans-20" transform="translate(561.816406 0)"/>
      <use xlink:href="#DejaVuSans-3be" transform="translate(593.603516 0)"/>
      <use xlink:href="#DejaVuSans-29" transform="translate(649.365234 0)"/>
      <use xlink:href="#DejaVuSans-208a" transform="translate(688.378906 0)"/>
     </g>
    </g>
   </g>
  </g>
 </g>
 <defs>
  <clipPath id="p2f275ffad3">
   <rect x="55.838125" y="22.48125" width="429.39" height="162.93"/>
  </clipPath>
  <clipPath id="pc2805d0c4f">
   <rect x="55.838125" y="214.45125" width="429.39" height="162.93"/>
  </clipPath>
 </defs>
</svg>
