<?xml version="1.0" encoding="utf-8" standalone="no"?>
<!DOCTYPE svg PUBLIC "-//W3C//DTD SVG 1.1//EN"
  "http://www.w3.org/Graphics/SVG/1.1/DTD/svg11.dtd">
<svg xmlns:xlink="http://www.w3.org/1999/xlink" width="492.428125pt" height="420.039687pt" viewBox="0 0 492.428125 420.039687" xmlns="http://www.w3.org/2000/svg" version="1.1">
 <metadata>
  <rdf:RDF xmlns:dc="http://purl.org/dc/elements/1.1/" xmlns:cc="http://creativecommons.org/ns#" xmlns:rdf="http://www.w3.org/1999/02/22-rdf-syntax-ns#">
   <cc:Work>
    <dc:type rdf:resource="http://purl.org/dc/dcmitype/StillImage"/>
    <dc:date>2026-06-02T20:36:25.432584</dc:date>
    <dc:format>image/svg+xml</dc:format>
    <dc:creator>
     <cc:Agent>
      <dc:title>Matplotlib v3.10.9, https://matplotlib.org/</dc:title>
     </cc:Agent>
    </dc:creator>
   </cc:Work>
  </rdf:RDF>
 </metadata>
 <defs>
  <style type="text/css">*{stroke-linejoin: round; stroke-linecap: butt}</style>
 </defs>
 <g id="figure_1">
  <g id="patch_1">
   <path d="M 0 420.039687 
L 492.428125 420.039687 
L 492.428125 0 
L 0 0 
z
" style="fill: #ffffff"/>
  </g>
  <g id="axes_1">
   <g id="patch_2">
    <path d="M 55.838125 186.077812 
L 485.228125 186.077812 
L 485.228125 21.707812 
L 55.838125 21.707812 
z
" style="fill: #ffffff"/>
   </g>
   <g id="matplotlib.axis_1">
    <g id="xtick_1">
     <g id="line2d_1">
      <path d="M 75.355852 186.077812 
L 75.355852 21.707812 
" clip-path="url(#p62d930e706)" style="fill: none; stroke: #cccccc; stroke-linecap: round"/>
     </g>
    </g>
    <g id="xtick_2">
     <g id="line2d_2">
      <path d="M 153.426761 186.077812 
L 153.426761 21.707812 
" clip-path="url(#p62d930e706)" style="fill: none; stroke: #cccccc; stroke-linecap: round"/>
     </g>
    </g>
    <g id="xtick_3">
     <g id="line2d_3">
      <path d="M 231.49767 186.077812 
L 231.49767 21.707812 
" clip-path="url(#p62d930e706)" style="fill: none; stroke: #cccccc; stroke-linecap: round"/>
     </g>
    </g>
    <g id="xtick_4">
     <g id="line2d_4">
      <path d="M 309.56858 186.077812 
L 309.56858 21.707812 
" clip-path="url(#p62d930e706)" style="fill: none; stroke: #cccccc; stroke-linecap: round"/>
     </g>
    </g>
    <g id="xtick_5">
     <g id="line2d_5">
      <path d="M 387.639489 186.077812 
L 387.639489 21.707812 
" clip-path="url(#p62d930e706)" style="fill: none; stroke: #cccccc; stroke-linecap: round"/>
     </g>
    </g>
    <g id="xtick_6">
     <g id="line2d_6">
      <path d="M 465.710398 186.077812 
L 465.710398 21.707812 
" clip-path="url(#p62d930e706)" style="fill: none; stroke: #cccccc; stroke-linecap: round"/>
     </g>
    </g>
   </g>
   <g id="matplotlib.axis_2">
    <g id="ytick_1">
     <g id="line2d_7">
      <path d="M 55.838125 178.606449 
L 485.228125 178.606449 
" clip-path="url(#p62d930e706)" style="fill: none; stroke: #cccccc; stroke-linecap: round"/>
     </g>
     <g id="text_1">
      <!-- 1.00 -->
      <g style="fill: #262626" transform="translate(21.845938 182.785589) scale(0.11 -0.11)">
       <defs>
        <path id="DejaVuSans-31" d="M 794 531 
L 1825 531 
L 1825 4091 
L 703 3866 
L 703 4441 
L 1819 4666 
L 2450 4666 
L 2450 531 
L 3481 531 
L 3481 0 
L 794 0 
L 794 531 
z
" transform="scale(0.015625)"/>
        <path id="DejaVuSans-2e" d="M 684 794 
L 1344 794 
L 1344 0 
L 684 0 
L 684 794 
z
" transform="scale(0.015625)"/>
        <path id="DejaVuSans-30" d="M 2034 4250 
Q 1547 4250 1301 3770 
Q 1056 3291 1056 2328 
Q 1056 1369 1301 889 
Q 1547 409 2034 409 
Q 2525 409 2770 889 
Q 3016 1369 3016 2328 
Q 3016 3291 2770 3770 
Q 2525 4250 2034 4250 
z
M 2034 4750 
Q 2819 4750 3233 4129 
Q 3647 3509 3647 2328 
Q 3647 1150 3233 529 
Q 2819 -91 2034 -91 
Q 1250 -91 836 529 
Q 422 1150 422 2328 
Q 422 3509 836 4129 
Q 1250 4750 2034 4750 
z
" transform="scale(0.015625)"/>
       </defs>
       <use xlink:href="#DejaVuSans-31"/>
       <use xlink:href="#DejaVuSans-2e" transform="translate(63.623047 0)"/>
       <use xlink:href="#DejaVuSans-30" transform="translate(95.410156 0)"/>
       <use xlink:href="#DejaVuSans-30" transform="translate(159.033203 0)"/>
      </g>
     </g>
    </g>
    <g id="ytick_2">
     <g id="line2d_8">
      <path d="M 55.838125 148.576852 
L 485.228125 148.576852 
" clip-path="url(#p62d930e706)" style="fill: none; stroke: #cccccc; stroke-linecap: round"/>
     </g>
     <g id="text_2">
      <!-- 1.05 -->
      <g style="fill: #262626" transform="translate(21.845938 152.755993) scale(0.11 -0.11)">
       <defs>
        <path id="DejaVuSans-35" d="M 691 4666 
L 3169 4666 
L 3169 4134 
L 1269 4134 
L 1269 2991 
Q 1406 3038 1543 3061 
Q 1681 3084 1819 3084 
Q 2600 3084 3056 2656 
Q 3513 2228 3513 1497 
Q 3513 744 3044 326 
Q 2575 -91 1722 -91 
Q 1428 -91 1123 -41 
Q 819 9 494 109 
L 494 744 
Q 775 591 1075 516 
Q 1375 441 1709 441 
Q 2250 441 2565 725 
Q 2881 1009 2881 1497 
Q 2881 1984 2565 2268 
Q 2250 2553 1709 2553 
Q 1456 2553 1204 2497 
Q 953 2441 691 2322 
L 691 4666 
z
" transform="scale(0.015625)"/>
       </defs>
       <use xlink:href="#DejaVuSans-31"/>
       <use xlink:href="#DejaVuSans-2e" transform="translate(63.623047 0)"/>
       <use xlink:href="#DejaVuSans-30" transform="translate(95.410156 0)"/>
       <use xlink:href="#DejaVuSans-35" transform="translate(159.033203 0)"/>
      </g>
     </g>
    </g>
    <g id="ytick_3">
     <g id="line2d_9">
      <path d="M 55.838125 118.547256 
L 485.228125 118.547256 
" clip-path="url(#p62d930e706)" style="fill: none; stroke: #cccccc; stroke-linecap: round"/>
     </g>
     <g id="text_3">
      <!-- 1.10 -->
      <g style="fill: #262626" transform="translate(21.845938 122.726396) scale(0.11 -0.11)">
       <use xlink:href="#DejaVuSans-31"/>
       <use xlink:href="#DejaVuSans-2e" transform="translate(63.623047 0)"/>
       <use xlink:href="#DejaVuSans-31" transform="translate(95.410156 0)"/>
       <use xlink:href="#DejaVuSans-30" transform="translate(159.033203 0)"/>
      </g>
     </g>
    </g>
    <g id="ytick_4">
     <g id="line2d_10">
      <path d="M 55.838125 88.517659 
L 485.228125 88.517659 
" clip-path="url(#p62d930e706)" style="fill: none; stroke: #cccccc; stroke-linecap: round"/>
     </g>
     <g id="text_4">
      <!-- 1.15 -->
      <g style="fill: #262626" transform="translate(21.845938 92.6968) scale(0.11 -0.11)">
       <use xlink:href="#DejaVuSans-31"/>
       <use xlink:href="#DejaVuSans-2e" transform="translate(63.623047 0)"/>
       <use xlink:href="#DejaVuSans-31" transform="translate(95.410156 0)"/>
       <use xlink:href="#DejaVuSans-35" transform="translate(159.033203 0)"/>
      </g>
     </g>
    </g>
    <g id="ytick_5">
     <g id="line2d_11">
      <path d="M 55.838125 58.488062 
L 485.228125 58.488062 
" clip-path="url(#p62d930e706)" style="fill: none; stroke: #cccccc; stroke-linecap: round"/>
     </g>
     <g id="text_5">
      <!-- 1.20 -->
      <g style="fill: #262626" transform="translate(21.845938 62.667203) scale(0.11 -0.11)">
       <defs>
        <path id="DejaVuSans-32" d="M 1228 531 
L 3431 531 
L 3431 0 
L 469 0 
L 469 531 
Q 828 903 1448 1529 
Q 2069 2156 2228 2338 
Q 2531 2678 2651 2914 
Q 2772 3150 2772 3378 
Q 2772 3750 2511 3984 
Q 2250 4219 1831 4219 
Q 1534 4219 1204 4116 
Q 875 4013 500 3803 
L 500 4441 
Q 881 4594 1212 4672 
Q 1544 4750 1819 4750 
Q 2544 4750 2975 4387 
Q 3406 4025 3406 3419 
Q 3406 3131 3298 2873 
Q 3191 2616 2906 2266 
Q 2828 2175 2409 1742 
Q 1991 1309 1228 531 
z
" transform="scale(0.015625)"/>
       </defs>
       <use xlink:href="#DejaVuSans-31"/>
       <use xlink:href="#DejaVuSans-2e" transform="translate(63.623047 0)"/>
       <use xlink:href="#DejaVuSans-32" transform="translate(95.410156 0)"/>
       <use xlink:href="#DejaVuSans-30" transform="translate(159.033203 0)"/>
      </g>
     </g>
    </g>
    <g id="ytick_6">
     <g id="line2d_12">
      <path d="M 55.838125 28.458466 
L 485.228125 28.458466 
" clip-path="url(#p62d930e706)" style="fill: none; stroke: #cccccc; stroke-linecap: round"/>
     </g>
     <g id="text_6">
      <!-- 1.25 -->
      <g style="fill: #262626" transform="translate(21.845938 32.637606) scale(0.11 -0.11)">
       <use xlink:href="#DejaVuSans-31"/>
       <use xlink:href="#DejaVuSans-2e" transform="translate(63.623047 0)"/>
       <use xlink:href="#DejaVuSans-32" transform="translate(95.410156 0)"/>
       <use xlink:href="#DejaVuSans-35" transform="translate(159.033203 0)"/>
      </g>
     </g>
    </g>
    <g id="text_7">
     <!-- f(x) -->
     <g style="fill: #262626" transform="translate(15.558281 113.376016) rotate(-90) scale(0.11 -0.11)">
      <defs>
       <path id="DejaVuSans-66" d="M 2375 4863 
L 2375 4384 
L 1825 4384 
Q 1516 4384 1395 4259 
Q 1275 4134 1275 3809 
L 1275 3500 
L 2222 3500 
L 2222 3053 
L 1275 3053 
L 1275 0 
L 697 0 
L 697 3053 
L 147 3053 
L 147 3500 
L 697 3500 
L 697 3744 
Q 697 4328 969 4595 
Q 1241 4863 1831 4863 
L 2375 4863 
z
" transform="scale(0.015625)"/>
       <path id="DejaVuSans-28" d="M 1984 4856 
Q 1566 4138 1362 3434 
Q 1159 2731 1159 2009 
Q 1159 1288 1364 580 
Q 1569 -128 1984 -844 
L 1484 -844 
Q 1016 -109 783 600 
Q 550 1309 550 2009 
Q 550 2706 781 3412 
Q 1013 4119 1484 4856 
L 1984 4856 
z
" transform="scale(0.015625)"/>
       <path id="DejaVuSans-78" d="M 3513 3500 
L 2247 1797 
L 3578 0 
L 2900 0 
L 1881 1375 
L 863 0 
L 184 0 
L 1544 1831 
L 300 3500 
L 978 3500 
L 1906 2253 
L 2834 3500 
L 3513 3500 
z
" transform="scale(0.015625)"/>
       <path id="DejaVuSans-29" d="M 513 4856 
L 1013 4856 
Q 1481 4119 1714 3412 
Q 1947 2706 1947 2009 
Q 1947 1309 1714 600 
Q 1481 -109 1013 -844 
L 513 -844 
Q 928 -128 1133 580 
Q 1338 1288 1338 2009 
Q 1338 2731 1133 3434 
Q 928 4138 513 4856 
z
" transform="scale(0.015625)"/>
      </defs>
      <use xlink:href="#DejaVuSans-66"/>
      <use xlink:href="#DejaVuSans-28" transform="translate(35.205078 0)"/>
      <use xlink:href="#DejaVuSans-78" transform="translate(74.21875 0)"/>
      <use xlink:href="#DejaVuSans-29" transform="translate(133.398438 0)"/>
     </g>
    </g>
   </g>
   <g id="line2d_13">
    <path d="M 75.355852 178.606449 
L 123.660595 163.628493 
L 149.771267 155.291533 
L 171.965338 147.967692 
L 191.548342 141.268217 
L 209.825813 134.772727 
L 226.79775 128.498302 
L 242.464153 122.472633 
L 258.130556 116.198485 
L 272.491425 110.209006 
L 286.852295 103.973218 
L 299.907631 98.075482 
L 309.046366 93.809906 
L 309.046366 93.809906 
" clip-path="url(#p62d930e706)" style="fill: none; stroke: #4878d0; stroke-width: 2.5; stroke-linecap: round"/>
   </g>
   <g id="line2d_14">
    <path d="M 310.3519 93.190997 
L 311.657433 92.569728 
L 312.962967 91.946191 
L 314.2685 91.320482 
L 315.574034 90.692693 
L 316.879568 90.06292 
L 318.185101 89.431257 
L 319.490635 88.797798 
L 320.796168 88.162639 
L 322.101702 87.525872 
L 323.407236 86.887592 
L 324.712769 86.247895 
L 326.018303 85.606873 
L 327.323836 84.964623 
L 328.62937 84.321237 
L 329.934904 83.67681 
L 331.240437 83.031437 
L 332.545971 82.385212 
L 333.851504 81.738229 
L 335.157038 81.090584 
L 336.462572 80.442369 
L 337.768105 79.79368 
L 339.073639 79.14461 
L 340.379172 78.495255 
L 341.684706 77.845708 
L 342.99024 77.196065 
L 344.295773 76.546418 
L 345.601307 75.896863 
L 346.90684 75.247495 
L 348.212374 74.598406 
L 349.517908 73.949693 
L 350.823441 73.301448 
L 352.128975 72.653767 
L 353.434508 72.006744 
L 354.740042 71.360474 
L 356.045576 70.715049 
L 357.351109 70.070566 
L 358.656643 69.427118 
L 359.962176 68.7848 
L 361.26771 68.143706 
L 362.573244 67.50393 
L 363.878777 66.865567 
L 365.184311 66.228711 
L 366.489844 65.593457 
L 367.795378 64.959899 
L 369.100912 64.328131 
L 370.406445 63.698247 
L 371.711979 63.070343 
L 373.017512 62.444511 
L 374.323046 61.820848 
L 375.62858 61.199447 
L 376.934113 60.580402 
L 378.239647 59.963808 
L 379.54518 59.349759 
L 380.850714 58.738349 
L 382.156248 58.129674 
L 383.461781 57.523827 
L 384.767315 56.920902 
L 386.072848 56.320995 
L 387.378382 55.724199 
L 388.683916 55.130608 
L 389.989449 54.540318 
L 391.294983 53.953422 
L 392.600516 53.370015 
L 393.90605 52.790192 
L 395.211583 52.214046 
L 396.517117 51.641671 
L 397.822651 51.073163 
L 399.128184 50.508616 
L 400.433718 49.948124 
L 401.739251 49.391781 
L 403.044785 48.839682 
L 404.350319 48.291921 
L 405.655852 47.748593 
L 406.961386 47.209791 
L 408.266919 46.675611 
L 409.572453 46.146147 
L 410.877987 45.621492 
L 412.18352 45.101741 
L 413.489054 44.58699 
L 414.794587 44.077331 
L 416.100121 43.57286 
L 417.405655 43.073671 
L 418.711188 42.579857 
L 420.016722 42.091515 
L 421.322255 41.608737 
L 422.627789 41.131618 
L 423.933323 40.660253 
L 425.238856 40.194737 
L 426.54439 39.735162 
L 427.849923 39.281624 
L 429.155457 38.834217 
L 430.460991 38.393036 
L 431.766524 37.958175 
L 433.072058 37.529727 
L 434.377591 37.107789 
L 435.683125 36.692453 
L 436.988659 36.283814 
L 438.294192 35.881967 
L 439.599726 35.487006 
L 440.905259 35.099026 
L 442.210793 34.71812 
L 443.516327 34.344384 
L 444.82186 33.97791 
L 446.127394 33.618795 
L 447.432927 33.267132 
L 448.738461 32.923016 
L 450.043995 32.58654 
L 451.349528 32.2578 
L 452.655062 31.936889 
L 453.960595 31.623903 
L 455.266129 31.318935 
L 456.571663 31.022079 
L 457.877196 30.733431 
L 459.18273 30.453084 
L 460.488263 30.181133 
L 461.793797 29.917673 
L 463.099331 29.662797 
L 464.404864 29.4166 
L 465.710398 29.179176 
" clip-path="url(#p62d930e706)" style="fill: none; stroke: #ee854a; stroke-width: 2.5; stroke-linecap: round"/>
   </g>
   <g id="line2d_15">
    <path d="M 309.56858 186.077812 
L 309.56858 21.707812 
" clip-path="url(#p62d930e706)" style="fill: none; stroke-dasharray: 0.8,1.32; stroke-dashoffset: 0; stroke: #808080; stroke-opacity: 0.9; stroke-width: 0.8"/>
   </g>
   <g id="patch_3">
    <path d="M 55.838125 186.077812 
L 55.838125 21.707812 
" style="fill: none; stroke: #cccccc; stroke-width: 1.25; stroke-linejoin: miter; stroke-linecap: square"/>
   </g>
   <g id="patch_4">
    <path d="M 485.228125 186.077812 
L 485.228125 21.707812 
" style="fill: none; stroke: #cccccc; stroke-width: 1.25; stroke-linejoin: miter; stroke-linecap: square"/>
   </g>
   <g id="patch_5">
    <path d="M 55.838125 186.077812 
L 485.228125 186.077812 
" style="fill: none; stroke: #cccccc; stroke-width: 1.25; stroke-linejoin: miter; stroke-linecap: square"/>
   </g>
   <g id="patch_6">
    <path d="M 55.838125 21.707812 
L 485.228125 21.707812 
" style="fill: none; stroke: #cccccc; stroke-width: 1.25; stroke-linejoin: miter; stroke-linecap: square"/>
   </g>
   <g id="text_8">
    <!-- Cubic Spline: f(x) = β₀ + β₁x + β₂x² + β₃x³ + β₄(x−ξ)³₊ -->
    <g style="fill: #262626" transform="translate(106.064219 15.707812) scale(0.11 -0.11)">
     <defs>
      <path id="DejaVuSans-Bold-43" d="M 4288 256 
Q 3956 84 3597 -3 
Q 3238 -91 2847 -91 
Q 1681 -91 1000 561 
Q 319 1213 319 2328 
Q 319 3447 1000 4098 
Q 1681 4750 2847 4750 
Q 3238 4750 3597 4662 
Q 3956 4575 4288 4403 
L 4288 3438 
Q 3953 3666 3628 3772 
Q 3303 3878 2944 3878 
Q 2300 3878 1931 3465 
Q 1563 3053 1563 2328 
Q 1563 1606 1931 1193 
Q 2300 781 2944 781 
Q 3303 781 3628 887 
Q 3953 994 4288 1222 
L 4288 256 
z
" transform="scale(0.015625)"/>
      <path id="DejaVuSans-Bold-75" d="M 500 1363 
L 500 3500 
L 1625 3500 
L 1625 3150 
Q 1625 2866 1622 2436 
Q 1619 2006 1619 1863 
Q 1619 1441 1641 1255 
Q 1663 1069 1716 984 
Q 1784 875 1895 815 
Q 2006 756 2150 756 
Q 2500 756 2700 1025 
Q 2900 1294 2900 1772 
L 2900 3500 
L 4019 3500 
L 4019 0 
L 2900 0 
L 2900 506 
Q 2647 200 2364 54 
Q 2081 -91 1741 -91 
Q 1134 -91 817 281 
Q 500 653 500 1363 
z
" transform="scale(0.015625)"/>
      <path id="DejaVuSans-Bold-62" d="M 2400 722 
Q 2759 722 2948 984 
Q 3138 1247 3138 1747 
Q 3138 2247 2948 2509 
Q 2759 2772 2400 2772 
Q 2041 2772 1848 2508 
Q 1656 2244 1656 1747 
Q 1656 1250 1848 986 
Q 2041 722 2400 722 
z
M 1656 2988 
Q 1888 3294 2169 3439 
Q 2450 3584 2816 3584 
Q 3463 3584 3878 3070 
Q 4294 2556 4294 1747 
Q 4294 938 3878 423 
Q 3463 -91 2816 -91 
Q 2450 -91 2169 54 
Q 1888 200 1656 506 
L 1656 0 
L 538 0 
L 538 4863 
L 1656 4863 
L 1656 2988 
z
" transform="scale(0.015625)"/>
      <path id="DejaVuSans-Bold-69" d="M 538 3500 
L 1656 3500 
L 1656 0 
L 538 0 
L 538 3500 
z
M 538 4863 
L 1656 4863 
L 1656 3950 
L 538 3950 
L 538 4863 
z
" transform="scale(0.015625)"/>
      <path id="DejaVuSans-Bold-63" d="M 3366 3391 
L 3366 2478 
Q 3138 2634 2908 2709 
Q 2678 2784 2431 2784 
Q 1963 2784 1702 2511 
Q 1441 2238 1441 1747 
Q 1441 1256 1702 982 
Q 1963 709 2431 709 
Q 2694 709 2930 787 
Q 3166 866 3366 1019 
L 3366 103 
Q 3103 6 2833 -42 
Q 2563 -91 2291 -91 
Q 1344 -91 809 395 
Q 275 881 275 1747 
Q 275 2613 809 3098 
Q 1344 3584 2291 3584 
Q 2566 3584 2833 3536 
Q 3100 3488 3366 3391 
z
" transform="scale(0.015625)"/>
      <path id="DejaVuSans-Bold-20" transform="scale(0.015625)"/>
      <path id="DejaVuSans-Bold-53" d="M 3834 4519 
L 3834 3531 
Q 3450 3703 3084 3790 
Q 2719 3878 2394 3878 
Q 1963 3878 1756 3759 
Q 1550 3641 1550 3391 
Q 1550 3203 1689 3098 
Q 1828 2994 2194 2919 
L 2706 2816 
Q 3484 2659 3812 2340 
Q 4141 2022 4141 1434 
Q 4141 663 3683 286 
Q 3225 -91 2284 -91 
Q 1841 -91 1394 -6 
Q 947 78 500 244 
L 500 1259 
Q 947 1022 1364 901 
Q 1781 781 2169 781 
Q 2563 781 2772 912 
Q 2981 1044 2981 1288 
Q 2981 1506 2839 1625 
Q 2697 1744 2272 1838 
L 1806 1941 
Q 1106 2091 782 2419 
Q 459 2747 459 3303 
Q 459 4000 909 4375 
Q 1359 4750 2203 4750 
Q 2588 4750 2994 4692 
Q 3400 4634 3834 4519 
z
" transform="scale(0.015625)"/>
      <path id="DejaVuSans-Bold-70" d="M 1656 506 
L 1656 -1331 
L 538 -1331 
L 538 3500 
L 1656 3500 
L 1656 2988 
Q 1888 3294 2169 3439 
Q 2450 3584 2816 3584 
Q 3463 3584 3878 3070 
Q 4294 2556 4294 1747 
Q 4294 938 3878 423 
Q 3463 -91 2816 -91 
Q 2450 -91 2169 54 
Q 1888 200 1656 506 
z
M 2400 2772 
Q 2041 2772 1848 2508 
Q 1656 2244 1656 1747 
Q 1656 1250 1848 986 
Q 2041 722 2400 722 
Q 2759 722 2948 984 
Q 3138 1247 3138 1747 
Q 3138 2247 2948 2509 
Q 2759 2772 2400 2772 
z
" transform="scale(0.015625)"/>
      <path id="DejaVuSans-Bold-6c" d="M 538 4863 
L 1656 4863 
L 1656 0 
L 538 0 
L 538 4863 
z
" transform="scale(0.015625)"/>
      <path id="DejaVuSans-Bold-6e" d="M 4056 2131 
L 4056 0 
L 2931 0 
L 2931 347 
L 2931 1631 
Q 2931 2084 2911 2256 
Q 2891 2428 2841 2509 
Q 2775 2619 2662 2680 
Q 2550 2741 2406 2741 
Q 2056 2741 1856 2470 
Q 1656 2200 1656 1722 
L 1656 0 
L 538 0 
L 538 3500 
L 1656 3500 
L 1656 2988 
Q 1909 3294 2193 3439 
Q 2478 3584 2822 3584 
Q 3428 3584 3742 3212 
Q 4056 2841 4056 2131 
z
" transform="scale(0.015625)"/>
      <path id="DejaVuSans-Bold-65" d="M 4031 1759 
L 4031 1441 
L 1416 1441 
Q 1456 1047 1700 850 
Q 1944 653 2381 653 
Q 2734 653 3104 758 
Q 3475 863 3866 1075 
L 3866 213 
Q 3469 63 3072 -14 
Q 2675 -91 2278 -91 
Q 1328 -91 801 392 
Q 275 875 275 1747 
Q 275 2603 792 3093 
Q 1309 3584 2216 3584 
Q 3041 3584 3536 3087 
Q 4031 2591 4031 1759 
z
M 2881 2131 
Q 2881 2450 2695 2645 
Q 2509 2841 2209 2841 
Q 1884 2841 1681 2658 
Q 1478 2475 1428 2131 
L 2881 2131 
z
" transform="scale(0.015625)"/>
      <path id="DejaVuSans-Bold-3a" d="M 716 3500 
L 1844 3500 
L 1844 2291 
L 716 2291 
L 716 3500 
z
M 716 1209 
L 1844 1209 
L 1844 0 
L 716 0 
L 716 1209 
z
" transform="scale(0.015625)"/>
      <path id="DejaVuSans-Bold-66" d="M 2841 4863 
L 2841 4128 
L 2222 4128 
Q 1984 4128 1890 4042 
Q 1797 3956 1797 3744 
L 1797 3500 
L 2753 3500 
L 2753 2700 
L 1797 2700 
L 1797 0 
L 678 0 
L 678 2700 
L 122 2700 
L 122 3500 
L 678 3500 
L 678 3744 
Q 678 4316 997 4589 
Q 1316 4863 1984 4863 
L 2841 4863 
z
" transform="scale(0.015625)"/>
      <path id="DejaVuSans-Bold-28" d="M 2413 -844 
L 1484 -844 
Q 1006 -72 778 623 
Q 550 1319 550 2003 
Q 550 2688 779 3389 
Q 1009 4091 1484 4856 
L 2413 4856 
Q 2013 4116 1813 3408 
Q 1613 2700 1613 2009 
Q 1613 1319 1811 609 
Q 2009 -100 2413 -844 
z
" transform="scale(0.015625)"/>
      <path id="DejaVuSans-Bold-78" d="M 1422 1791 
L 159 3500 
L 1344 3500 
L 2059 2463 
L 2784 3500 
L 3969 3500 
L 2706 1797 
L 4031 0 
L 2847 0 
L 2059 1106 
L 1281 0 
L 97 0 
L 1422 1791 
z
" transform="scale(0.015625)"/>
      <path id="DejaVuSans-Bold-29" d="M 513 -844 
Q 913 -100 1113 609 
Q 1313 1319 1313 2009 
Q 1313 2700 1113 3408 
Q 913 4116 513 4856 
L 1441 4856 
Q 1916 4091 2145 3389 
Q 2375 2688 2375 2003 
Q 2375 1319 2147 623 
Q 1919 -72 1441 -844 
L 513 -844 
z
" transform="scale(0.015625)"/>
      <path id="DejaVuSans-Bold-3d" d="M 678 3084 
L 4684 3084 
L 4684 2350 
L 678 2350 
L 678 3084 
z
M 678 1663 
L 4684 1663 
L 4684 922 
L 678 922 
L 678 1663 
z
" transform="scale(0.015625)"/>
      <path id="DejaVuSans-Bold-3b2" d="M 2575 3038 
Q 2772 3309 2772 3503 
Q 2772 3769 2648 3948 
Q 2525 4128 2241 4128 
Q 1900 4128 1778 3864 
Q 1656 3600 1656 3103 
L 1656 1747 
Q 1656 1250 1848 986 
Q 2041 722 2400 722 
Q 2800 722 2953 934 
Q 3106 1147 3106 1275 
Q 3106 1722 2738 1988 
Q 2538 2122 1988 2134 
L 1988 2847 
Q 2497 2925 2575 3038 
z
M 538 -1331 
L 538 3044 
Q 538 3922 969 4369 
Q 1325 4741 1672 4845 
Q 2019 4950 2259 4950 
Q 2500 4947 2538 4941 
Q 3178 4841 3538 4438 
Q 3788 4163 3788 3600 
Q 3788 3313 3616 3053 
Q 3406 2734 3094 2709 
Q 3556 2584 3844 2322 
Q 4294 1919 4294 1288 
Q 4294 731 3903 320 
Q 3513 -91 2809 -91 
Q 2106 -91 1656 506 
L 1656 -1331 
L 538 -1331 
z
" transform="scale(0.015625)"/>
      <path id="DejaVuSans-Bold-2080" d="M 1806 1288 
Q 1806 1779 1706 1979 
Q 1606 2179 1368 2179 
Q 1131 2179 1028 1979 
Q 928 1779 928 1288 
Q 928 791 1028 588 
Q 1131 385 1369 385 
Q 1603 385 1706 588 
Q 1806 791 1806 1288 
z
M 2547 1285 
Q 2547 626 2241 279 
Q 1931 -71 1369 -71 
Q 797 -71 494 279 
Q 188 632 188 1285 
Q 188 1935 494 2285 
Q 803 2638 1369 2638 
Q 1931 2638 2241 2285 
Q 2547 1935 2547 1285 
z
" transform="scale(0.015625)"/>
      <path id="DejaVuSans-Bold-2b" d="M 3053 4013 
L 3053 2375 
L 4684 2375 
L 4684 1638 
L 3053 1638 
L 3053 0 
L 2309 0 
L 2309 1638 
L 678 1638 
L 678 2375 
L 2309 2375 
L 2309 4013 
L 3053 4013 
z
" transform="scale(0.015625)"/>
      <path id="DejaVuSans-Bold-2081" d="M 441 466 
L 1088 466 
L 1088 2094 
L 384 1932 
L 384 2432 
L 1100 2585 
L 1806 2585 
L 1806 466 
L 2444 466 
L 2444 -24 
L 441 -24 
L 441 466 
z
" transform="scale(0.015625)"/>
      <path id="DejaVuSans-Bold-2082" d="M 1288 501 
L 2444 501 
L 2444 -24 
L 341 -24 
L 341 454 
L 1319 1285 
Q 1509 1451 1590 1576 
Q 1672 1701 1672 1826 
Q 1672 1982 1558 2079 
Q 1444 2176 1259 2176 
Q 1066 2176 844 2105 
Q 622 2035 359 1888 
L 359 2469 
Q 631 2554 886 2596 
Q 1141 2638 1375 2638 
Q 1869 2638 2150 2436 
Q 2431 2235 2431 1888 
Q 2431 1663 2320 1474 
Q 2209 1285 1894 1016 
L 1288 501 
z
" transform="scale(0.015625)"/>
      <path id="DejaVuSans-Bold-b2" d="M 1288 2613 
L 2444 2613 
L 2444 2088 
L 341 2088 
L 341 2566 
L 1319 3397 
Q 1509 3563 1590 3688 
Q 1672 3813 1672 3938 
Q 1672 4094 1558 4191 
Q 1444 4288 1259 4288 
Q 1066 4288 844 4217 
Q 622 4147 359 4000 
L 359 4581 
Q 631 4666 886 4708 
Q 1141 4750 1375 4750 
Q 1869 4750 2150 4548 
Q 2431 4347 2431 4000 
Q 2431 3775 2320 3586 
Q 2209 3397 1894 3128 
L 1288 2613 
z
" transform="scale(0.015625)"/>
      <path id="DejaVuSans-Bold-2083" d="M 1850 1388 
Q 2138 1332 2297 1160 
Q 2456 988 2456 735 
Q 2456 332 2147 130 
Q 1838 -71 1209 -71 
Q 956 -71 725 -35 
Q 494 1 281 69 
L 281 613 
Q 488 501 688 443 
Q 888 385 1075 385 
Q 1372 385 1534 485 
Q 1697 585 1697 769 
Q 1697 969 1530 1064 
Q 1363 1160 1006 1160 
L 775 1160 
L 775 1588 
L 1038 1588 
Q 1344 1588 1484 1661 
Q 1625 1735 1625 1894 
Q 1625 2035 1503 2105 
Q 1381 2176 1131 2176 
Q 969 2176 776 2135 
Q 584 2094 366 2010 
L 366 2529 
Q 569 2582 805 2610 
Q 1041 2638 1313 2638 
Q 1834 2638 2111 2463 
Q 2388 2288 2388 1960 
Q 2388 1744 2247 1594 
Q 2106 1444 1850 1388 
z
" transform="scale(0.015625)"/>
      <path id="DejaVuSans-Bold-b3" d="M 1850 3500 
Q 2138 3444 2297 3272 
Q 2456 3100 2456 2847 
Q 2456 2444 2147 2242 
Q 1838 2041 1209 2041 
Q 956 2041 725 2077 
Q 494 2113 281 2181 
L 281 2725 
Q 488 2613 688 2555 
Q 888 2497 1075 2497 
Q 1372 2497 1534 2597 
Q 1697 2697 1697 2881 
Q 1697 3081 1530 3176 
Q 1363 3272 1006 3272 
L 775 3272 
L 775 3700 
L 1038 3700 
Q 1344 3700 1484 3773 
Q 1625 3847 1625 4006 
Q 1625 4147 1503 4217 
Q 1381 4288 1131 4288 
Q 969 4288 776 4247 
Q 584 4206 366 4122 
L 366 4641 
Q 569 4694 805 4722 
Q 1041 4750 1313 4750 
Q 1834 4750 2111 4575 
Q 2388 4400 2388 4072 
Q 2388 3856 2247 3706 
Q 2106 3556 1850 3500 
z
" transform="scale(0.015625)"/>
      <path id="DejaVuSans-Bold-2084" d="M 1397 1976 
L 650 966 
L 1397 966 
L 1397 1976 
z
M 1341 2585 
L 2116 2585 
L 2116 966 
L 2544 966 
L 2544 482 
L 2116 482 
L 2116 -24 
L 1397 -24 
L 1397 482 
L 175 482 
L 175 1007 
L 1341 2585 
z
" transform="scale(0.015625)"/>
      <path id="DejaVuSans-Bold-2212" d="M 678 2375 
L 4684 2375 
L 4684 1638 
L 678 1638 
L 678 2375 
z
" transform="scale(0.015625)"/>
      <path id="DejaVuSans-Bold-3be" d="M 2519 800 
Q 2897 803 3191 491 
Q 3466 200 3466 -294 
Q 3466 -784 3192 -1057 
Q 2919 -1331 2397 -1331 
L 2397 -628 
Q 2616 -628 2691 -536 
Q 2766 -444 2766 -325 
Q 2766 -206 2673 -103 
Q 2581 0 2397 0 
Q 278 3 278 1344 
Q 278 2459 1525 2709 
Q 669 2725 672 3438 
Q 678 3928 1422 4063 
L 341 4063 
L 341 4863 
L 3413 4863 
L 3413 4063 
Q 1706 4063 1706 3438 
Q 1703 2841 2950 2847 
L 2950 2134 
Q 1400 2138 1397 1344 
Q 1400 797 2519 800 
z
" transform="scale(0.015625)"/>
      <path id="DejaVuSans-Bold-208a" d="M 1925 2222 
L 1925 1307 
L 2950 1307 
L 2950 891 
L 1925 891 
L 1925 -24 
L 1456 -24 
L 1456 891 
L 428 891 
L 428 1307 
L 1456 1307 
L 1456 2222 
L 1925 2222 
z
" transform="scale(0.015625)"/>
     </defs>
     <use xlink:href="#DejaVuSans-Bold-43"/>
     <use xlink:href="#DejaVuSans-Bold-75" transform="translate(73.388672 0)"/>
     <use xlink:href="#DejaVuSans-Bold-62" transform="translate(144.580078 0)"/>
     <use xlink:href="#DejaVuSans-Bold-69" transform="translate(216.162109 0)"/>
     <use xlink:href="#DejaVuSans-Bold-63" transform="translate(250.439453 0)"/>
     <use xlink:href="#DejaVuSans-Bold-20" transform="translate(309.716797 0)"/>
     <use xlink:href="#DejaVuSans-Bold-53" transform="translate(344.53125 0)"/>
     <use xlink:href="#DejaVuSans-Bold-70" transform="translate(416.552734 0)"/>
     <use xlink:href="#DejaVuSans-Bold-6c" transform="translate(488.134766 0)"/>
     <use xlink:href="#DejaVuSans-Bold-69" transform="translate(522.412109 0)"/>
     <use xlink:href="#DejaVuSans-Bold-6e" transform="translate(556.689453 0)"/>
     <use xlink:href="#DejaVuSans-Bold-65" transform="translate(627.880859 0)"/>
     <use xlink:href="#DejaVuSans-Bold-3a" transform="translate(695.703125 0)"/>
     <use xlink:href="#DejaVuSans-Bold-20" transform="translate(735.693359 0)"/>
     <use xlink:href="#DejaVuSans-Bold-66" transform="translate(770.507812 0)"/>
     <use xlink:href="#DejaVuSans-Bold-28" transform="translate(814.013672 0)"/>
     <use xlink:href="#DejaVuSans-Bold-78" transform="translate(859.716797 0)"/>
     <use xlink:href="#DejaVuSans-Bold-29" transform="translate(924.21875 0)"/>
     <use xlink:href="#DejaVuSans-Bold-20" transform="translate(969.921875 0)"/>
     <use xlink:href="#DejaVuSans-Bold-3d" transform="translate(1004.736328 0)"/>
     <use xlink:href="#DejaVuSans-Bold-20" transform="translate(1088.525391 0)"/>
     <use xlink:href="#DejaVuSans-Bold-3b2" transform="translate(1123.339844 0)"/>
     <use xlink:href="#DejaVuSans-Bold-2080" transform="translate(1194.921875 0)"/>
     <use xlink:href="#DejaVuSans-Bold-20" transform="translate(1238.720703 0)"/>
     <use xlink:href="#DejaVuSans-Bold-2b" transform="translate(1273.535156 0)"/>
     <use xlink:href="#DejaVuSans-Bold-20" transform="translate(1357.324219 0)"/>
     <use xlink:href="#DejaVuSans-Bold-3b2" transform="translate(1392.138672 0)"/>
     <use xlink:href="#DejaVuSans-Bold-2081" transform="translate(1463.720703 0)"/>
     <use xlink:href="#DejaVuSans-Bold-78" transform="translate(1507.519531 0)"/>
     <use xlink:href="#DejaVuSans-Bold-20" transform="translate(1572.021484 0)"/>
     <use xlink:href="#DejaVuSans-Bold-2b" transform="translate(1606.835938 0)"/>
     <use xlink:href="#DejaVuSans-Bold-20" transform="translate(1690.625 0)"/>
     <use xlink:href="#DejaVuSans-Bold-3b2" transform="translate(1725.439453 0)"/>
     <use xlink:href="#DejaVuSans-Bold-2082" transform="translate(1797.021484 0)"/>
     <use xlink:href="#DejaVuSans-Bold-78" transform="translate(1840.820312 0)"/>
     <use xlink:href="#DejaVuSans-Bold-b2" transform="translate(1905.322266 0)"/>
     <use xlink:href="#DejaVuSans-Bold-20" transform="translate(1949.121094 0)"/>
     <use xlink:href="#DejaVuSans-Bold-2b" transform="translate(1983.935547 0)"/>
     <use xlink:href="#DejaVuSans-Bold-20" transform="translate(2067.724609 0)"/>
     <use xlink:href="#DejaVuSans-Bold-3b2" transform="translate(2102.539062 0)"/>
     <use xlink:href="#DejaVuSans-Bold-2083" transform="translate(2174.121094 0)"/>
     <use xlink:href="#DejaVuSans-Bold-78" transform="translate(2217.919922 0)"/>
     <use xlink:href="#DejaVuSans-Bold-b3" transform="translate(2282.421875 0)"/>
     <use xlink:href="#DejaVuSans-Bold-20" transform="translate(2326.220703 0)"/>
     <use xlink:href="#DejaVuSans-Bold-2b" transform="translate(2361.035156 0)"/>
     <use xlink:href="#DejaVuSans-Bold-20" transform="translate(2444.824219 0)"/>
     <use xlink:href="#DejaVuSans-Bold-3b2" transform="translate(2479.638672 0)"/>
     <use xlink:href="#DejaVuSans-Bold-2084" transform="translate(2551.220703 0)"/>
     <use xlink:href="#DejaVuSans-Bold-28" transform="translate(2595.019531 0)"/>
     <use xlink:href="#DejaVuSans-Bold-78" transform="translate(2640.722656 0)"/>
     <use xlink:href="#DejaVuSans-Bold-2212" transform="translate(2705.224609 0)"/>
     <use xlink:href="#DejaVuSans-Bold-3be" transform="translate(2789.013672 0)"/>
     <use xlink:href="#DejaVuSans-Bold-29" transform="translate(2848.095703 0)"/>
     <use xlink:href="#DejaVuSans-Bold-b3" transform="translate(2893.798828 0)"/>
     <use xlink:href="#DejaVuSans-Bold-208a" transform="translate(2937.597656 0)"/>
    </g>
   </g>
  </g>
  <g id="axes_2">
   <g id="patch_7">
    <path d="M 55.838125 378.047812 
L 485.228125 378.047812 
L 485.228125 213.677812 
L 55.838125 213.677812 
z
" style="fill: #ffffff"/>
   </g>
   <g id="matplotlib.axis_3">
    <g id="xtick_7">
     <g id="line2d_16">
      <path d="M 75.355852 378.047812 
L 75.355852 213.677812 
" clip-path="url(#pac3999e089)" style="fill: none; stroke: #cccccc; stroke-linecap: round"/>
     </g>
     <g id="text_9">
      <!-- 0.0 -->
      <g style="fill: #262626" transform="translate(66.609134 395.906094) scale(0.11 -0.11)">
       <use xlink:href="#DejaVuSans-30"/>
       <use xlink:href="#DejaVuSans-2e" transform="translate(63.623047 0)"/>
       <use xlink:href="#DejaVuSans-30" transform="translate(95.410156 0)"/>
      </g>
     </g>
    </g>
    <g id="xtick_8">
     <g id="line2d_17">
      <path d="M 153.426761 378.047812 
L 153.426761 213.677812 
" clip-path="url(#pac3999e089)" style="fill: none; stroke: #cccccc; stroke-linecap: round"/>
     </g>
     <g id="text_10">
      <!-- 0.2 -->
      <g style="fill: #262626" transform="translate(144.680043 395.906094) scale(0.11 -0.11)">
       <use xlink:href="#DejaVuSans-30"/>
       <use xlink:href="#DejaVuSans-2e" transform="translate(63.623047 0)"/>
       <use xlink:href="#DejaVuSans-32" transform="translate(95.410156 0)"/>
      </g>
     </g>
    </g>
    <g id="xtick_9">
     <g id="line2d_18">
      <path d="M 231.49767 378.047812 
L 231.49767 213.677812 
" clip-path="url(#pac3999e089)" style="fill: none; stroke: #cccccc; stroke-linecap: round"/>
     </g>
     <g id="text_11">
      <!-- 0.4 -->
      <g style="fill: #262626" transform="translate(222.750952 395.906094) scale(0.11 -0.11)">
       <defs>
        <path id="DejaVuSans-34" d="M 2419 4116 
L 825 1625 
L 2419 1625 
L 2419 4116 
z
M 2253 4666 
L 3047 4666 
L 3047 1625 
L 3713 1625 
L 3713 1100 
L 3047 1100 
L 3047 0 
L 2419 0 
L 2419 1100 
L 313 1100 
L 313 1709 
L 2253 4666 
z
" transform="scale(0.015625)"/>
       </defs>
       <use xlink:href="#DejaVuSans-30"/>
       <use xlink:href="#DejaVuSans-2e" transform="translate(63.623047 0)"/>
       <use xlink:href="#DejaVuSans-34" transform="translate(95.410156 0)"/>
      </g>
     </g>
    </g>
    <g id="xtick_10">
     <g id="line2d_19">
      <path d="M 309.56858 378.047812 
L 309.56858 213.677812 
" clip-path="url(#pac3999e089)" style="fill: none; stroke: #cccccc; stroke-linecap: round"/>
     </g>
     <g id="text_12">
      <!-- 0.6 -->
      <g style="fill: #262626" transform="translate(300.821861 395.906094) scale(0.11 -0.11)">
       <defs>
        <path id="DejaVuSans-36" d="M 2113 2584 
Q 1688 2584 1439 2293 
Q 1191 2003 1191 1497 
Q 1191 994 1439 701 
Q 1688 409 2113 409 
Q 2538 409 2786 701 
Q 3034 994 3034 1497 
Q 3034 2003 2786 2293 
Q 2538 2584 2113 2584 
z
M 3366 4563 
L 3366 3988 
Q 3128 4100 2886 4159 
Q 2644 4219 2406 4219 
Q 1781 4219 1451 3797 
Q 1122 3375 1075 2522 
Q 1259 2794 1537 2939 
Q 1816 3084 2150 3084 
Q 2853 3084 3261 2657 
Q 3669 2231 3669 1497 
Q 3669 778 3244 343 
Q 2819 -91 2113 -91 
Q 1303 -91 875 529 
Q 447 1150 447 2328 
Q 447 3434 972 4092 
Q 1497 4750 2381 4750 
Q 2619 4750 2861 4703 
Q 3103 4656 3366 4563 
z
" transform="scale(0.015625)"/>
       </defs>
       <use xlink:href="#DejaVuSans-30"/>
       <use xlink:href="#DejaVuSans-2e" transform="translate(63.623047 0)"/>
       <use xlink:href="#DejaVuSans-36" transform="translate(95.410156 0)"/>
      </g>
     </g>
    </g>
    <g id="xtick_11">
     <g id="line2d_20">
      <path d="M 387.639489 378.047812 
L 387.639489 213.677812 
" clip-path="url(#pac3999e089)" style="fill: none; stroke: #cccccc; stroke-linecap: round"/>
     </g>
     <g id="text_13">
      <!-- 0.8 -->
      <g style="fill: #262626" transform="translate(378.89277 395.906094) scale(0.11 -0.11)">
       <defs>
        <path id="DejaVuSans-38" d="M 2034 2216 
Q 1584 2216 1326 1975 
Q 1069 1734 1069 1313 
Q 1069 891 1326 650 
Q 1584 409 2034 409 
Q 2484 409 2743 651 
Q 3003 894 3003 1313 
Q 3003 1734 2745 1975 
Q 2488 2216 2034 2216 
z
M 1403 2484 
Q 997 2584 770 2862 
Q 544 3141 544 3541 
Q 544 4100 942 4425 
Q 1341 4750 2034 4750 
Q 2731 4750 3128 4425 
Q 3525 4100 3525 3541 
Q 3525 3141 3298 2862 
Q 3072 2584 2669 2484 
Q 3125 2378 3379 2068 
Q 3634 1759 3634 1313 
Q 3634 634 3220 271 
Q 2806 -91 2034 -91 
Q 1263 -91 848 271 
Q 434 634 434 1313 
Q 434 1759 690 2068 
Q 947 2378 1403 2484 
z
M 1172 3481 
Q 1172 3119 1398 2916 
Q 1625 2713 2034 2713 
Q 2441 2713 2670 2916 
Q 2900 3119 2900 3481 
Q 2900 3844 2670 4047 
Q 2441 4250 2034 4250 
Q 1625 4250 1398 4047 
Q 1172 3844 1172 3481 
z
" transform="scale(0.015625)"/>
       </defs>
       <use xlink:href="#DejaVuSans-30"/>
       <use xlink:href="#DejaVuSans-2e" transform="translate(63.623047 0)"/>
       <use xlink:href="#DejaVuSans-38" transform="translate(95.410156 0)"/>
      </g>
     </g>
    </g>
    <g id="xtick_12">
     <g id="line2d_21">
      <path d="M 465.710398 378.047812 
L 465.710398 213.677812 
" clip-path="url(#pac3999e089)" style="fill: none; stroke: #cccccc; stroke-linecap: round"/>
     </g>
     <g id="text_14">
      <!-- 1.0 -->
      <g style="fill: #262626" transform="translate(456.963679 395.906094) scale(0.11 -0.11)">
       <use xlink:href="#DejaVuSans-31"/>
       <use xlink:href="#DejaVuSans-2e" transform="translate(63.623047 0)"/>
       <use xlink:href="#DejaVuSans-30" transform="translate(95.410156 0)"/>
      </g>
     </g>
    </g>
    <g id="text_15">
     <!-- x -->
     <g style="fill: #262626" transform="translate(267.277813 410.552031) scale(0.11 -0.11)">
      <use xlink:href="#DejaVuSans-78"/>
     </g>
    </g>
   </g>
   <g id="matplotlib.axis_4">
    <g id="ytick_7">
     <g id="line2d_22">
      <path d="M 55.838125 370.576449 
L 485.228125 370.576449 
" clip-path="url(#pac3999e089)" style="fill: none; stroke: #cccccc; stroke-linecap: round"/>
     </g>
     <g id="text_16">
      <!-- 0.00 -->
      <g style="fill: #262626" transform="translate(21.845938 374.755589) scale(0.11 -0.11)">
       <use xlink:href="#DejaVuSans-30"/>
       <use xlink:href="#DejaVuSans-2e" transform="translate(63.623047 0)"/>
       <use xlink:href="#DejaVuSans-30" transform="translate(95.410156 0)"/>
       <use xlink:href="#DejaVuSans-30" transform="translate(159.033203 0)"/>
      </g>
     </g>
    </g>
    <g id="ytick_8">
     <g id="line2d_23">
      <path d="M 55.838125 323.880426 
L 485.228125 323.880426 
" clip-path="url(#pac3999e089)" style="fill: none; stroke: #cccccc; stroke-linecap: round"/>
     </g>
     <g id="text_17">
      <!-- 0.02 -->
      <g style="fill: #262626" transform="translate(21.845938 328.059567) scale(0.11 -0.11)">
       <use xlink:href="#DejaVuSans-30"/>
       <use xlink:href="#DejaVuSans-2e" transform="translate(63.623047 0)"/>
       <use xlink:href="#DejaVuSans-30" transform="translate(95.410156 0)"/>
       <use xlink:href="#DejaVuSans-32" transform="translate(159.033203 0)"/>
      </g>
     </g>
    </g>
    <g id="ytick_9">
     <g id="line2d_24">
      <path d="M 55.838125 277.184403 
L 485.228125 277.184403 
" clip-path="url(#pac3999e089)" style="fill: none; stroke: #cccccc; stroke-linecap: round"/>
     </g>
     <g id="text_18">
      <!-- 0.04 -->
      <g style="fill: #262626" transform="translate(21.845938 281.363544) scale(0.11 -0.11)">
       <use xlink:href="#DejaVuSans-30"/>
       <use xlink:href="#DejaVuSans-2e" transform="translate(63.623047 0)"/>
       <use xlink:href="#DejaVuSans-30" transform="translate(95.410156 0)"/>
       <use xlink:href="#DejaVuSans-34" transform="translate(159.033203 0)"/>
      </g>
     </g>
    </g>
    <g id="ytick_10">
     <g id="line2d_25">
      <path d="M 55.838125 230.488381 
L 485.228125 230.488381 
" clip-path="url(#pac3999e089)" style="fill: none; stroke: #cccccc; stroke-linecap: round"/>
     </g>
     <g id="text_19">
      <!-- 0.06 -->
      <g style="fill: #262626" transform="translate(21.845938 234.667521) scale(0.11 -0.11)">
       <use xlink:href="#DejaVuSans-30"/>
       <use xlink:href="#DejaVuSans-2e" transform="translate(63.623047 0)"/>
       <use xlink:href="#DejaVuSans-30" transform="translate(95.410156 0)"/>
       <use xlink:href="#DejaVuSans-36" transform="translate(159.033203 0)"/>
      </g>
     </g>
    </g>
    <g id="text_20">
     <!-- b(x) -->
     <g style="fill: #262626" transform="translate(15.558281 306.901484) rotate(-90) scale(0.11 -0.11)">
      <defs>
       <path id="DejaVuSans-62" d="M 3116 1747 
Q 3116 2381 2855 2742 
Q 2594 3103 2138 3103 
Q 1681 3103 1420 2742 
Q 1159 2381 1159 1747 
Q 1159 1113 1420 752 
Q 1681 391 2138 391 
Q 2594 391 2855 752 
Q 3116 1113 3116 1747 
z
M 1159 2969 
Q 1341 3281 1617 3432 
Q 1894 3584 2278 3584 
Q 2916 3584 3314 3078 
Q 3713 2572 3713 1747 
Q 3713 922 3314 415 
Q 2916 -91 2278 -91 
Q 1894 -91 1617 61 
Q 1341 213 1159 525 
L 1159 0 
L 581 0 
L 581 4863 
L 1159 4863 
L 1159 2969 
z
" transform="scale(0.015625)"/>
      </defs>
      <use xlink:href="#DejaVuSans-62"/>
      <use xlink:href="#DejaVuSans-28" transform="translate(63.476562 0)"/>
      <use xlink:href="#DejaVuSans-78" transform="translate(102.490234 0)"/>
      <use xlink:href="#DejaVuSans-29" transform="translate(161.669922 0)"/>
     </g>
    </g>
   </g>
   <g id="line2d_26">
    <path d="M 75.355852 370.576449 
L 309.046366 370.576449 
L 309.046366 370.576449 
" clip-path="url(#pac3999e089)" style="fill: none; stroke: #ee854a; stroke-width: 2.5; stroke-linecap: round"/>
   </g>
   <g id="line2d_27">
    <path d="M 310.3519 370.57643 
L 311.657433 370.576091 
L 312.962967 370.574914 
L 314.2685 370.572374 
L 315.574034 370.567947 
L 316.879568 370.56111 
L 318.185101 370.551338 
L 319.490635 370.538107 
L 320.796168 370.520893 
L 322.101702 370.499172 
L 323.407236 370.47242 
L 324.712769 370.440113 
L 326.018303 370.401727 
L 327.323836 370.356737 
L 328.62937 370.30462 
L 329.934904 370.244852 
L 331.240437 370.176909 
L 332.545971 370.100265 
L 333.851504 370.014399 
L 335.157038 369.918784 
L 336.462572 369.812898 
L 337.768105 369.696216 
L 339.073639 369.568214 
L 340.379172 369.428368 
L 341.684706 369.276155 
L 342.99024 369.111049 
L 344.295773 368.932527 
L 345.601307 368.740065 
L 346.90684 368.533138 
L 348.212374 368.311223 
L 349.517908 368.073796 
L 350.823441 367.820332 
L 352.128975 367.550308 
L 353.434508 367.263199 
L 354.740042 366.958482 
L 356.045576 366.635631 
L 357.351109 366.294124 
L 358.656643 365.933436 
L 359.962176 365.553043 
L 361.26771 365.152421 
L 362.573244 364.731046 
L 363.878777 364.288394 
L 365.184311 363.823941 
L 366.489844 363.337162 
L 367.795378 362.827534 
L 369.100912 362.294532 
L 370.406445 361.737633 
L 371.711979 361.156313 
L 373.017512 360.550046 
L 374.323046 359.91831 
L 375.62858 359.260581 
L 376.934113 358.576333 
L 378.239647 357.865044 
L 379.54518 357.126188 
L 380.850714 356.359243 
L 382.156248 355.563683 
L 383.461781 354.738985 
L 384.767315 353.884625 
L 386.072848 353.000079 
L 387.378382 352.084822 
L 388.683916 351.138331 
L 389.989449 350.160082 
L 391.294983 349.149549 
L 392.600516 348.106211 
L 393.90605 347.029541 
L 395.211583 345.919017 
L 396.517117 344.774113 
L 397.822651 343.594307 
L 399.128184 342.379074 
L 400.433718 341.12789 
L 401.739251 339.84023 
L 403.044785 338.515572 
L 404.350319 337.15339 
L 405.655852 335.753161 
L 406.961386 334.31436 
L 408.266919 332.836464 
L 409.572453 331.318949 
L 410.877987 329.76129 
L 412.18352 328.162963 
L 413.489054 326.523444 
L 414.794587 324.84221 
L 416.100121 323.118736 
L 417.405655 321.352497 
L 418.711188 319.542971 
L 420.016722 317.689633 
L 421.322255 315.791959 
L 422.627789 313.849424 
L 423.933323 311.861505 
L 425.238856 309.827678 
L 426.54439 307.747418 
L 427.849923 305.620202 
L 429.155457 303.445505 
L 430.460991 301.222804 
L 431.766524 298.951574 
L 433.072058 296.631291 
L 434.377591 294.261431 
L 435.683125 291.841471 
L 436.988659 289.370885 
L 438.294192 286.849151 
L 439.599726 284.275743 
L 440.905259 281.650139 
L 442.210793 278.971813 
L 443.516327 276.240241 
L 444.82186 273.454901 
L 446.127394 270.615266 
L 447.432927 267.720815 
L 448.738461 264.771022 
L 450.043995 261.765363 
L 451.349528 258.703314 
L 452.655062 255.584352 
L 453.960595 252.407952 
L 455.266129 249.17359 
L 456.571663 245.880742 
L 457.877196 242.528884 
L 459.18273 239.117491 
L 460.488263 235.646041 
L 461.793797 232.114008 
L 463.099331 228.520869 
L 464.404864 224.8661 
L 465.710398 221.149176 
" clip-path="url(#pac3999e089)" style="fill: none; stroke: #ee854a; stroke-width: 2.5; stroke-linecap: round"/>
   </g>
   <g id="line2d_28">
    <path d="M 309.56858 378.047812 
L 309.56858 213.677812 
" clip-path="url(#pac3999e089)" style="fill: none; stroke-dasharray: 0.8,1.32; stroke-dashoffset: 0; stroke: #808080; stroke-opacity: 0.9; stroke-width: 0.8"/>
   </g>
   <g id="patch_8">
    <path d="M 55.838125 378.047812 
L 55.838125 213.677812 
" style="fill: none; stroke: #cccccc; stroke-width: 1.25; stroke-linejoin: miter; stroke-linecap: square"/>
   </g>
   <g id="patch_9">
    <path d="M 485.228125 378.047812 
L 485.228125 213.677812 
" style="fill: none; stroke: #cccccc; stroke-width: 1.25; stroke-linejoin: miter; stroke-linecap: square"/>
   </g>
   <g id="patch_10">
    <path d="M 55.838125 378.047812 
L 485.228125 378.047812 
" style="fill: none; stroke: #cccccc; stroke-width: 1.25; stroke-linejoin: miter; stroke-linecap: square"/>
   </g>
   <g id="patch_11">
    <path d="M 55.838125 213.677812 
L 485.228125 213.677812 
" style="fill: none; stroke: #cccccc; stroke-width: 1.25; stroke-linejoin: miter; stroke-linecap: square"/>
   </g>
   <g id="text_21">
    <!-- Truncated Cubic Basis Function at ξ = 0.6 -->
    <g style="fill: #262626" transform="translate(142.078906 207.677812) scale(0.11 -0.11)">
     <defs>
      <path id="DejaVuSans-Bold-54" d="M 31 4666 
L 4331 4666 
L 4331 3756 
L 2784 3756 
L 2784 0 
L 1581 0 
L 1581 3756 
L 31 3756 
L 31 4666 
z
" transform="scale(0.015625)"/>
      <path id="DejaVuSans-Bold-72" d="M 3138 2547 
Q 2991 2616 2845 2648 
Q 2700 2681 2553 2681 
Q 2122 2681 1889 2404 
Q 1656 2128 1656 1613 
L 1656 0 
L 538 0 
L 538 3500 
L 1656 3500 
L 1656 2925 
Q 1872 3269 2151 3426 
Q 2431 3584 2822 3584 
Q 2878 3584 2943 3579 
Q 3009 3575 3134 3559 
L 3138 2547 
z
" transform="scale(0.015625)"/>
      <path id="DejaVuSans-Bold-61" d="M 2106 1575 
Q 1756 1575 1579 1456 
Q 1403 1338 1403 1106 
Q 1403 894 1545 773 
Q 1688 653 1941 653 
Q 2256 653 2472 879 
Q 2688 1106 2688 1447 
L 2688 1575 
L 2106 1575 
z
M 3816 1997 
L 3816 0 
L 2688 0 
L 2688 519 
Q 2463 200 2181 54 
Q 1900 -91 1497 -91 
Q 953 -91 614 226 
Q 275 544 275 1050 
Q 275 1666 698 1953 
Q 1122 2241 2028 2241 
L 2688 2241 
L 2688 2328 
Q 2688 2594 2478 2717 
Q 2269 2841 1825 2841 
Q 1466 2841 1156 2769 
Q 847 2697 581 2553 
L 581 3406 
Q 941 3494 1303 3539 
Q 1666 3584 2028 3584 
Q 2975 3584 3395 3211 
Q 3816 2838 3816 1997 
z
" transform="scale(0.015625)"/>
      <path id="DejaVuSans-Bold-74" d="M 1759 4494 
L 1759 3500 
L 2913 3500 
L 2913 2700 
L 1759 2700 
L 1759 1216 
Q 1759 972 1856 886 
Q 1953 800 2241 800 
L 2816 800 
L 2816 0 
L 1856 0 
Q 1194 0 917 276 
Q 641 553 641 1216 
L 641 2700 
L 84 2700 
L 84 3500 
L 641 3500 
L 641 4494 
L 1759 4494 
z
" transform="scale(0.015625)"/>
      <path id="DejaVuSans-Bold-64" d="M 2919 2988 
L 2919 4863 
L 4044 4863 
L 4044 0 
L 2919 0 
L 2919 506 
Q 2688 197 2409 53 
Q 2131 -91 1766 -91 
Q 1119 -91 703 423 
Q 288 938 288 1747 
Q 288 2556 703 3070 
Q 1119 3584 1766 3584 
Q 2128 3584 2408 3439 
Q 2688 3294 2919 2988 
z
M 2181 722 
Q 2541 722 2730 984 
Q 2919 1247 2919 1747 
Q 2919 2247 2730 2509 
Q 2541 2772 2181 2772 
Q 1825 2772 1636 2509 
Q 1447 2247 1447 1747 
Q 1447 1247 1636 984 
Q 1825 722 2181 722 
z
" transform="scale(0.015625)"/>
      <path id="DejaVuSans-Bold-42" d="M 2456 2859 
Q 2741 2859 2887 2984 
Q 3034 3109 3034 3353 
Q 3034 3594 2887 3720 
Q 2741 3847 2456 3847 
L 1791 3847 
L 1791 2859 
L 2456 2859 
z
M 2497 819 
Q 2859 819 3042 972 
Q 3225 1125 3225 1434 
Q 3225 1738 3044 1889 
Q 2863 2041 2497 2041 
L 1791 2041 
L 1791 819 
L 2497 819 
z
M 3616 2497 
Q 4003 2384 4215 2081 
Q 4428 1778 4428 1338 
Q 4428 663 3972 331 
Q 3516 0 2584 0 
L 588 0 
L 588 4666 
L 2394 4666 
Q 3366 4666 3802 4372 
Q 4238 4078 4238 3431 
Q 4238 3091 4078 2852 
Q 3919 2613 3616 2497 
z
" transform="scale(0.015625)"/>
      <path id="DejaVuSans-Bold-73" d="M 3272 3391 
L 3272 2541 
Q 2913 2691 2578 2766 
Q 2244 2841 1947 2841 
Q 1628 2841 1473 2761 
Q 1319 2681 1319 2516 
Q 1319 2381 1436 2309 
Q 1553 2238 1856 2203 
L 2053 2175 
Q 2913 2066 3209 1816 
Q 3506 1566 3506 1031 
Q 3506 472 3093 190 
Q 2681 -91 1863 -91 
Q 1516 -91 1145 -36 
Q 775 19 384 128 
L 384 978 
Q 719 816 1070 734 
Q 1422 653 1784 653 
Q 2113 653 2278 743 
Q 2444 834 2444 1013 
Q 2444 1163 2330 1236 
Q 2216 1309 1875 1350 
L 1678 1375 
Q 931 1469 631 1722 
Q 331 1975 331 2491 
Q 331 3047 712 3315 
Q 1094 3584 1881 3584 
Q 2191 3584 2531 3537 
Q 2872 3491 3272 3391 
z
" transform="scale(0.015625)"/>
      <path id="DejaVuSans-Bold-46" d="M 588 4666 
L 3834 4666 
L 3834 3756 
L 1791 3756 
L 1791 2888 
L 3713 2888 
L 3713 1978 
L 1791 1978 
L 1791 0 
L 588 0 
L 588 4666 
z
" transform="scale(0.015625)"/>
      <path id="DejaVuSans-Bold-6f" d="M 2203 2784 
Q 1831 2784 1636 2517 
Q 1441 2250 1441 1747 
Q 1441 1244 1636 976 
Q 1831 709 2203 709 
Q 2569 709 2762 976 
Q 2956 1244 2956 1747 
Q 2956 2250 2762 2517 
Q 2569 2784 2203 2784 
z
M 2203 3584 
Q 3106 3584 3614 3096 
Q 4122 2609 4122 1747 
Q 4122 884 3614 396 
Q 3106 -91 2203 -91 
Q 1297 -91 786 396 
Q 275 884 275 1747 
Q 275 2609 786 3096 
Q 1297 3584 2203 3584 
z
" transform="scale(0.015625)"/>
      <path id="DejaVuSans-Bold-30" d="M 2944 2338 
Q 2944 3213 2780 3570 
Q 2616 3928 2228 3928 
Q 1841 3928 1675 3570 
Q 1509 3213 1509 2338 
Q 1509 1453 1675 1090 
Q 1841 728 2228 728 
Q 2613 728 2778 1090 
Q 2944 1453 2944 2338 
z
M 4147 2328 
Q 4147 1169 3647 539 
Q 3147 -91 2228 -91 
Q 1306 -91 806 539 
Q 306 1169 306 2328 
Q 306 3491 806 4120 
Q 1306 4750 2228 4750 
Q 3147 4750 3647 4120 
Q 4147 3491 4147 2328 
z
" transform="scale(0.015625)"/>
      <path id="DejaVuSans-Bold-2e" d="M 653 1209 
L 1778 1209 
L 1778 0 
L 653 0 
L 653 1209 
z
" transform="scale(0.015625)"/>
      <path id="DejaVuSans-Bold-36" d="M 2316 2303 
Q 2000 2303 1842 2098 
Q 1684 1894 1684 1484 
Q 1684 1075 1842 870 
Q 2000 666 2316 666 
Q 2634 666 2792 870 
Q 2950 1075 2950 1484 
Q 2950 1894 2792 2098 
Q 2634 2303 2316 2303 
z
M 3803 4544 
L 3803 3681 
Q 3506 3822 3243 3889 
Q 2981 3956 2731 3956 
Q 2194 3956 1894 3657 
Q 1594 3359 1544 2772 
Q 1750 2925 1990 3001 
Q 2231 3078 2516 3078 
Q 3231 3078 3670 2659 
Q 4109 2241 4109 1563 
Q 4109 813 3618 361 
Q 3128 -91 2303 -91 
Q 1394 -91 895 523 
Q 397 1138 397 2266 
Q 397 3422 980 4083 
Q 1563 4744 2578 4744 
Q 2900 4744 3203 4694 
Q 3506 4644 3803 4544 
z
" transform="scale(0.015625)"/>
     </defs>
     <use xlink:href="#DejaVuSans-Bold-54"/>
     <use xlink:href="#DejaVuSans-Bold-72" transform="translate(57.212891 0)"/>
     <use xlink:href="#DejaVuSans-Bold-75" transform="translate(106.529297 0)"/>
     <use xlink:href="#DejaVuSans-Bold-6e" transform="translate(177.720703 0)"/>
     <use xlink:href="#DejaVuSans-Bold-63" transform="translate(248.912109 0)"/>
     <use xlink:href="#DejaVuSans-Bold-61" transform="translate(308.189453 0)"/>
     <use xlink:href="#DejaVuSans-Bold-74" transform="translate(375.669922 0)"/>
     <use xlink:href="#DejaVuSans-Bold-65" transform="translate(423.472656 0)"/>
     <use xlink:href="#DejaVuSans-Bold-64" transform="translate(491.294922 0)"/>
     <use xlink:href="#DejaVuSans-Bold-20" transform="translate(562.876953 0)"/>
     <use xlink:href="#DejaVuSans-Bold-43" transform="translate(597.691406 0)"/>
     <use xlink:href="#DejaVuSans-Bold-75" transform="translate(671.080078 0)"/>
     <use xlink:href="#DejaVuSans-Bold-62" transform="translate(742.271484 0)"/>
     <use xlink:href="#DejaVuSans-Bold-69" transform="translate(813.853516 0)"/>
     <use xlink:href="#DejaVuSans-Bold-63" transform="translate(848.130859 0)"/>
     <use xlink:href="#DejaVuSans-Bold-20" transform="translate(907.408203 0)"/>
     <use xlink:href="#DejaVuSans-Bold-42" transform="translate(942.222656 0)"/>
     <use xlink:href="#DejaVuSans-Bold-61" transform="translate(1018.443359 0)"/>
     <use xlink:href="#DejaVuSans-Bold-73" transform="translate(1085.923828 0)"/>
     <use xlink:href="#DejaVuSans-Bold-69" transform="translate(1145.445312 0)"/>
     <use xlink:href="#DejaVuSans-Bold-73" transform="translate(1179.722656 0)"/>
     <use xlink:href="#DejaVuSans-Bold-20" transform="translate(1239.244141 0)"/>
     <use xlink:href="#DejaVuSans-Bold-46" transform="translate(1274.058594 0)"/>
     <use xlink:href="#DejaVuSans-Bold-75" transform="translate(1337.369141 0)"/>
     <use xlink:href="#DejaVuSans-Bold-6e" transform="translate(1408.560547 0)"/>
     <use xlink:href="#DejaVuSans-Bold-63" transform="translate(1479.751953 0)"/>
     <use xlink:href="#DejaVuSans-Bold-74" transform="translate(1539.029297 0)"/>
     <use xlink:href="#DejaVuSans-Bold-69" transform="translate(1586.832031 0)"/>
     <use xlink:href="#DejaVuSans-Bold-6f" transform="translate(1621.109375 0)"/>
     <use xlink:href="#DejaVuSans-Bold-6e" transform="translate(1689.810547 0)"/>
     <use xlink:href="#DejaVuSans-Bold-20" transform="translate(1761.001953 0)"/>
     <use xlink:href="#DejaVuSans-Bold-61" transform="translate(1795.816406 0)"/>
     <use xlink:href="#DejaVuSans-Bold-74" transform="translate(1863.296875 0)"/>
     <use xlink:href="#DejaVuSans-Bold-20" transform="translate(1911.099609 0)"/>
     <use xlink:href="#DejaVuSans-Bold-3be" transform="translate(1945.914062 0)"/>
     <use xlink:href="#DejaVuSans-Bold-20" transform="translate(2004.996094 0)"/>
     <use xlink:href="#DejaVuSans-Bold-3d" transform="translate(2039.810547 0)"/>
     <use xlink:href="#DejaVuSans-Bold-20" transform="translate(2123.599609 0)"/>
     <use xlink:href="#DejaVuSans-Bold-30" transform="translate(2158.414062 0)"/>
     <use xlink:href="#DejaVuSans-Bold-2e" transform="translate(2227.994141 0)"/>
     <use xlink:href="#DejaVuSans-Bold-36" transform="translate(2265.982422 0)"/>
    </g>
   </g>
   <g id="legend_1">
    <g id="patch_12">
     <path d="M 62.838125 236.37625 
L 172.96625 236.37625 
Q 174.96625 236.37625 174.96625 234.37625 
L 174.96625 220.677812 
Q 174.96625 218.677812 172.96625 218.677812 
L 62.838125 218.677812 
Q 60.838125 218.677812 60.838125 220.677812 
L 60.838125 234.37625 
Q 60.838125 236.37625 62.838125 236.37625 
z
" style="fill: #ffffff; opacity: 0.8; stroke: #cccccc; stroke-linejoin: miter"/>
    </g>
    <g id="line2d_29">
     <path d="M 64.838125 226.77625 
L 74.838125 226.77625 
L 84.838125 226.77625 
" style="fill: none; stroke: #ee854a; stroke-width: 2.5; stroke-linecap: round"/>
    </g>
    <g id="text_22">
     <!-- b(x) = (x − ξ)³₊ -->
     <g style="fill: #262626" transform="translate(92.838125 230.27625) scale(0.1 -0.1)">
      <defs>
       <path id="DejaVuSans-20" transform="scale(0.015625)"/>
       <path id="DejaVuSans-3d" d="M 678 2906 
L 4684 2906 
L 4684 2381 
L 678 2381 
L 678 2906 
z
M 678 1631 
L 4684 1631 
L 4684 1100 
L 678 1100 
L 678 1631 
z
" transform="scale(0.015625)"/>
       <path id="DejaVuSans-2212" d="M 678 2272 
L 4684 2272 
L 4684 1741 
L 678 1741 
L 678 2272 
z
" transform="scale(0.015625)"/>
       <path id="DejaVuSans-3be" d="M 2281 397 
Q 2694 394 2941 159 
Q 3203 -88 3203 -463 
Q 3203 -822 2972 -1072 
Q 2722 -1344 2213 -1344 
Q 2213 -1109 2213 -872 
Q 2428 -888 2559 -750 
Q 2659 -641 2659 -525 
Q 2659 -359 2559 -222 
Q 2463 -91 2281 -91 
Q 334 -91 334 1275 
Q 334 2213 1375 2488 
Q 500 2600 500 3413 
Q 500 4028 1188 4284 
L 538 4284 
L 538 4863 
L 3003 4863 
L 3003 4284 
Q 1038 4284 1038 3375 
Q 1038 2778 2688 2750 
L 2688 2219 
Q 906 2288 913 1275 
Q 916 428 2281 397 
z
" transform="scale(0.015625)"/>
       <path id="DejaVuSans-b3" d="M 1638 3500 
Q 1925 3444 2083 3273 
Q 2241 3103 2241 2847 
Q 2241 2459 1944 2250 
Q 1647 2041 1094 2041 
Q 916 2041 720 2073 
Q 525 2106 306 2169 
L 306 2547 
Q 469 2463 655 2422 
Q 841 2381 1050 2381 
Q 1391 2381 1578 2504 
Q 1766 2628 1766 2847 
Q 1766 3078 1592 3197 
Q 1419 3316 1081 3316 
L 813 3316 
L 813 3653 
L 1106 3653 
Q 1400 3653 1551 3751 
Q 1703 3850 1703 4038 
Q 1703 4219 1547 4314 
Q 1391 4409 1094 4409 
Q 969 4409 809 4381 
Q 650 4353 397 4281 
L 397 4641 
Q 625 4694 825 4722 
Q 1025 4750 1197 4750 
Q 1647 4750 1911 4565 
Q 2175 4381 2175 4072 
Q 2175 3856 2034 3706 
Q 1894 3556 1638 3500 
z
" transform="scale(0.015625)"/>
       <path id="DejaVuSans-208a" d="M 1853 2222 
L 1853 1247 
L 2950 1247 
L 2950 951 
L 1853 951 
L 1853 -24 
L 1525 -24 
L 1525 951 
L 428 951 
L 428 1247 
L 1525 1247 
L 1525 2222 
L 1853 2222 
z
" transform="scale(0.015625)"/>
      </defs>
      <use xlink:href="#DejaVuSans-62"/>
      <use xlink:href="#DejaVuSans-28" transform="translate(63.476562 0)"/>
      <use xlink:href="#DejaVuSans-78" transform="translate(102.490234 0)"/>
      <use xlink:href="#DejaVuSans-29" transform="translate(161.669922 0)"/>
      <use xlink:href="#DejaVuSans-20" transform="translate(200.683594 0)"/>
      <use xlink:href="#DejaVuSans-3d" transform="translate(232.470703 0)"/>
      <use xlink:href="#DejaVuSans-20" transform="translate(316.259766 0)"/>
      <use xlink:href="#DejaVuSans-28" transform="translate(348.046875 0)"/>
      <use xlink:href="#DejaVuSans-78" transform="translate(387.060547 0)"/>
      <use xlink:href="#DejaVuSans-20" transform="translate(446.240234 0)"/>
      <use xlink:href="#DejaVuSans-2212" transform="translate(478.027344 0)"/>
      <use xlink:href="#DejaVuSans-20" transform="translate(561.816406 0)"/>
      <use xlink:href="#DejaVuSans-3be" transform="translate(593.603516 0)"/>
      <use xlink:href="#DejaVuSans-29" transform="translate(649.365234 0)"/>
      <use xlink:href="#DejaVuSans-b3" transform="translate(688.378906 0)"/>
      <use xlink:href="#DejaVuSans-208a" transform="translate(728.466797 0)"/>
     </g>
    </g>
   </g>
  </g>
 </g>
 <defs>
  <clipPath id="p62d930e706">
   <rect x="55.838125" y="21.707812" width="429.39" height="164.37"/>
  </clipPath>
  <clipPath id="pac3999e089">
   <rect x="55.838125" y="213.677812" width="429.39" height="164.37"/>
  </clipPath>
 </defs>
</svg>
