<?xml version="1.0" encoding="utf-8" standalone="no"?>
<!DOCTYPE svg PUBLIC "-//W3C//DTD SVG 1.1//EN"
  "http://www.w3.org/Graphics/SVG/1.1/DTD/svg11.dtd">
<svg xmlns:xlink="http://www.w3.org/1999/xlink" width="852.68625pt" height="258.079187pt" viewBox="0 0 852.68625 258.079187" xmlns="http://www.w3.org/2000/svg" version="1.1">
 <metadata>
  <rdf:RDF xmlns:dc="http://purl.org/dc/elements/1.1/" xmlns:cc="http://creativecommons.org/ns#" xmlns:rdf="http://www.w3.org/1999/02/22-rdf-syntax-ns#">
   <cc:Work>
    <dc:type rdf:resource="http://purl.org/dc/dcmitype/StillImage"/>
    <dc:date>2026-06-02T15:44:37.005710</dc:date>
    <dc:format>image/svg+xml</dc:format>
    <dc:creator>
     <cc:Agent>
      <dc:title>Matplotlib v3.10.9, https://matplotlib.org/</dc:title>
     </cc:Agent>
    </dc:creator>
   </cc:Work>
  </rdf:RDF>
 </metadata>
 <defs>
  <style type="text/css">*{stroke-linejoin: round; stroke-linecap: butt}</style>
 </defs>
 <g id="figure_1">
  <g id="patch_1">
   <path d="M 0 258.079187 
L 852.68625 258.079187 
L 852.68625 0 
L 0 0 
z
" style="fill: #ffffff"/>
  </g>
  <g id="axes_1">
   <g id="patch_2">
    <path d="M 37.69625 215.1195 
L 269.039583 215.1195 
L 269.039583 35.7555 
L 37.69625 35.7555 
z
" style="fill: #ffffff"/>
   </g>
   <g id="matplotlib.axis_1">
    <g id="xtick_1">
     <g id="line2d_1">
      <path d="M 59.040601 215.1195 
L 59.040601 35.7555 
" clip-path="url(#p5db9a09275)" style="fill: none; stroke: #cccccc; stroke-linecap: round"/>
     </g>
     <g id="text_1">
      <!-- 0.3 -->
      <g style="fill: #262626" transform="translate(50.293882 232.977781) scale(0.11 -0.11)">
       <defs>
        <path id="DejaVuSans-30" d="M 2034 4250 
Q 1547 4250 1301 3770 
Q 1056 3291 1056 2328 
Q 1056 1369 1301 889 
Q 1547 409 2034 409 
Q 2525 409 2770 889 
Q 3016 1369 3016 2328 
Q 3016 3291 2770 3770 
Q 2525 4250 2034 4250 
z
M 2034 4750 
Q 2819 4750 3233 4129 
Q 3647 3509 3647 2328 
Q 3647 1150 3233 529 
Q 2819 -91 2034 -91 
Q 1250 -91 836 529 
Q 422 1150 422 2328 
Q 422 3509 836 4129 
Q 1250 4750 2034 4750 
z
" transform="scale(0.015625)"/>
        <path id="DejaVuSans-2e" d="M 684 794 
L 1344 794 
L 1344 0 
L 684 0 
L 684 794 
z
" transform="scale(0.015625)"/>
        <path id="DejaVuSans-33" d="M 2597 2516 
Q 3050 2419 3304 2112 
Q 3559 1806 3559 1356 
Q 3559 666 3084 287 
Q 2609 -91 1734 -91 
Q 1441 -91 1130 -33 
Q 819 25 488 141 
L 488 750 
Q 750 597 1062 519 
Q 1375 441 1716 441 
Q 2309 441 2620 675 
Q 2931 909 2931 1356 
Q 2931 1769 2642 2001 
Q 2353 2234 1838 2234 
L 1294 2234 
L 1294 2753 
L 1863 2753 
Q 2328 2753 2575 2939 
Q 2822 3125 2822 3475 
Q 2822 3834 2567 4026 
Q 2313 4219 1838 4219 
Q 1578 4219 1281 4162 
Q 984 4106 628 3988 
L 628 4550 
Q 988 4650 1302 4700 
Q 1616 4750 1894 4750 
Q 2613 4750 3031 4423 
Q 3450 4097 3450 3541 
Q 3450 3153 3228 2886 
Q 3006 2619 2597 2516 
z
" transform="scale(0.015625)"/>
       </defs>
       <use xlink:href="#DejaVuSans-30"/>
       <use xlink:href="#DejaVuSans-2e" transform="translate(63.623047 0)"/>
       <use xlink:href="#DejaVuSans-33" transform="translate(95.410156 0)"/>
      </g>
     </g>
    </g>
    <g id="xtick_2">
     <g id="line2d_2">
      <path d="M 96.002004 215.1195 
L 96.002004 35.7555 
" clip-path="url(#p5db9a09275)" style="fill: none; stroke: #cccccc; stroke-linecap: round"/>
     </g>
     <g id="text_2">
      <!-- 0.4 -->
      <g style="fill: #262626" transform="translate(87.255286 232.977781) scale(0.11 -0.11)">
       <defs>
        <path id="DejaVuSans-34" d="M 2419 4116 
L 825 1625 
L 2419 1625 
L 2419 4116 
z
M 2253 4666 
L 3047 4666 
L 3047 1625 
L 3713 1625 
L 3713 1100 
L 3047 1100 
L 3047 0 
L 2419 0 
L 2419 1100 
L 313 1100 
L 313 1709 
L 2253 4666 
z
" transform="scale(0.015625)"/>
       </defs>
       <use xlink:href="#DejaVuSans-30"/>
       <use xlink:href="#DejaVuSans-2e" transform="translate(63.623047 0)"/>
       <use xlink:href="#DejaVuSans-34" transform="translate(95.410156 0)"/>
      </g>
     </g>
    </g>
    <g id="xtick_3">
     <g id="line2d_3">
      <path d="M 132.963408 215.1195 
L 132.963408 35.7555 
" clip-path="url(#p5db9a09275)" style="fill: none; stroke: #cccccc; stroke-linecap: round"/>
     </g>
     <g id="text_3">
      <!-- 0.5 -->
      <g style="fill: #262626" transform="translate(124.216689 232.977781) scale(0.11 -0.11)">
       <defs>
        <path id="DejaVuSans-35" d="M 691 4666 
L 3169 4666 
L 3169 4134 
L 1269 4134 
L 1269 2991 
Q 1406 3038 1543 3061 
Q 1681 3084 1819 3084 
Q 2600 3084 3056 2656 
Q 3513 2228 3513 1497 
Q 3513 744 3044 326 
Q 2575 -91 1722 -91 
Q 1428 -91 1123 -41 
Q 819 9 494 109 
L 494 744 
Q 775 591 1075 516 
Q 1375 441 1709 441 
Q 2250 441 2565 725 
Q 2881 1009 2881 1497 
Q 2881 1984 2565 2268 
Q 2250 2553 1709 2553 
Q 1456 2553 1204 2497 
Q 953 2441 691 2322 
L 691 4666 
z
" transform="scale(0.015625)"/>
       </defs>
       <use xlink:href="#DejaVuSans-30"/>
       <use xlink:href="#DejaVuSans-2e" transform="translate(63.623047 0)"/>
       <use xlink:href="#DejaVuSans-35" transform="translate(95.410156 0)"/>
      </g>
     </g>
    </g>
    <g id="xtick_4">
     <g id="line2d_4">
      <path d="M 169.924811 215.1195 
L 169.924811 35.7555 
" clip-path="url(#p5db9a09275)" style="fill: none; stroke: #cccccc; stroke-linecap: round"/>
     </g>
     <g id="text_4">
      <!-- 0.6 -->
      <g style="fill: #262626" transform="translate(161.178092 232.977781) scale(0.11 -0.11)">
       <defs>
        <path id="DejaVuSans-36" d="M 2113 2584 
Q 1688 2584 1439 2293 
Q 1191 2003 1191 1497 
Q 1191 994 1439 701 
Q 1688 409 2113 409 
Q 2538 409 2786 701 
Q 3034 994 3034 1497 
Q 3034 2003 2786 2293 
Q 2538 2584 2113 2584 
z
M 3366 4563 
L 3366 3988 
Q 3128 4100 2886 4159 
Q 2644 4219 2406 4219 
Q 1781 4219 1451 3797 
Q 1122 3375 1075 2522 
Q 1259 2794 1537 2939 
Q 1816 3084 2150 3084 
Q 2853 3084 3261 2657 
Q 3669 2231 3669 1497 
Q 3669 778 3244 343 
Q 2819 -91 2113 -91 
Q 1303 -91 875 529 
Q 447 1150 447 2328 
Q 447 3434 972 4092 
Q 1497 4750 2381 4750 
Q 2619 4750 2861 4703 
Q 3103 4656 3366 4563 
z
" transform="scale(0.015625)"/>
       </defs>
       <use xlink:href="#DejaVuSans-30"/>
       <use xlink:href="#DejaVuSans-2e" transform="translate(63.623047 0)"/>
       <use xlink:href="#DejaVuSans-36" transform="translate(95.410156 0)"/>
      </g>
     </g>
    </g>
    <g id="xtick_5">
     <g id="line2d_5">
      <path d="M 206.886215 215.1195 
L 206.886215 35.7555 
" clip-path="url(#p5db9a09275)" style="fill: none; stroke: #cccccc; stroke-linecap: round"/>
     </g>
     <g id="text_5">
      <!-- 0.7 -->
      <g style="fill: #262626" transform="translate(198.139496 232.977781) scale(0.11 -0.11)">
       <defs>
        <path id="DejaVuSans-37" d="M 525 4666 
L 3525 4666 
L 3525 4397 
L 1831 0 
L 1172 0 
L 2766 4134 
L 525 4134 
L 525 4666 
z
" transform="scale(0.015625)"/>
       </defs>
       <use xlink:href="#DejaVuSans-30"/>
       <use xlink:href="#DejaVuSans-2e" transform="translate(63.623047 0)"/>
       <use xlink:href="#DejaVuSans-37" transform="translate(95.410156 0)"/>
      </g>
     </g>
    </g>
    <g id="xtick_6">
     <g id="line2d_6">
      <path d="M 243.847618 215.1195 
L 243.847618 35.7555 
" clip-path="url(#p5db9a09275)" style="fill: none; stroke: #cccccc; stroke-linecap: round"/>
     </g>
     <g id="text_6">
      <!-- 0.8 -->
      <g style="fill: #262626" transform="translate(235.100899 232.977781) scale(0.11 -0.11)">
       <defs>
        <path id="DejaVuSans-38" d="M 2034 2216 
Q 1584 2216 1326 1975 
Q 1069 1734 1069 1313 
Q 1069 891 1326 650 
Q 1584 409 2034 409 
Q 2484 409 2743 651 
Q 3003 894 3003 1313 
Q 3003 1734 2745 1975 
Q 2488 2216 2034 2216 
z
M 1403 2484 
Q 997 2584 770 2862 
Q 544 3141 544 3541 
Q 544 4100 942 4425 
Q 1341 4750 2034 4750 
Q 2731 4750 3128 4425 
Q 3525 4100 3525 3541 
Q 3525 3141 3298 2862 
Q 3072 2584 2669 2484 
Q 3125 2378 3379 2068 
Q 3634 1759 3634 1313 
Q 3634 634 3220 271 
Q 2806 -91 2034 -91 
Q 1263 -91 848 271 
Q 434 634 434 1313 
Q 434 1759 690 2068 
Q 947 2378 1403 2484 
z
M 1172 3481 
Q 1172 3119 1398 2916 
Q 1625 2713 2034 2713 
Q 2441 2713 2670 2916 
Q 2900 3119 2900 3481 
Q 2900 3844 2670 4047 
Q 2441 4250 2034 4250 
Q 1625 4250 1398 4047 
Q 1172 3844 1172 3481 
z
" transform="scale(0.015625)"/>
       </defs>
       <use xlink:href="#DejaVuSans-30"/>
       <use xlink:href="#DejaVuSans-2e" transform="translate(63.623047 0)"/>
       <use xlink:href="#DejaVuSans-38" transform="translate(95.410156 0)"/>
      </g>
     </g>
    </g>
    <g id="text_7">
     <!-- α̂ -->
     <g style="fill: #262626" transform="translate(149.412604 248.383562) scale(0.12 -0.12)">
      <defs>
       <path id="DejaVuSans-3b1" d="M 2644 1628 
L 2506 2350 
Q 2366 3091 1809 3091 
Q 1391 3091 1200 2747 
Q 959 2316 959 1747 
Q 959 1059 1194 731 
Q 1431 397 1809 397 
Q 2228 397 2453 1063 
L 2644 1628 
z
M 2966 2584 
L 3275 3500 
L 3788 3500 
L 3147 1603 
L 3272 919 
Q 3300 766 3409 638 
Q 3538 488 3638 488 
L 3913 488 
L 3913 0 
L 3569 0 
Q 3275 0 3013 263 
Q 2884 394 2831 669 
Q 2688 322 2394 50 
Q 2256 -78 1809 -78 
Q 1075 -78 719 397 
Q 353 888 353 1747 
Q 353 2666 750 3097 
Q 1191 3578 1809 3578 
Q 2781 3578 2966 2584 
z
" transform="scale(0.015625)"/>
       <path id="DejaVuSans-302" d="M -1831 5119 
L -1369 5119 
L -603 3944 
L -1038 3944 
L -1600 4709 
L -2163 3944 
L -2597 3944 
L -1831 5119 
z
M -1600 3584 
L -1600 3584 
z
" transform="scale(0.015625)"/>
      </defs>
      <use xlink:href="#DejaVuSans-3b1"/>
      <use xlink:href="#DejaVuSans-302" transform="translate(65.917969 0)"/>
     </g>
    </g>
   </g>
   <g id="matplotlib.axis_2">
    <g id="ytick_1">
     <g id="line2d_7">
      <path d="M 37.69625 215.1195 
L 269.039583 215.1195 
" clip-path="url(#p5db9a09275)" style="fill: none; stroke: #cccccc; stroke-linecap: round"/>
     </g>
     <g id="text_8">
      <!-- 0 -->
      <g style="fill: #262626" transform="translate(21.1975 219.298641) scale(0.11 -0.11)">
       <use xlink:href="#DejaVuSans-30"/>
      </g>
     </g>
    </g>
    <g id="ytick_2">
     <g id="line2d_8">
      <path d="M 37.69625 180.257692 
L 269.039583 180.257692 
" clip-path="url(#p5db9a09275)" style="fill: none; stroke: #cccccc; stroke-linecap: round"/>
     </g>
     <g id="text_9">
      <!-- 20 -->
      <g style="fill: #262626" transform="translate(14.19875 184.436833) scale(0.11 -0.11)">
       <defs>
        <path id="DejaVuSans-32" d="M 1228 531 
L 3431 531 
L 3431 0 
L 469 0 
L 469 531 
Q 828 903 1448 1529 
Q 2069 2156 2228 2338 
Q 2531 2678 2651 2914 
Q 2772 3150 2772 3378 
Q 2772 3750 2511 3984 
Q 2250 4219 1831 4219 
Q 1534 4219 1204 4116 
Q 875 4013 500 3803 
L 500 4441 
Q 881 4594 1212 4672 
Q 1544 4750 1819 4750 
Q 2544 4750 2975 4387 
Q 3406 4025 3406 3419 
Q 3406 3131 3298 2873 
Q 3191 2616 2906 2266 
Q 2828 2175 2409 1742 
Q 1991 1309 1228 531 
z
" transform="scale(0.015625)"/>
       </defs>
       <use xlink:href="#DejaVuSans-32"/>
       <use xlink:href="#DejaVuSans-30" transform="translate(63.623047 0)"/>
      </g>
     </g>
    </g>
    <g id="ytick_3">
     <g id="line2d_9">
      <path d="M 37.69625 145.395885 
L 269.039583 145.395885 
" clip-path="url(#p5db9a09275)" style="fill: none; stroke: #cccccc; stroke-linecap: round"/>
     </g>
     <g id="text_10">
      <!-- 40 -->
      <g style="fill: #262626" transform="translate(14.19875 149.575025) scale(0.11 -0.11)">
       <use xlink:href="#DejaVuSans-34"/>
       <use xlink:href="#DejaVuSans-30" transform="translate(63.623047 0)"/>
      </g>
     </g>
    </g>
    <g id="ytick_4">
     <g id="line2d_10">
      <path d="M 37.69625 110.534077 
L 269.039583 110.534077 
" clip-path="url(#p5db9a09275)" style="fill: none; stroke: #cccccc; stroke-linecap: round"/>
     </g>
     <g id="text_11">
      <!-- 60 -->
      <g style="fill: #262626" transform="translate(14.19875 114.713218) scale(0.11 -0.11)">
       <use xlink:href="#DejaVuSans-36"/>
       <use xlink:href="#DejaVuSans-30" transform="translate(63.623047 0)"/>
      </g>
     </g>
    </g>
    <g id="ytick_5">
     <g id="line2d_11">
      <path d="M 37.69625 75.67227 
L 269.039583 75.67227 
" clip-path="url(#p5db9a09275)" style="fill: none; stroke: #cccccc; stroke-linecap: round"/>
     </g>
     <g id="text_12">
      <!-- 80 -->
      <g style="fill: #262626" transform="translate(14.19875 79.85141) scale(0.11 -0.11)">
       <use xlink:href="#DejaVuSans-38"/>
       <use xlink:href="#DejaVuSans-30" transform="translate(63.623047 0)"/>
      </g>
     </g>
    </g>
    <g id="ytick_6">
     <g id="line2d_12">
      <path d="M 37.69625 40.810462 
L 269.039583 40.810462 
" clip-path="url(#p5db9a09275)" style="fill: none; stroke: #cccccc; stroke-linecap: round"/>
     </g>
     <g id="text_13">
      <!-- 100 -->
      <g style="fill: #262626" transform="translate(7.2 44.989603) scale(0.11 -0.11)">
       <defs>
        <path id="DejaVuSans-31" d="M 794 531 
L 1825 531 
L 1825 4091 
L 703 3866 
L 703 4441 
L 1819 4666 
L 2450 4666 
L 2450 531 
L 3481 531 
L 3481 0 
L 794 0 
L 794 531 
z
" transform="scale(0.015625)"/>
       </defs>
       <use xlink:href="#DejaVuSans-31"/>
       <use xlink:href="#DejaVuSans-30" transform="translate(63.623047 0)"/>
       <use xlink:href="#DejaVuSans-30" transform="translate(127.246094 0)"/>
      </g>
     </g>
    </g>
   </g>
   <g id="patch_3">
    <path d="M 48.211856 215.1195 
L 55.22226 215.1195 
L 55.22226 213.37641 
L 48.211856 213.37641 
z
" clip-path="url(#p5db9a09275)" style="fill: #ee854a; opacity: 0.85; stroke: #ffffff; stroke-linejoin: miter"/>
   </g>
   <g id="patch_4">
    <path d="M 55.22226 215.1195 
L 62.232664 215.1195 
L 62.232664 215.1195 
L 55.22226 215.1195 
z
" clip-path="url(#p5db9a09275)" style="fill: #ee854a; opacity: 0.85; stroke: #ffffff; stroke-linejoin: miter"/>
   </g>
   <g id="patch_5">
    <path d="M 62.232664 215.1195 
L 69.243068 215.1195 
L 69.243068 215.1195 
L 62.232664 215.1195 
z
" clip-path="url(#p5db9a09275)" style="fill: #ee854a; opacity: 0.85; stroke: #ffffff; stroke-linejoin: miter"/>
   </g>
   <g id="patch_6">
    <path d="M 69.243068 215.1195 
L 76.253472 215.1195 
L 76.253472 215.1195 
L 69.243068 215.1195 
z
" clip-path="url(#p5db9a09275)" style="fill: #ee854a; opacity: 0.85; stroke: #ffffff; stroke-linejoin: miter"/>
   </g>
   <g id="patch_7">
    <path d="M 76.253472 215.1195 
L 83.263876 215.1195 
L 83.263876 213.37641 
L 76.253472 213.37641 
z
" clip-path="url(#p5db9a09275)" style="fill: #ee854a; opacity: 0.85; stroke: #ffffff; stroke-linejoin: miter"/>
   </g>
   <g id="patch_8">
    <path d="M 83.263876 215.1195 
L 90.27428 215.1195 
L 90.27428 213.37641 
L 83.263876 213.37641 
z
" clip-path="url(#p5db9a09275)" style="fill: #ee854a; opacity: 0.85; stroke: #ffffff; stroke-linejoin: miter"/>
   </g>
   <g id="patch_9">
    <path d="M 90.27428 215.1195 
L 97.284684 215.1195 
L 97.284684 209.890229 
L 90.27428 209.890229 
z
" clip-path="url(#p5db9a09275)" style="fill: #ee854a; opacity: 0.85; stroke: #ffffff; stroke-linejoin: miter"/>
   </g>
   <g id="patch_10">
    <path d="M 97.284684 215.1195 
L 104.295088 215.1195 
L 104.295088 209.890229 
L 97.284684 209.890229 
z
" clip-path="url(#p5db9a09275)" style="fill: #ee854a; opacity: 0.85; stroke: #ffffff; stroke-linejoin: miter"/>
   </g>
   <g id="patch_11">
    <path d="M 104.295088 215.1195 
L 111.305492 215.1195 
L 111.305492 197.688596 
L 104.295088 197.688596 
z
" clip-path="url(#p5db9a09275)" style="fill: #ee854a; opacity: 0.85; stroke: #ffffff; stroke-linejoin: miter"/>
   </g>
   <g id="patch_12">
    <path d="M 111.305492 215.1195 
L 118.315896 215.1195 
L 118.315896 182.000783 
L 111.305492 182.000783 
z
" clip-path="url(#p5db9a09275)" style="fill: #ee854a; opacity: 0.85; stroke: #ffffff; stroke-linejoin: miter"/>
   </g>
   <g id="patch_13">
    <path d="M 118.315896 215.1195 
L 125.326301 215.1195 
L 125.326301 155.854427 
L 118.315896 155.854427 
z
" clip-path="url(#p5db9a09275)" style="fill: #ee854a; opacity: 0.85; stroke: #ffffff; stroke-linejoin: miter"/>
   </g>
   <g id="patch_14">
    <path d="M 125.326301 215.1195 
L 132.336705 215.1195 
L 132.336705 154.111337 
L 125.326301 154.111337 
z
" clip-path="url(#p5db9a09275)" style="fill: #ee854a; opacity: 0.85; stroke: #ffffff; stroke-linejoin: miter"/>
   </g>
   <g id="patch_15">
    <path d="M 132.336705 215.1195 
L 139.347109 215.1195 
L 139.347109 114.020258 
L 132.336705 114.020258 
z
" clip-path="url(#p5db9a09275)" style="fill: #ee854a; opacity: 0.85; stroke: #ffffff; stroke-linejoin: miter"/>
   </g>
   <g id="patch_16">
    <path d="M 139.347109 215.1195 
L 146.357513 215.1195 
L 146.357513 120.99262 
L 139.347109 120.99262 
z
" clip-path="url(#p5db9a09275)" style="fill: #ee854a; opacity: 0.85; stroke: #ffffff; stroke-linejoin: miter"/>
   </g>
   <g id="patch_17">
    <path d="M 146.357513 215.1195 
L 153.367917 215.1195 
L 153.367917 75.67227 
L 146.357513 75.67227 
z
" clip-path="url(#p5db9a09275)" style="fill: #ee854a; opacity: 0.85; stroke: #ffffff; stroke-linejoin: miter"/>
   </g>
   <g id="patch_18">
    <path d="M 153.367917 215.1195 
L 160.378321 215.1195 
L 160.378321 61.727547 
L 153.367917 61.727547 
z
" clip-path="url(#p5db9a09275)" style="fill: #ee854a; opacity: 0.85; stroke: #ffffff; stroke-linejoin: miter"/>
   </g>
   <g id="patch_19">
    <path d="M 160.378321 215.1195 
L 167.388725 215.1195 
L 167.388725 44.296643 
L 160.378321 44.296643 
z
" clip-path="url(#p5db9a09275)" style="fill: #ee854a; opacity: 0.85; stroke: #ffffff; stroke-linejoin: miter"/>
   </g>
   <g id="patch_20">
    <path d="M 167.388725 215.1195 
L 174.399129 215.1195 
L 174.399129 66.956818 
L 167.388725 66.956818 
z
" clip-path="url(#p5db9a09275)" style="fill: #ee854a; opacity: 0.85; stroke: #ffffff; stroke-linejoin: miter"/>
   </g>
   <g id="patch_21">
    <path d="M 174.399129 215.1195 
L 181.409533 215.1195 
L 181.409533 58.241366 
L 174.399129 58.241366 
z
" clip-path="url(#p5db9a09275)" style="fill: #ee854a; opacity: 0.85; stroke: #ffffff; stroke-linejoin: miter"/>
   </g>
   <g id="patch_22">
    <path d="M 181.409533 215.1195 
L 188.419937 215.1195 
L 188.419937 82.644631 
L 181.409533 82.644631 
z
" clip-path="url(#p5db9a09275)" style="fill: #ee854a; opacity: 0.85; stroke: #ffffff; stroke-linejoin: miter"/>
   </g>
   <g id="patch_23">
    <path d="M 188.419937 215.1195 
L 195.430341 215.1195 
L 195.430341 93.103173 
L 188.419937 93.103173 
z
" clip-path="url(#p5db9a09275)" style="fill: #ee854a; opacity: 0.85; stroke: #ffffff; stroke-linejoin: miter"/>
   </g>
   <g id="patch_24">
    <path d="M 195.430341 215.1195 
L 202.440745 215.1195 
L 202.440745 114.020258 
L 195.430341 114.020258 
z
" clip-path="url(#p5db9a09275)" style="fill: #ee854a; opacity: 0.85; stroke: #ffffff; stroke-linejoin: miter"/>
   </g>
   <g id="patch_25">
    <path d="M 202.440745 215.1195 
L 209.451149 215.1195 
L 209.451149 147.138975 
L 202.440745 147.138975 
z
" clip-path="url(#p5db9a09275)" style="fill: #ee854a; opacity: 0.85; stroke: #ffffff; stroke-linejoin: miter"/>
   </g>
   <g id="patch_26">
    <path d="M 209.451149 215.1195 
L 216.461553 215.1195 
L 216.461553 166.312969 
L 209.451149 166.312969 
z
" clip-path="url(#p5db9a09275)" style="fill: #ee854a; opacity: 0.85; stroke: #ffffff; stroke-linejoin: miter"/>
   </g>
   <g id="patch_27">
    <path d="M 216.461553 215.1195 
L 223.471957 215.1195 
L 223.471957 154.111337 
L 216.461553 154.111337 
z
" clip-path="url(#p5db9a09275)" style="fill: #ee854a; opacity: 0.85; stroke: #ffffff; stroke-linejoin: miter"/>
   </g>
   <g id="patch_28">
    <path d="M 223.471957 215.1195 
L 230.482361 215.1195 
L 230.482361 192.459325 
L 223.471957 192.459325 
z
" clip-path="url(#p5db9a09275)" style="fill: #ee854a; opacity: 0.85; stroke: #ffffff; stroke-linejoin: miter"/>
   </g>
   <g id="patch_29">
    <path d="M 230.482361 215.1195 
L 237.492765 215.1195 
L 237.492765 195.945506 
L 230.482361 195.945506 
z
" clip-path="url(#p5db9a09275)" style="fill: #ee854a; opacity: 0.85; stroke: #ffffff; stroke-linejoin: miter"/>
   </g>
   <g id="patch_30">
    <path d="M 237.492765 215.1195 
L 244.503169 215.1195 
L 244.503169 204.660958 
L 237.492765 204.660958 
z
" clip-path="url(#p5db9a09275)" style="fill: #ee854a; opacity: 0.85; stroke: #ffffff; stroke-linejoin: miter"/>
   </g>
   <g id="patch_31">
    <path d="M 244.503169 215.1195 
L 251.513573 215.1195 
L 251.513573 213.37641 
L 244.503169 213.37641 
z
" clip-path="url(#p5db9a09275)" style="fill: #ee854a; opacity: 0.85; stroke: #ffffff; stroke-linejoin: miter"/>
   </g>
   <g id="patch_32">
    <path d="M 251.513573 215.1195 
L 258.523977 215.1195 
L 258.523977 209.890229 
L 251.513573 209.890229 
z
" clip-path="url(#p5db9a09275)" style="fill: #ee854a; opacity: 0.85; stroke: #ffffff; stroke-linejoin: miter"/>
   </g>
   <g id="line2d_13">
    <path d="M 169.924811 215.1195 
L 169.924811 35.7555 
" clip-path="url(#p5db9a09275)" style="fill: none; stroke: #d65f5f; stroke-width: 2; stroke-linecap: round"/>
   </g>
   <g id="patch_33">
    <path d="M 37.69625 215.1195 
L 37.69625 35.7555 
" style="fill: none; stroke: #cccccc; stroke-width: 1.25; stroke-linejoin: miter; stroke-linecap: square"/>
   </g>
   <g id="patch_34">
    <path d="M 269.039583 215.1195 
L 269.039583 35.7555 
" style="fill: none; stroke: #cccccc; stroke-width: 1.25; stroke-linejoin: miter; stroke-linecap: square"/>
   </g>
   <g id="patch_35">
    <path d="M 37.69625 215.1195 
L 269.039583 215.1195 
" style="fill: none; stroke: #cccccc; stroke-width: 1.25; stroke-linejoin: miter; stroke-linecap: square"/>
   </g>
   <g id="patch_36">
    <path d="M 37.69625 35.7555 
L 269.039583 35.7555 
" style="fill: none; stroke: #cccccc; stroke-width: 1.25; stroke-linejoin: miter; stroke-linecap: square"/>
   </g>
   <g id="text_14">
    <!-- True distribution -->
    <g style="fill: #262626" transform="translate(104.528854 16.318125) scale(0.12 -0.12)">
     <defs>
      <path id="DejaVuSans-54" d="M -19 4666 
L 3928 4666 
L 3928 4134 
L 2272 4134 
L 2272 0 
L 1638 0 
L 1638 4134 
L -19 4134 
L -19 4666 
z
" transform="scale(0.015625)"/>
      <path id="DejaVuSans-72" d="M 2631 2963 
Q 2534 3019 2420 3045 
Q 2306 3072 2169 3072 
Q 1681 3072 1420 2755 
Q 1159 2438 1159 1844 
L 1159 0 
L 581 0 
L 581 3500 
L 1159 3500 
L 1159 2956 
Q 1341 3275 1631 3429 
Q 1922 3584 2338 3584 
Q 2397 3584 2469 3576 
Q 2541 3569 2628 3553 
L 2631 2963 
z
" transform="scale(0.015625)"/>
      <path id="DejaVuSans-75" d="M 544 1381 
L 544 3500 
L 1119 3500 
L 1119 1403 
Q 1119 906 1312 657 
Q 1506 409 1894 409 
Q 2359 409 2629 706 
Q 2900 1003 2900 1516 
L 2900 3500 
L 3475 3500 
L 3475 0 
L 2900 0 
L 2900 538 
Q 2691 219 2414 64 
Q 2138 -91 1772 -91 
Q 1169 -91 856 284 
Q 544 659 544 1381 
z
M 1991 3584 
L 1991 3584 
z
" transform="scale(0.015625)"/>
      <path id="DejaVuSans-65" d="M 3597 1894 
L 3597 1613 
L 953 1613 
Q 991 1019 1311 708 
Q 1631 397 2203 397 
Q 2534 397 2845 478 
Q 3156 559 3463 722 
L 3463 178 
Q 3153 47 2828 -22 
Q 2503 -91 2169 -91 
Q 1331 -91 842 396 
Q 353 884 353 1716 
Q 353 2575 817 3079 
Q 1281 3584 2069 3584 
Q 2775 3584 3186 3129 
Q 3597 2675 3597 1894 
z
M 3022 2063 
Q 3016 2534 2758 2815 
Q 2500 3097 2075 3097 
Q 1594 3097 1305 2825 
Q 1016 2553 972 2059 
L 3022 2063 
z
" transform="scale(0.015625)"/>
      <path id="DejaVuSans-20" transform="scale(0.015625)"/>
      <path id="DejaVuSans-64" d="M 2906 2969 
L 2906 4863 
L 3481 4863 
L 3481 0 
L 2906 0 
L 2906 525 
Q 2725 213 2448 61 
Q 2172 -91 1784 -91 
Q 1150 -91 751 415 
Q 353 922 353 1747 
Q 353 2572 751 3078 
Q 1150 3584 1784 3584 
Q 2172 3584 2448 3432 
Q 2725 3281 2906 2969 
z
M 947 1747 
Q 947 1113 1208 752 
Q 1469 391 1925 391 
Q 2381 391 2643 752 
Q 2906 1113 2906 1747 
Q 2906 2381 2643 2742 
Q 2381 3103 1925 3103 
Q 1469 3103 1208 2742 
Q 947 2381 947 1747 
z
" transform="scale(0.015625)"/>
      <path id="DejaVuSans-69" d="M 603 3500 
L 1178 3500 
L 1178 0 
L 603 0 
L 603 3500 
z
M 603 4863 
L 1178 4863 
L 1178 4134 
L 603 4134 
L 603 4863 
z
" transform="scale(0.015625)"/>
      <path id="DejaVuSans-73" d="M 2834 3397 
L 2834 2853 
Q 2591 2978 2328 3040 
Q 2066 3103 1784 3103 
Q 1356 3103 1142 2972 
Q 928 2841 928 2578 
Q 928 2378 1081 2264 
Q 1234 2150 1697 2047 
L 1894 2003 
Q 2506 1872 2764 1633 
Q 3022 1394 3022 966 
Q 3022 478 2636 193 
Q 2250 -91 1575 -91 
Q 1294 -91 989 -36 
Q 684 19 347 128 
L 347 722 
Q 666 556 975 473 
Q 1284 391 1588 391 
Q 1994 391 2212 530 
Q 2431 669 2431 922 
Q 2431 1156 2273 1281 
Q 2116 1406 1581 1522 
L 1381 1569 
Q 847 1681 609 1914 
Q 372 2147 372 2553 
Q 372 3047 722 3315 
Q 1072 3584 1716 3584 
Q 2034 3584 2315 3537 
Q 2597 3491 2834 3397 
z
" transform="scale(0.015625)"/>
      <path id="DejaVuSans-74" d="M 1172 4494 
L 1172 3500 
L 2356 3500 
L 2356 3053 
L 1172 3053 
L 1172 1153 
Q 1172 725 1289 603 
Q 1406 481 1766 481 
L 2356 481 
L 2356 0 
L 1766 0 
Q 1100 0 847 248 
Q 594 497 594 1153 
L 594 3053 
L 172 3053 
L 172 3500 
L 594 3500 
L 594 4494 
L 1172 4494 
z
" transform="scale(0.015625)"/>
      <path id="DejaVuSans-62" d="M 3116 1747 
Q 3116 2381 2855 2742 
Q 2594 3103 2138 3103 
Q 1681 3103 1420 2742 
Q 1159 2381 1159 1747 
Q 1159 1113 1420 752 
Q 1681 391 2138 391 
Q 2594 391 2855 752 
Q 3116 1113 3116 1747 
z
M 1159 2969 
Q 1341 3281 1617 3432 
Q 1894 3584 2278 3584 
Q 2916 3584 3314 3078 
Q 3713 2572 3713 1747 
Q 3713 922 3314 415 
Q 2916 -91 2278 -91 
Q 1894 -91 1617 61 
Q 1341 213 1159 525 
L 1159 0 
L 581 0 
L 581 4863 
L 1159 4863 
L 1159 2969 
z
" transform="scale(0.015625)"/>
      <path id="DejaVuSans-6f" d="M 1959 3097 
Q 1497 3097 1228 2736 
Q 959 2375 959 1747 
Q 959 1119 1226 758 
Q 1494 397 1959 397 
Q 2419 397 2687 759 
Q 2956 1122 2956 1747 
Q 2956 2369 2687 2733 
Q 2419 3097 1959 3097 
z
M 1959 3584 
Q 2709 3584 3137 3096 
Q 3566 2609 3566 1747 
Q 3566 888 3137 398 
Q 2709 -91 1959 -91 
Q 1206 -91 779 398 
Q 353 888 353 1747 
Q 353 2609 779 3096 
Q 1206 3584 1959 3584 
z
" transform="scale(0.015625)"/>
      <path id="DejaVuSans-6e" d="M 3513 2113 
L 3513 0 
L 2938 0 
L 2938 2094 
Q 2938 2591 2744 2837 
Q 2550 3084 2163 3084 
Q 1697 3084 1428 2787 
Q 1159 2491 1159 1978 
L 1159 0 
L 581 0 
L 581 3500 
L 1159 3500 
L 1159 2956 
Q 1366 3272 1645 3428 
Q 1925 3584 2291 3584 
Q 2894 3584 3203 3211 
Q 3513 2838 3513 2113 
z
" transform="scale(0.015625)"/>
     </defs>
     <use xlink:href="#DejaVuSans-54"/>
     <use xlink:href="#DejaVuSans-72" transform="translate(46.333984 0)"/>
     <use xlink:href="#DejaVuSans-75" transform="translate(87.447266 0)"/>
     <use xlink:href="#DejaVuSans-65" transform="translate(150.826172 0)"/>
     <use xlink:href="#DejaVuSans-20" transform="translate(212.349609 0)"/>
     <use xlink:href="#DejaVuSans-64" transform="translate(244.136719 0)"/>
     <use xlink:href="#DejaVuSans-69" transform="translate(307.613281 0)"/>
     <use xlink:href="#DejaVuSans-73" transform="translate(335.396484 0)"/>
     <use xlink:href="#DejaVuSans-74" transform="translate(387.496094 0)"/>
     <use xlink:href="#DejaVuSans-72" transform="translate(426.705078 0)"/>
     <use xlink:href="#DejaVuSans-69" transform="translate(467.818359 0)"/>
     <use xlink:href="#DejaVuSans-62" transform="translate(495.601562 0)"/>
     <use xlink:href="#DejaVuSans-75" transform="translate(559.078125 0)"/>
     <use xlink:href="#DejaVuSans-74" transform="translate(622.457031 0)"/>
     <use xlink:href="#DejaVuSans-69" transform="translate(661.666016 0)"/>
     <use xlink:href="#DejaVuSans-6f" transform="translate(689.449219 0)"/>
     <use xlink:href="#DejaVuSans-6e" transform="translate(750.630859 0)"/>
    </g>
    <!-- (SE = 0.081) -->
    <g style="fill: #262626" transform="translate(115.067292 29.7555) scale(0.12 -0.12)">
     <defs>
      <path id="DejaVuSans-28" d="M 1984 4856 
Q 1566 4138 1362 3434 
Q 1159 2731 1159 2009 
Q 1159 1288 1364 580 
Q 1569 -128 1984 -844 
L 1484 -844 
Q 1016 -109 783 600 
Q 550 1309 550 2009 
Q 550 2706 781 3412 
Q 1013 4119 1484 4856 
L 1984 4856 
z
" transform="scale(0.015625)"/>
      <path id="DejaVuSans-53" d="M 3425 4513 
L 3425 3897 
Q 3066 4069 2747 4153 
Q 2428 4238 2131 4238 
Q 1616 4238 1336 4038 
Q 1056 3838 1056 3469 
Q 1056 3159 1242 3001 
Q 1428 2844 1947 2747 
L 2328 2669 
Q 3034 2534 3370 2195 
Q 3706 1856 3706 1288 
Q 3706 609 3251 259 
Q 2797 -91 1919 -91 
Q 1588 -91 1214 -16 
Q 841 59 441 206 
L 441 856 
Q 825 641 1194 531 
Q 1563 422 1919 422 
Q 2459 422 2753 634 
Q 3047 847 3047 1241 
Q 3047 1584 2836 1778 
Q 2625 1972 2144 2069 
L 1759 2144 
Q 1053 2284 737 2584 
Q 422 2884 422 3419 
Q 422 4038 858 4394 
Q 1294 4750 2059 4750 
Q 2388 4750 2728 4690 
Q 3069 4631 3425 4513 
z
" transform="scale(0.015625)"/>
      <path id="DejaVuSans-45" d="M 628 4666 
L 3578 4666 
L 3578 4134 
L 1259 4134 
L 1259 2753 
L 3481 2753 
L 3481 2222 
L 1259 2222 
L 1259 531 
L 3634 531 
L 3634 0 
L 628 0 
L 628 4666 
z
" transform="scale(0.015625)"/>
      <path id="DejaVuSans-3d" d="M 678 2906 
L 4684 2906 
L 4684 2381 
L 678 2381 
L 678 2906 
z
M 678 1631 
L 4684 1631 
L 4684 1100 
L 678 1100 
L 678 1631 
z
" transform="scale(0.015625)"/>
      <path id="DejaVuSans-29" d="M 513 4856 
L 1013 4856 
Q 1481 4119 1714 3412 
Q 1947 2706 1947 2009 
Q 1947 1309 1714 600 
Q 1481 -109 1013 -844 
L 513 -844 
Q 928 -128 1133 580 
Q 1338 1288 1338 2009 
Q 1338 2731 1133 3434 
Q 928 4138 513 4856 
z
" transform="scale(0.015625)"/>
     </defs>
     <use xlink:href="#DejaVuSans-28"/>
     <use xlink:href="#DejaVuSans-53" transform="translate(39.013672 0)"/>
     <use xlink:href="#DejaVuSans-45" transform="translate(102.490234 0)"/>
     <use xlink:href="#DejaVuSans-20" transform="translate(165.673828 0)"/>
     <use xlink:href="#DejaVuSans-3d" transform="translate(197.460938 0)"/>
     <use xlink:href="#DejaVuSans-20" transform="translate(281.25 0)"/>
     <use xlink:href="#DejaVuSans-30" transform="translate(313.037109 0)"/>
     <use xlink:href="#DejaVuSans-2e" transform="translate(376.660156 0)"/>
     <use xlink:href="#DejaVuSans-30" transform="translate(408.447266 0)"/>
     <use xlink:href="#DejaVuSans-38" transform="translate(472.070312 0)"/>
     <use xlink:href="#DejaVuSans-31" transform="translate(535.693359 0)"/>
     <use xlink:href="#DejaVuSans-29" transform="translate(599.316406 0)"/>
    </g>
   </g>
   <g id="legend_1">
    <g id="line2d_14">
     <path d="M 174.533958 47.544094 
L 183.533958 47.544094 
L 192.533958 47.544094 
" style="fill: none; stroke: #d65f5f; stroke-width: 2; stroke-linecap: round"/>
    </g>
    <g id="text_15">
     <!-- True α = 0.60 -->
     <g style="fill: #262626" transform="translate(199.733958 50.694094) scale(0.09 -0.09)">
      <use xlink:href="#DejaVuSans-54"/>
      <use xlink:href="#DejaVuSans-72" transform="translate(46.333984 0)"/>
      <use xlink:href="#DejaVuSans-75" transform="translate(87.447266 0)"/>
      <use xlink:href="#DejaVuSans-65" transform="translate(150.826172 0)"/>
      <use xlink:href="#DejaVuSans-20" transform="translate(212.349609 0)"/>
      <use xlink:href="#DejaVuSans-3b1" transform="translate(244.136719 0)"/>
      <use xlink:href="#DejaVuSans-20" transform="translate(310.054688 0)"/>
      <use xlink:href="#DejaVuSans-3d" transform="translate(341.841797 0)"/>
      <use xlink:href="#DejaVuSans-20" transform="translate(425.630859 0)"/>
      <use xlink:href="#DejaVuSans-30" transform="translate(457.417969 0)"/>
      <use xlink:href="#DejaVuSans-2e" transform="translate(521.041016 0)"/>
      <use xlink:href="#DejaVuSans-36" transform="translate(552.828125 0)"/>
      <use xlink:href="#DejaVuSans-30" transform="translate(616.451172 0)"/>
     </g>
    </g>
   </g>
  </g>
  <g id="axes_2">
   <g id="patch_37">
    <path d="M 325.919583 215.1195 
L 557.262917 215.1195 
L 557.262917 35.7555 
L 325.919583 35.7555 
z
" style="fill: #ffffff"/>
   </g>
   <g id="matplotlib.axis_3">
    <g id="xtick_7">
     <g id="line2d_15">
      <path d="M 343.709037 215.1195 
L 343.709037 35.7555 
" clip-path="url(#p36501e4e68)" style="fill: none; stroke: #cccccc; stroke-linecap: round"/>
     </g>
     <g id="text_16">
      <!-- 0.4 -->
      <g style="fill: #262626" transform="translate(334.962318 232.977781) scale(0.11 -0.11)">
       <use xlink:href="#DejaVuSans-30"/>
       <use xlink:href="#DejaVuSans-2e" transform="translate(63.623047 0)"/>
       <use xlink:href="#DejaVuSans-34" transform="translate(95.410156 0)"/>
      </g>
     </g>
    </g>
    <g id="xtick_8">
     <g id="line2d_16">
      <path d="M 390.524216 215.1195 
L 390.524216 35.7555 
" clip-path="url(#p36501e4e68)" style="fill: none; stroke: #cccccc; stroke-linecap: round"/>
     </g>
     <g id="text_17">
      <!-- 0.5 -->
      <g style="fill: #262626" transform="translate(381.777497 232.977781) scale(0.11 -0.11)">
       <use xlink:href="#DejaVuSans-30"/>
       <use xlink:href="#DejaVuSans-2e" transform="translate(63.623047 0)"/>
       <use xlink:href="#DejaVuSans-35" transform="translate(95.410156 0)"/>
      </g>
     </g>
    </g>
    <g id="xtick_9">
     <g id="line2d_17">
      <path d="M 437.339395 215.1195 
L 437.339395 35.7555 
" clip-path="url(#p36501e4e68)" style="fill: none; stroke: #cccccc; stroke-linecap: round"/>
     </g>
     <g id="text_18">
      <!-- 0.6 -->
      <g style="fill: #262626" transform="translate(428.592676 232.977781) scale(0.11 -0.11)">
       <use xlink:href="#DejaVuSans-30"/>
       <use xlink:href="#DejaVuSans-2e" transform="translate(63.623047 0)"/>
       <use xlink:href="#DejaVuSans-36" transform="translate(95.410156 0)"/>
      </g>
     </g>
    </g>
    <g id="xtick_10">
     <g id="line2d_18">
      <path d="M 484.154574 215.1195 
L 484.154574 35.7555 
" clip-path="url(#p36501e4e68)" style="fill: none; stroke: #cccccc; stroke-linecap: round"/>
     </g>
     <g id="text_19">
      <!-- 0.7 -->
      <g style="fill: #262626" transform="translate(475.407855 232.977781) scale(0.11 -0.11)">
       <use xlink:href="#DejaVuSans-30"/>
       <use xlink:href="#DejaVuSans-2e" transform="translate(63.623047 0)"/>
       <use xlink:href="#DejaVuSans-37" transform="translate(95.410156 0)"/>
      </g>
     </g>
    </g>
    <g id="xtick_11">
     <g id="line2d_19">
      <path d="M 530.969752 215.1195 
L 530.969752 35.7555 
" clip-path="url(#p36501e4e68)" style="fill: none; stroke: #cccccc; stroke-linecap: round"/>
     </g>
     <g id="text_20">
      <!-- 0.8 -->
      <g style="fill: #262626" transform="translate(522.223034 232.977781) scale(0.11 -0.11)">
       <use xlink:href="#DejaVuSans-30"/>
       <use xlink:href="#DejaVuSans-2e" transform="translate(63.623047 0)"/>
       <use xlink:href="#DejaVuSans-38" transform="translate(95.410156 0)"/>
      </g>
     </g>
    </g>
    <g id="text_21">
     <!-- α̂* -->
     <g style="fill: #262626" transform="translate(434.635938 248.383562) scale(0.12 -0.12)">
      <defs>
       <path id="DejaVuSans-2a" d="M 3009 3897 
L 1888 3291 
L 3009 2681 
L 2828 2375 
L 1778 3009 
L 1778 1831 
L 1422 1831 
L 1422 3009 
L 372 2375 
L 191 2681 
L 1313 3291 
L 191 3897 
L 372 4206 
L 1422 3572 
L 1422 4750 
L 1778 4750 
L 1778 3572 
L 2828 4206 
L 3009 3897 
z
" transform="scale(0.015625)"/>
      </defs>
      <use xlink:href="#DejaVuSans-3b1"/>
      <use xlink:href="#DejaVuSans-302" transform="translate(65.917969 0)"/>
      <use xlink:href="#DejaVuSans-2a" transform="translate(65.917969 0)"/>
     </g>
    </g>
   </g>
   <g id="matplotlib.axis_4">
    <g id="ytick_7">
     <g id="line2d_20">
      <path d="M 325.919583 215.1195 
L 557.262917 215.1195 
" clip-path="url(#p36501e4e68)" style="fill: none; stroke: #cccccc; stroke-linecap: round"/>
     </g>
     <g id="text_22">
      <!-- 0 -->
      <g style="fill: #262626" transform="translate(309.420833 219.298641) scale(0.11 -0.11)">
       <use xlink:href="#DejaVuSans-30"/>
      </g>
     </g>
    </g>
    <g id="ytick_8">
     <g id="line2d_21">
      <path d="M 325.919583 173.957366 
L 557.262917 173.957366 
" clip-path="url(#p36501e4e68)" style="fill: none; stroke: #cccccc; stroke-linecap: round"/>
     </g>
     <g id="text_23">
      <!-- 20 -->
      <g style="fill: #262626" transform="translate(302.422083 178.136506) scale(0.11 -0.11)">
       <use xlink:href="#DejaVuSans-32"/>
       <use xlink:href="#DejaVuSans-30" transform="translate(63.623047 0)"/>
      </g>
     </g>
    </g>
    <g id="ytick_9">
     <g id="line2d_22">
      <path d="M 325.919583 132.795231 
L 557.262917 132.795231 
" clip-path="url(#p36501e4e68)" style="fill: none; stroke: #cccccc; stroke-linecap: round"/>
     </g>
     <g id="text_24">
      <!-- 40 -->
      <g style="fill: #262626" transform="translate(302.422083 136.974372) scale(0.11 -0.11)">
       <use xlink:href="#DejaVuSans-34"/>
       <use xlink:href="#DejaVuSans-30" transform="translate(63.623047 0)"/>
      </g>
     </g>
    </g>
    <g id="ytick_10">
     <g id="line2d_23">
      <path d="M 325.919583 91.633097 
L 557.262917 91.633097 
" clip-path="url(#p36501e4e68)" style="fill: none; stroke: #cccccc; stroke-linecap: round"/>
     </g>
     <g id="text_25">
      <!-- 60 -->
      <g style="fill: #262626" transform="translate(302.422083 95.812238) scale(0.11 -0.11)">
       <use xlink:href="#DejaVuSans-36"/>
       <use xlink:href="#DejaVuSans-30" transform="translate(63.623047 0)"/>
      </g>
     </g>
    </g>
    <g id="ytick_11">
     <g id="line2d_24">
      <path d="M 325.919583 50.470963 
L 557.262917 50.470963 
" clip-path="url(#p36501e4e68)" style="fill: none; stroke: #cccccc; stroke-linecap: round"/>
     </g>
     <g id="text_26">
      <!-- 80 -->
      <g style="fill: #262626" transform="translate(302.422083 54.650104) scale(0.11 -0.11)">
       <use xlink:href="#DejaVuSans-38"/>
       <use xlink:href="#DejaVuSans-30" transform="translate(63.623047 0)"/>
      </g>
     </g>
    </g>
   </g>
   <g id="patch_38">
    <path d="M 336.435189 215.1195 
L 343.445593 215.1195 
L 343.445593 211.003287 
L 336.435189 211.003287 
z
" clip-path="url(#p36501e4e68)" style="fill: #4878d0; opacity: 0.85; stroke: #ffffff; stroke-linejoin: miter"/>
   </g>
   <g id="patch_39">
    <path d="M 343.445593 215.1195 
L 350.455997 215.1195 
L 350.455997 208.94518 
L 343.445593 208.94518 
z
" clip-path="url(#p36501e4e68)" style="fill: #4878d0; opacity: 0.85; stroke: #ffffff; stroke-linejoin: miter"/>
   </g>
   <g id="patch_40">
    <path d="M 350.455997 215.1195 
L 357.466402 215.1195 
L 357.466402 206.887073 
L 350.455997 206.887073 
z
" clip-path="url(#p36501e4e68)" style="fill: #4878d0; opacity: 0.85; stroke: #ffffff; stroke-linejoin: miter"/>
   </g>
   <g id="patch_41">
    <path d="M 357.466402 215.1195 
L 364.476806 215.1195 
L 364.476806 213.061393 
L 357.466402 213.061393 
z
" clip-path="url(#p36501e4e68)" style="fill: #4878d0; opacity: 0.85; stroke: #ffffff; stroke-linejoin: miter"/>
   </g>
   <g id="patch_42">
    <path d="M 364.476806 215.1195 
L 371.48721 215.1195 
L 371.48721 194.538433 
L 364.476806 194.538433 
z
" clip-path="url(#p36501e4e68)" style="fill: #4878d0; opacity: 0.85; stroke: #ffffff; stroke-linejoin: miter"/>
   </g>
   <g id="patch_43">
    <path d="M 371.48721 215.1195 
L 378.497614 215.1195 
L 378.497614 192.480326 
L 371.48721 192.480326 
z
" clip-path="url(#p36501e4e68)" style="fill: #4878d0; opacity: 0.85; stroke: #ffffff; stroke-linejoin: miter"/>
   </g>
   <g id="patch_44">
    <path d="M 378.497614 215.1195 
L 385.508018 215.1195 
L 385.508018 176.015472 
L 378.497614 176.015472 
z
" clip-path="url(#p36501e4e68)" style="fill: #4878d0; opacity: 0.85; stroke: #ffffff; stroke-linejoin: miter"/>
   </g>
   <g id="patch_45">
    <path d="M 385.508018 215.1195 
L 392.518422 215.1195 
L 392.518422 167.783046 
L 385.508018 167.783046 
z
" clip-path="url(#p36501e4e68)" style="fill: #4878d0; opacity: 0.85; stroke: #ffffff; stroke-linejoin: miter"/>
   </g>
   <g id="patch_46">
    <path d="M 392.518422 215.1195 
L 399.528826 215.1195 
L 399.528826 151.318192 
L 392.518422 151.318192 
z
" clip-path="url(#p36501e4e68)" style="fill: #4878d0; opacity: 0.85; stroke: #ffffff; stroke-linejoin: miter"/>
   </g>
   <g id="patch_47">
    <path d="M 399.528826 215.1195 
L 406.53923 215.1195 
L 406.53923 114.272271 
L 399.528826 114.272271 
z
" clip-path="url(#p36501e4e68)" style="fill: #4878d0; opacity: 0.85; stroke: #ffffff; stroke-linejoin: miter"/>
   </g>
   <g id="patch_48">
    <path d="M 406.53923 215.1195 
L 413.549634 215.1195 
L 413.549634 99.865524 
L 406.53923 99.865524 
z
" clip-path="url(#p36501e4e68)" style="fill: #4878d0; opacity: 0.85; stroke: #ffffff; stroke-linejoin: miter"/>
   </g>
   <g id="patch_49">
    <path d="M 413.549634 215.1195 
L 420.560038 215.1195 
L 420.560038 103.981738 
L 413.549634 103.981738 
z
" clip-path="url(#p36501e4e68)" style="fill: #4878d0; opacity: 0.85; stroke: #ffffff; stroke-linejoin: miter"/>
   </g>
   <g id="patch_50">
    <path d="M 420.560038 215.1195 
L 427.570442 215.1195 
L 427.570442 60.761497 
L 420.560038 60.761497 
z
" clip-path="url(#p36501e4e68)" style="fill: #4878d0; opacity: 0.85; stroke: #ffffff; stroke-linejoin: miter"/>
   </g>
   <g id="patch_51">
    <path d="M 427.570442 215.1195 
L 434.580846 215.1195 
L 434.580846 48.412856 
L 427.570442 48.412856 
z
" clip-path="url(#p36501e4e68)" style="fill: #4878d0; opacity: 0.85; stroke: #ffffff; stroke-linejoin: miter"/>
   </g>
   <g id="patch_52">
    <path d="M 434.580846 215.1195 
L 441.59125 215.1195 
L 441.59125 60.761497 
L 434.580846 60.761497 
z
" clip-path="url(#p36501e4e68)" style="fill: #4878d0; opacity: 0.85; stroke: #ffffff; stroke-linejoin: miter"/>
   </g>
   <g id="patch_53">
    <path d="M 441.59125 215.1195 
L 448.601654 215.1195 
L 448.601654 54.587176 
L 441.59125 54.587176 
z
" clip-path="url(#p36501e4e68)" style="fill: #4878d0; opacity: 0.85; stroke: #ffffff; stroke-linejoin: miter"/>
   </g>
   <g id="patch_54">
    <path d="M 448.601654 215.1195 
L 455.612058 215.1195 
L 455.612058 71.05203 
L 448.601654 71.05203 
z
" clip-path="url(#p36501e4e68)" style="fill: #4878d0; opacity: 0.85; stroke: #ffffff; stroke-linejoin: miter"/>
   </g>
   <g id="patch_55">
    <path d="M 455.612058 215.1195 
L 462.622462 215.1195 
L 462.622462 44.296643 
L 455.612058 44.296643 
z
" clip-path="url(#p36501e4e68)" style="fill: #4878d0; opacity: 0.85; stroke: #ffffff; stroke-linejoin: miter"/>
   </g>
   <g id="patch_56">
    <path d="M 462.622462 215.1195 
L 469.632866 215.1195 
L 469.632866 62.819603 
L 462.622462 62.819603 
z
" clip-path="url(#p36501e4e68)" style="fill: #4878d0; opacity: 0.85; stroke: #ffffff; stroke-linejoin: miter"/>
   </g>
   <g id="patch_57">
    <path d="M 469.632866 215.1195 
L 476.64327 215.1195 
L 476.64327 112.214164 
L 469.632866 112.214164 
z
" clip-path="url(#p36501e4e68)" style="fill: #4878d0; opacity: 0.85; stroke: #ffffff; stroke-linejoin: miter"/>
   </g>
   <g id="patch_58">
    <path d="M 476.64327 215.1195 
L 483.653674 215.1195 
L 483.653674 118.388485 
L 476.64327 118.388485 
z
" clip-path="url(#p36501e4e68)" style="fill: #4878d0; opacity: 0.85; stroke: #ffffff; stroke-linejoin: miter"/>
   </g>
   <g id="patch_59">
    <path d="M 483.653674 215.1195 
L 490.664078 215.1195 
L 490.664078 167.783046 
L 483.653674 167.783046 
z
" clip-path="url(#p36501e4e68)" style="fill: #4878d0; opacity: 0.85; stroke: #ffffff; stroke-linejoin: miter"/>
   </g>
   <g id="patch_60">
    <path d="M 490.664078 215.1195 
L 497.674482 215.1195 
L 497.674482 155.434405 
L 490.664078 155.434405 
z
" clip-path="url(#p36501e4e68)" style="fill: #4878d0; opacity: 0.85; stroke: #ffffff; stroke-linejoin: miter"/>
   </g>
   <g id="patch_61">
    <path d="M 497.674482 215.1195 
L 504.684886 215.1195 
L 504.684886 192.480326 
L 497.674482 192.480326 
z
" clip-path="url(#p36501e4e68)" style="fill: #4878d0; opacity: 0.85; stroke: #ffffff; stroke-linejoin: miter"/>
   </g>
   <g id="patch_62">
    <path d="M 504.684886 215.1195 
L 511.69529 215.1195 
L 511.69529 178.073579 
L 504.684886 178.073579 
z
" clip-path="url(#p36501e4e68)" style="fill: #4878d0; opacity: 0.85; stroke: #ffffff; stroke-linejoin: miter"/>
   </g>
   <g id="patch_63">
    <path d="M 511.69529 215.1195 
L 518.705694 215.1195 
L 518.705694 196.59654 
L 511.69529 196.59654 
z
" clip-path="url(#p36501e4e68)" style="fill: #4878d0; opacity: 0.85; stroke: #ffffff; stroke-linejoin: miter"/>
   </g>
   <g id="patch_64">
    <path d="M 518.705694 215.1195 
L 525.716098 215.1195 
L 525.716098 213.061393 
L 518.705694 213.061393 
z
" clip-path="url(#p36501e4e68)" style="fill: #4878d0; opacity: 0.85; stroke: #ffffff; stroke-linejoin: miter"/>
   </g>
   <g id="patch_65">
    <path d="M 525.716098 215.1195 
L 532.726503 215.1195 
L 532.726503 200.712753 
L 525.716098 200.712753 
z
" clip-path="url(#p36501e4e68)" style="fill: #4878d0; opacity: 0.85; stroke: #ffffff; stroke-linejoin: miter"/>
   </g>
   <g id="patch_66">
    <path d="M 532.726503 215.1195 
L 539.736907 215.1195 
L 539.736907 211.003287 
L 532.726503 211.003287 
z
" clip-path="url(#p36501e4e68)" style="fill: #4878d0; opacity: 0.85; stroke: #ffffff; stroke-linejoin: miter"/>
   </g>
   <g id="patch_67">
    <path d="M 539.736907 215.1195 
L 546.747311 215.1195 
L 546.747311 206.887073 
L 539.736907 206.887073 
z
" clip-path="url(#p36501e4e68)" style="fill: #4878d0; opacity: 0.85; stroke: #ffffff; stroke-linejoin: miter"/>
   </g>
   <g id="line2d_25">
    <path d="M 437.339395 215.1195 
L 437.339395 35.7555 
" clip-path="url(#p36501e4e68)" style="fill: none; stroke: #d65f5f; stroke-width: 2; stroke-linecap: round"/>
   </g>
   <g id="patch_68">
    <path d="M 325.919583 215.1195 
L 325.919583 35.7555 
" style="fill: none; stroke: #cccccc; stroke-width: 1.25; stroke-linejoin: miter; stroke-linecap: square"/>
   </g>
   <g id="patch_69">
    <path d="M 557.262917 215.1195 
L 557.262917 35.7555 
" style="fill: none; stroke: #cccccc; stroke-width: 1.25; stroke-linejoin: miter; stroke-linecap: square"/>
   </g>
   <g id="patch_70">
    <path d="M 325.919583 215.1195 
L 557.262917 215.1195 
" style="fill: none; stroke: #cccccc; stroke-width: 1.25; stroke-linejoin: miter; stroke-linecap: square"/>
   </g>
   <g id="patch_71">
    <path d="M 325.919583 35.7555 
L 557.262917 35.7555 
" style="fill: none; stroke: #cccccc; stroke-width: 1.25; stroke-linejoin: miter; stroke-linecap: square"/>
   </g>
   <g id="text_27">
    <!-- Bootstrap distribution -->
    <g style="fill: #262626" transform="translate(376.25125 16.318125) scale(0.12 -0.12)">
     <defs>
      <path id="DejaVuSans-42" d="M 1259 2228 
L 1259 519 
L 2272 519 
Q 2781 519 3026 730 
Q 3272 941 3272 1375 
Q 3272 1813 3026 2020 
Q 2781 2228 2272 2228 
L 1259 2228 
z
M 1259 4147 
L 1259 2741 
L 2194 2741 
Q 2656 2741 2882 2914 
Q 3109 3088 3109 3444 
Q 3109 3797 2882 3972 
Q 2656 4147 2194 4147 
L 1259 4147 
z
M 628 4666 
L 2241 4666 
Q 2963 4666 3353 4366 
Q 3744 4066 3744 3513 
Q 3744 3084 3544 2831 
Q 3344 2578 2956 2516 
Q 3422 2416 3680 2098 
Q 3938 1781 3938 1306 
Q 3938 681 3513 340 
Q 3088 0 2303 0 
L 628 0 
L 628 4666 
z
" transform="scale(0.015625)"/>
      <path id="DejaVuSans-61" d="M 2194 1759 
Q 1497 1759 1228 1600 
Q 959 1441 959 1056 
Q 959 750 1161 570 
Q 1363 391 1709 391 
Q 2188 391 2477 730 
Q 2766 1069 2766 1631 
L 2766 1759 
L 2194 1759 
z
M 3341 1997 
L 3341 0 
L 2766 0 
L 2766 531 
Q 2569 213 2275 61 
Q 1981 -91 1556 -91 
Q 1019 -91 701 211 
Q 384 513 384 1019 
Q 384 1609 779 1909 
Q 1175 2209 1959 2209 
L 2766 2209 
L 2766 2266 
Q 2766 2663 2505 2880 
Q 2244 3097 1772 3097 
Q 1472 3097 1187 3025 
Q 903 2953 641 2809 
L 641 3341 
Q 956 3463 1253 3523 
Q 1550 3584 1831 3584 
Q 2591 3584 2966 3190 
Q 3341 2797 3341 1997 
z
" transform="scale(0.015625)"/>
      <path id="DejaVuSans-70" d="M 1159 525 
L 1159 -1331 
L 581 -1331 
L 581 3500 
L 1159 3500 
L 1159 2969 
Q 1341 3281 1617 3432 
Q 1894 3584 2278 3584 
Q 2916 3584 3314 3078 
Q 3713 2572 3713 1747 
Q 3713 922 3314 415 
Q 2916 -91 2278 -91 
Q 1894 -91 1617 61 
Q 1341 213 1159 525 
z
M 3116 1747 
Q 3116 2381 2855 2742 
Q 2594 3103 2138 3103 
Q 1681 3103 1420 2742 
Q 1159 2381 1159 1747 
Q 1159 1113 1420 752 
Q 1681 391 2138 391 
Q 2594 391 2855 752 
Q 3116 1113 3116 1747 
z
" transform="scale(0.015625)"/>
     </defs>
     <use xlink:href="#DejaVuSans-42"/>
     <use xlink:href="#DejaVuSans-6f" transform="translate(68.603516 0)"/>
     <use xlink:href="#DejaVuSans-6f" transform="translate(129.785156 0)"/>
     <use xlink:href="#DejaVuSans-74" transform="translate(190.966797 0)"/>
     <use xlink:href="#DejaVuSans-73" transform="translate(230.175781 0)"/>
     <use xlink:href="#DejaVuSans-74" transform="translate(282.275391 0)"/>
     <use xlink:href="#DejaVuSans-72" transform="translate(321.484375 0)"/>
     <use xlink:href="#DejaVuSans-61" transform="translate(362.597656 0)"/>
     <use xlink:href="#DejaVuSans-70" transform="translate(423.876953 0)"/>
     <use xlink:href="#DejaVuSans-20" transform="translate(487.353516 0)"/>
     <use xlink:href="#DejaVuSans-64" transform="translate(519.140625 0)"/>
     <use xlink:href="#DejaVuSans-69" transform="translate(582.617188 0)"/>
     <use xlink:href="#DejaVuSans-73" transform="translate(610.400391 0)"/>
     <use xlink:href="#DejaVuSans-74" transform="translate(662.5 0)"/>
     <use xlink:href="#DejaVuSans-72" transform="translate(701.708984 0)"/>
     <use xlink:href="#DejaVuSans-69" transform="translate(742.822266 0)"/>
     <use xlink:href="#DejaVuSans-62" transform="translate(770.605469 0)"/>
     <use xlink:href="#DejaVuSans-75" transform="translate(834.082031 0)"/>
     <use xlink:href="#DejaVuSans-74" transform="translate(897.460938 0)"/>
     <use xlink:href="#DejaVuSans-69" transform="translate(936.669922 0)"/>
     <use xlink:href="#DejaVuSans-6f" transform="translate(964.453125 0)"/>
     <use xlink:href="#DejaVuSans-6e" transform="translate(1025.634766 0)"/>
    </g>
    <!-- (SE = 0.074) -->
    <g style="fill: #262626" transform="translate(403.290625 29.7555) scale(0.12 -0.12)">
     <use xlink:href="#DejaVuSans-28"/>
     <use xlink:href="#DejaVuSans-53" transform="translate(39.013672 0)"/>
     <use xlink:href="#DejaVuSans-45" transform="translate(102.490234 0)"/>
     <use xlink:href="#DejaVuSans-20" transform="translate(165.673828 0)"/>
     <use xlink:href="#DejaVuSans-3d" transform="translate(197.460938 0)"/>
     <use xlink:href="#DejaVuSans-20" transform="translate(281.25 0)"/>
     <use xlink:href="#DejaVuSans-30" transform="translate(313.037109 0)"/>
     <use xlink:href="#DejaVuSans-2e" transform="translate(376.660156 0)"/>
     <use xlink:href="#DejaVuSans-30" transform="translate(408.447266 0)"/>
     <use xlink:href="#DejaVuSans-37" transform="translate(472.070312 0)"/>
     <use xlink:href="#DejaVuSans-34" transform="translate(535.693359 0)"/>
     <use xlink:href="#DejaVuSans-29" transform="translate(599.316406 0)"/>
    </g>
   </g>
   <g id="legend_2">
    <g id="line2d_26">
     <path d="M 334.019583 47.544094 
L 343.019583 47.544094 
L 352.019583 47.544094 
" style="fill: none; stroke: #d65f5f; stroke-width: 2; stroke-linecap: round"/>
    </g>
    <g id="text_28">
     <!-- True α = 0.60 -->
     <g style="fill: #262626" transform="translate(359.219583 50.694094) scale(0.09 -0.09)">
      <use xlink:href="#DejaVuSans-54"/>
      <use xlink:href="#DejaVuSans-72" transform="translate(46.333984 0)"/>
      <use xlink:href="#DejaVuSans-75" transform="translate(87.447266 0)"/>
      <use xlink:href="#DejaVuSans-65" transform="translate(150.826172 0)"/>
      <use xlink:href="#DejaVuSans-20" transform="translate(212.349609 0)"/>
      <use xlink:href="#DejaVuSans-3b1" transform="translate(244.136719 0)"/>
      <use xlink:href="#DejaVuSans-20" transform="translate(310.054688 0)"/>
      <use xlink:href="#DejaVuSans-3d" transform="translate(341.841797 0)"/>
      <use xlink:href="#DejaVuSans-20" transform="translate(425.630859 0)"/>
      <use xlink:href="#DejaVuSans-30" transform="translate(457.417969 0)"/>
      <use xlink:href="#DejaVuSans-2e" transform="translate(521.041016 0)"/>
      <use xlink:href="#DejaVuSans-36" transform="translate(552.828125 0)"/>
      <use xlink:href="#DejaVuSans-30" transform="translate(616.451172 0)"/>
     </g>
    </g>
   </g>
  </g>
  <g id="axes_3">
   <g id="patch_72">
    <path d="M 614.142917 215.1195 
L 845.48625 215.1195 
L 845.48625 35.7555 
L 614.142917 35.7555 
z
" style="fill: #ffffff"/>
   </g>
   <g id="matplotlib.axis_5">
    <g id="xtick_12">
     <g id="line2d_27">
      <path d="M 671.97875 215.1195 
L 671.97875 35.7555 
" clip-path="url(#p75077a90d9)" style="fill: none; stroke: #cccccc; stroke-linecap: round"/>
     </g>
     <g id="text_29">
      <!-- True -->
      <g style="fill: #262626" transform="translate(660.299844 232.977781) scale(0.11 -0.11)">
       <use xlink:href="#DejaVuSans-54"/>
       <use xlink:href="#DejaVuSans-72" transform="translate(46.333984 0)"/>
       <use xlink:href="#DejaVuSans-75" transform="translate(87.447266 0)"/>
       <use xlink:href="#DejaVuSans-65" transform="translate(150.826172 0)"/>
      </g>
     </g>
    </g>
    <g id="xtick_13">
     <g id="line2d_28">
      <path d="M 787.650417 215.1195 
L 787.650417 35.7555 
" clip-path="url(#p75077a90d9)" style="fill: none; stroke: #cccccc; stroke-linecap: round"/>
     </g>
     <g id="text_30">
      <!-- Bootstrap -->
      <g style="fill: #262626" transform="translate(760.845651 232.977781) scale(0.11 -0.11)">
       <use xlink:href="#DejaVuSans-42"/>
       <use xlink:href="#DejaVuSans-6f" transform="translate(68.603516 0)"/>
       <use xlink:href="#DejaVuSans-6f" transform="translate(129.785156 0)"/>
       <use xlink:href="#DejaVuSans-74" transform="translate(190.966797 0)"/>
       <use xlink:href="#DejaVuSans-73" transform="translate(230.175781 0)"/>
       <use xlink:href="#DejaVuSans-74" transform="translate(282.275391 0)"/>
       <use xlink:href="#DejaVuSans-72" transform="translate(321.484375 0)"/>
       <use xlink:href="#DejaVuSans-61" transform="translate(362.597656 0)"/>
       <use xlink:href="#DejaVuSans-70" transform="translate(423.876953 0)"/>
      </g>
     </g>
    </g>
   </g>
   <g id="matplotlib.axis_6">
    <g id="ytick_12">
     <g id="line2d_29">
      <path d="M 614.142917 198.570901 
L 845.48625 198.570901 
" clip-path="url(#p75077a90d9)" style="fill: none; stroke: #cccccc; stroke-linecap: round"/>
     </g>
     <g id="text_31">
      <!-- 0.3 -->
      <g style="fill: #262626" transform="translate(587.149479 202.750041) scale(0.11 -0.11)">
       <use xlink:href="#DejaVuSans-30"/>
       <use xlink:href="#DejaVuSans-2e" transform="translate(63.623047 0)"/>
       <use xlink:href="#DejaVuSans-33" transform="translate(95.410156 0)"/>
      </g>
     </g>
    </g>
    <g id="ytick_13">
     <g id="line2d_30">
      <path d="M 614.142917 169.914163 
L 845.48625 169.914163 
" clip-path="url(#p75077a90d9)" style="fill: none; stroke: #cccccc; stroke-linecap: round"/>
     </g>
     <g id="text_32">
      <!-- 0.4 -->
      <g style="fill: #262626" transform="translate(587.149479 174.093304) scale(0.11 -0.11)">
       <use xlink:href="#DejaVuSans-30"/>
       <use xlink:href="#DejaVuSans-2e" transform="translate(63.623047 0)"/>
       <use xlink:href="#DejaVuSans-34" transform="translate(95.410156 0)"/>
      </g>
     </g>
    </g>
    <g id="ytick_14">
     <g id="line2d_31">
      <path d="M 614.142917 141.257426 
L 845.48625 141.257426 
" clip-path="url(#p75077a90d9)" style="fill: none; stroke: #cccccc; stroke-linecap: round"/>
     </g>
     <g id="text_33">
      <!-- 0.5 -->
      <g style="fill: #262626" transform="translate(587.149479 145.436566) scale(0.11 -0.11)">
       <use xlink:href="#DejaVuSans-30"/>
       <use xlink:href="#DejaVuSans-2e" transform="translate(63.623047 0)"/>
       <use xlink:href="#DejaVuSans-35" transform="translate(95.410156 0)"/>
      </g>
     </g>
    </g>
    <g id="ytick_15">
     <g id="line2d_32">
      <path d="M 614.142917 112.600688 
L 845.48625 112.600688 
" clip-path="url(#p75077a90d9)" style="fill: none; stroke: #cccccc; stroke-linecap: round"/>
     </g>
     <g id="text_34">
      <!-- 0.6 -->
      <g style="fill: #262626" transform="translate(587.149479 116.779829) scale(0.11 -0.11)">
       <use xlink:href="#DejaVuSans-30"/>
       <use xlink:href="#DejaVuSans-2e" transform="translate(63.623047 0)"/>
       <use xlink:href="#DejaVuSans-36" transform="translate(95.410156 0)"/>
      </g>
     </g>
    </g>
    <g id="ytick_16">
     <g id="line2d_33">
      <path d="M 614.142917 83.943951 
L 845.48625 83.943951 
" clip-path="url(#p75077a90d9)" style="fill: none; stroke: #cccccc; stroke-linecap: round"/>
     </g>
     <g id="text_35">
      <!-- 0.7 -->
      <g style="fill: #262626" transform="translate(587.149479 88.123091) scale(0.11 -0.11)">
       <use xlink:href="#DejaVuSans-30"/>
       <use xlink:href="#DejaVuSans-2e" transform="translate(63.623047 0)"/>
       <use xlink:href="#DejaVuSans-37" transform="translate(95.410156 0)"/>
      </g>
     </g>
    </g>
    <g id="ytick_17">
     <g id="line2d_34">
      <path d="M 614.142917 55.287213 
L 845.48625 55.287213 
" clip-path="url(#p75077a90d9)" style="fill: none; stroke: #cccccc; stroke-linecap: round"/>
     </g>
     <g id="text_36">
      <!-- 0.8 -->
      <g style="fill: #262626" transform="translate(587.149479 59.466354) scale(0.11 -0.11)">
       <use xlink:href="#DejaVuSans-30"/>
       <use xlink:href="#DejaVuSans-2e" transform="translate(63.623047 0)"/>
       <use xlink:href="#DejaVuSans-38" transform="translate(95.410156 0)"/>
      </g>
     </g>
    </g>
    <g id="text_37">
     <!-- α̂ -->
     <g style="fill: #262626" transform="translate(580.653854 129.392812) rotate(-90) scale(0.12 -0.12)">
      <use xlink:href="#DejaVuSans-3b1"/>
      <use xlink:href="#DejaVuSans-302" transform="translate(65.917969 0)"/>
     </g>
    </g>
   </g>
   <g id="patch_73">
    <path d="M 643.060833 128.63519 
L 700.896667 128.63519 
L 700.896667 97.437687 
L 643.060833 97.437687 
L 643.060833 128.63519 
z
" clip-path="url(#p75077a90d9)" style="fill: #ee854a; opacity: 0.85; stroke: #000000; stroke-linejoin: miter"/>
   </g>
   <g id="line2d_35">
    <path d="M 671.97875 128.63519 
L 671.97875 170.582093 
" clip-path="url(#p75077a90d9)" style="fill: none; stroke: #000000; stroke-linecap: round"/>
   </g>
   <g id="line2d_36">
    <path d="M 671.97875 97.437687 
L 671.97875 55.840477 
" clip-path="url(#p75077a90d9)" style="fill: none; stroke: #000000; stroke-linecap: round"/>
   </g>
   <g id="line2d_37">
    <path d="M 657.519792 170.582093 
L 686.437708 170.582093 
" clip-path="url(#p75077a90d9)" style="fill: none; stroke: #000000; stroke-linecap: round"/>
   </g>
   <g id="line2d_38">
    <path d="M 657.519792 55.840477 
L 686.437708 55.840477 
" clip-path="url(#p75077a90d9)" style="fill: none; stroke: #000000; stroke-linecap: round"/>
   </g>
   <g id="line2d_39">
    <defs>
     <path id="m8557b9517d" d="M 0 3 
C 0.795609 3 1.55874 2.683901 2.12132 2.12132 
C 2.683901 1.55874 3 0.795609 3 0 
C 3 -0.795609 2.683901 -1.55874 2.12132 -2.12132 
C 1.55874 -2.683901 0.795609 -3 0 -3 
C -0.795609 -3 -1.55874 -2.683901 -2.12132 -2.12132 
C -2.683901 -1.55874 -3 -0.795609 -3 0 
C -3 0.795609 -2.683901 1.55874 -2.12132 2.12132 
C -1.55874 2.683901 -0.795609 3 0 3 
z
" style="stroke: #000000"/>
    </defs>
    <g clip-path="url(#p75077a90d9)">
     <use xlink:href="#m8557b9517d" x="671.97875" y="184.818251" style="fill-opacity: 0; stroke: #000000"/>
     <use xlink:href="#m8557b9517d" x="671.97875" y="177.991891" style="fill-opacity: 0; stroke: #000000"/>
     <use xlink:href="#m8557b9517d" x="671.97875" y="206.966591" style="fill-opacity: 0; stroke: #000000"/>
     <use xlink:href="#m8557b9517d" x="671.97875" y="46.372367" style="fill-opacity: 0; stroke: #000000"/>
     <use xlink:href="#m8557b9517d" x="671.97875" y="46.306661" style="fill-opacity: 0; stroke: #000000"/>
     <use xlink:href="#m8557b9517d" x="671.97875" y="43.908409" style="fill-opacity: 0; stroke: #000000"/>
     <use xlink:href="#m8557b9517d" x="671.97875" y="50.241309" style="fill-opacity: 0; stroke: #000000"/>
    </g>
   </g>
   <g id="patch_74">
    <path d="M 758.7325 123.833556 
L 816.568333 123.833556 
L 816.568333 95.751734 
L 758.7325 95.751734 
L 758.7325 123.833556 
z
" clip-path="url(#p75077a90d9)" style="fill: #4878d0; opacity: 0.85; stroke: #000000; stroke-linejoin: miter"/>
   </g>
   <g id="line2d_40">
    <path d="M 787.650417 123.833556 
L 787.650417 165.579354 
" clip-path="url(#p75077a90d9)" style="fill: none; stroke: #000000; stroke-linecap: round"/>
   </g>
   <g id="line2d_41">
    <path d="M 787.650417 95.751734 
L 787.650417 54.717823 
" clip-path="url(#p75077a90d9)" style="fill: none; stroke: #000000; stroke-linecap: round"/>
   </g>
   <g id="line2d_42">
    <path d="M 773.191458 165.579354 
L 802.109375 165.579354 
" clip-path="url(#p75077a90d9)" style="fill: none; stroke: #000000; stroke-linecap: round"/>
   </g>
   <g id="line2d_43">
    <path d="M 773.191458 54.717823 
L 802.109375 54.717823 
" clip-path="url(#p75077a90d9)" style="fill: none; stroke: #000000; stroke-linecap: round"/>
   </g>
   <g id="line2d_44">
    <g clip-path="url(#p75077a90d9)">
     <use xlink:href="#m8557b9517d" x="787.650417" y="169.167222" style="fill-opacity: 0; stroke: #000000"/>
     <use xlink:href="#m8557b9517d" x="787.650417" y="166.652459" style="fill-opacity: 0; stroke: #000000"/>
     <use xlink:href="#m8557b9517d" x="787.650417" y="167.981428" style="fill-opacity: 0; stroke: #000000"/>
     <use xlink:href="#m8557b9517d" x="787.650417" y="170.406208" style="fill-opacity: 0; stroke: #000000"/>
     <use xlink:href="#m8557b9517d" x="787.650417" y="174.366667" style="fill-opacity: 0; stroke: #000000"/>
     <use xlink:href="#m8557b9517d" x="787.650417" y="46.650988" style="fill-opacity: 0; stroke: #000000"/>
     <use xlink:href="#m8557b9517d" x="787.650417" y="52.727386" style="fill-opacity: 0; stroke: #000000"/>
     <use xlink:href="#m8557b9517d" x="787.650417" y="45.629377" style="fill-opacity: 0; stroke: #000000"/>
     <use xlink:href="#m8557b9517d" x="787.650417" y="48.610341" style="fill-opacity: 0; stroke: #000000"/>
     <use xlink:href="#m8557b9517d" x="787.650417" y="48.100675" style="fill-opacity: 0; stroke: #000000"/>
     <use xlink:href="#m8557b9517d" x="787.650417" y="51.157848" style="fill-opacity: 0; stroke: #000000"/>
    </g>
   </g>
   <g id="line2d_45">
    <path d="M 614.142917 112.600688 
L 845.48625 112.600688 
" clip-path="url(#p75077a90d9)" style="fill: none; stroke-dasharray: 7.4,3.2; stroke-dashoffset: 0; stroke: #d65f5f; stroke-width: 2"/>
   </g>
   <g id="line2d_46">
    <path d="M 643.060833 113.758338 
L 700.896667 113.758338 
" clip-path="url(#p75077a90d9)" style="fill: none; stroke: #ffffff; stroke-width: 2"/>
   </g>
   <g id="line2d_47">
    <path d="M 758.7325 109.705235 
L 816.568333 109.705235 
" clip-path="url(#p75077a90d9)" style="fill: none; stroke: #ffffff; stroke-width: 2"/>
   </g>
   <g id="patch_75">
    <path d="M 614.142917 215.1195 
L 614.142917 35.7555 
" style="fill: none; stroke: #cccccc; stroke-width: 1.25; stroke-linejoin: miter; stroke-linecap: square"/>
   </g>
   <g id="patch_76">
    <path d="M 845.48625 215.1195 
L 845.48625 35.7555 
" style="fill: none; stroke: #cccccc; stroke-width: 1.25; stroke-linejoin: miter; stroke-linecap: square"/>
   </g>
   <g id="patch_77">
    <path d="M 614.142917 215.1195 
L 845.48625 215.1195 
" style="fill: none; stroke: #cccccc; stroke-width: 1.25; stroke-linejoin: miter; stroke-linecap: square"/>
   </g>
   <g id="patch_78">
    <path d="M 614.142917 35.7555 
L 845.48625 35.7555 
" style="fill: none; stroke: #cccccc; stroke-width: 1.25; stroke-linejoin: miter; stroke-linecap: square"/>
   </g>
   <g id="text_38">
    <!-- Comparison -->
    <g style="fill: #262626" transform="translate(693.890521 29.7555) scale(0.12 -0.12)">
     <defs>
      <path id="DejaVuSans-43" d="M 4122 4306 
L 4122 3641 
Q 3803 3938 3442 4084 
Q 3081 4231 2675 4231 
Q 1875 4231 1450 3742 
Q 1025 3253 1025 2328 
Q 1025 1406 1450 917 
Q 1875 428 2675 428 
Q 3081 428 3442 575 
Q 3803 722 4122 1019 
L 4122 359 
Q 3791 134 3420 21 
Q 3050 -91 2638 -91 
Q 1578 -91 968 557 
Q 359 1206 359 2328 
Q 359 3453 968 4101 
Q 1578 4750 2638 4750 
Q 3056 4750 3426 4639 
Q 3797 4528 4122 4306 
z
" transform="scale(0.015625)"/>
      <path id="DejaVuSans-6d" d="M 3328 2828 
Q 3544 3216 3844 3400 
Q 4144 3584 4550 3584 
Q 5097 3584 5394 3201 
Q 5691 2819 5691 2113 
L 5691 0 
L 5113 0 
L 5113 2094 
Q 5113 2597 4934 2840 
Q 4756 3084 4391 3084 
Q 3944 3084 3684 2787 
Q 3425 2491 3425 1978 
L 3425 0 
L 2847 0 
L 2847 2094 
Q 2847 2600 2669 2842 
Q 2491 3084 2119 3084 
Q 1678 3084 1418 2786 
Q 1159 2488 1159 1978 
L 1159 0 
L 581 0 
L 581 3500 
L 1159 3500 
L 1159 2956 
Q 1356 3278 1631 3431 
Q 1906 3584 2284 3584 
Q 2666 3584 2933 3390 
Q 3200 3197 3328 2828 
z
" transform="scale(0.015625)"/>
     </defs>
     <use xlink:href="#DejaVuSans-43"/>
     <use xlink:href="#DejaVuSans-6f" transform="translate(69.824219 0)"/>
     <use xlink:href="#DejaVuSans-6d" transform="translate(131.005859 0)"/>
     <use xlink:href="#DejaVuSans-70" transform="translate(228.417969 0)"/>
     <use xlink:href="#DejaVuSans-61" transform="translate(291.894531 0)"/>
     <use xlink:href="#DejaVuSans-72" transform="translate(353.173828 0)"/>
     <use xlink:href="#DejaVuSans-69" transform="translate(394.287109 0)"/>
     <use xlink:href="#DejaVuSans-73" transform="translate(422.070312 0)"/>
     <use xlink:href="#DejaVuSans-6f" transform="translate(474.169922 0)"/>
     <use xlink:href="#DejaVuSans-6e" transform="translate(535.351562 0)"/>
    </g>
   </g>
   <g id="legend_3">
    <g id="line2d_48">
     <path d="M 750.980625 201.997781 
L 759.980625 201.997781 
L 768.980625 201.997781 
" style="fill: none; stroke-dasharray: 7.4,3.2; stroke-dashoffset: 0; stroke: #d65f5f; stroke-width: 2"/>
    </g>
    <g id="text_39">
     <!-- True α = 0.60 -->
     <g style="fill: #262626" transform="translate(776.180625 205.147781) scale(0.09 -0.09)">
      <use xlink:href="#DejaVuSans-54"/>
      <use xlink:href="#DejaVuSans-72" transform="translate(46.333984 0)"/>
      <use xlink:href="#DejaVuSans-75" transform="translate(87.447266 0)"/>
      <use xlink:href="#DejaVuSans-65" transform="translate(150.826172 0)"/>
      <use xlink:href="#DejaVuSans-20" transform="translate(212.349609 0)"/>
      <use xlink:href="#DejaVuSans-3b1" transform="translate(244.136719 0)"/>
      <use xlink:href="#DejaVuSans-20" transform="translate(310.054688 0)"/>
      <use xlink:href="#DejaVuSans-3d" transform="translate(341.841797 0)"/>
      <use xlink:href="#DejaVuSans-20" transform="translate(425.630859 0)"/>
      <use xlink:href="#DejaVuSans-30" transform="translate(457.417969 0)"/>
      <use xlink:href="#DejaVuSans-2e" transform="translate(521.041016 0)"/>
      <use xlink:href="#DejaVuSans-36" transform="translate(552.828125 0)"/>
      <use xlink:href="#DejaVuSans-30" transform="translate(616.451172 0)"/>
     </g>
    </g>
   </g>
  </g>
 </g>
 <defs>
  <clipPath id="p5db9a09275">
   <rect x="37.69625" y="35.7555" width="231.343333" height="179.364"/>
  </clipPath>
  <clipPath id="p36501e4e68">
   <rect x="325.919583" y="35.7555" width="231.343333" height="179.364"/>
  </clipPath>
  <clipPath id="p75077a90d9">
   <rect x="614.142917" y="35.7555" width="231.343333" height="179.364"/>
  </clipPath>
 </defs>
</svg>
