<?xml version="1.0" encoding="utf-8" standalone="no"?>
<!DOCTYPE svg PUBLIC "-//W3C//DTD SVG 1.1//EN"
  "http://www.w3.org/Graphics/SVG/1.1/DTD/svg11.dtd">
<svg xmlns:xlink="http://www.w3.org/1999/xlink" width="563.167187pt" height="238.954375pt" viewBox="0 0 563.167187 238.954375" xmlns="http://www.w3.org/2000/svg" version="1.1">
 <metadata>
  <rdf:RDF xmlns:dc="http://purl.org/dc/elements/1.1/" xmlns:cc="http://creativecommons.org/ns#" xmlns:rdf="http://www.w3.org/1999/02/22-rdf-syntax-ns#">
   <cc:Work>
    <dc:type rdf:resource="http://purl.org/dc/dcmitype/StillImage"/>
    <dc:date>2026-06-02T15:26:09.888998</dc:date>
    <dc:format>image/svg+xml</dc:format>
    <dc:creator>
     <cc:Agent>
      <dc:title>Matplotlib v3.10.9, https://matplotlib.org/</dc:title>
     </cc:Agent>
    </dc:creator>
   </cc:Work>
  </rdf:RDF>
 </metadata>
 <defs>
  <style type="text/css">*{stroke-linejoin: round; stroke-linecap: butt}</style>
 </defs>
 <g id="figure_1">
  <g id="patch_1">
   <path d="M 0 238.954375 
L 563.167187 238.954375 
L 563.167187 -0 
L 0 -0 
z
" style="fill: #ffffff"/>
  </g>
  <g id="axes_1">
   <g id="patch_2">
    <path d="M 49.807187 195.994688 
L 555.967187 195.994688 
L 555.967187 23.254687 
L 49.807187 23.254687 
z
" style="fill: #ffffff"/>
   </g>
   <g id="matplotlib.axis_1">
    <g id="xtick_1">
     <g id="line2d_1">
      <path d="M 72.81446 195.994688 
L 72.81446 23.254687 
" clip-path="url(#p02de46a584)" style="fill: none; stroke: #cccccc; stroke-linecap: round"/>
     </g>
     <g id="text_1">
      <!-- −20 -->
      <g style="fill: #262626" transform="translate(61.206882 213.852969) scale(0.11 -0.11)">
       <defs>
        <path id="DejaVuSans-2212" d="M 678 2272 
L 4684 2272 
L 4684 1741 
L 678 1741 
L 678 2272 
z
" transform="scale(0.015625)"/>
        <path id="DejaVuSans-32" d="M 1228 531 
L 3431 531 
L 3431 0 
L 469 0 
L 469 531 
Q 828 903 1448 1529 
Q 2069 2156 2228 2338 
Q 2531 2678 2651 2914 
Q 2772 3150 2772 3378 
Q 2772 3750 2511 3984 
Q 2250 4219 1831 4219 
Q 1534 4219 1204 4116 
Q 875 4013 500 3803 
L 500 4441 
Q 881 4594 1212 4672 
Q 1544 4750 1819 4750 
Q 2544 4750 2975 4387 
Q 3406 4025 3406 3419 
Q 3406 3131 3298 2873 
Q 3191 2616 2906 2266 
Q 2828 2175 2409 1742 
Q 1991 1309 1228 531 
z
" transform="scale(0.015625)"/>
        <path id="DejaVuSans-30" d="M 2034 4250 
Q 1547 4250 1301 3770 
Q 1056 3291 1056 2328 
Q 1056 1369 1301 889 
Q 1547 409 2034 409 
Q 2525 409 2770 889 
Q 3016 1369 3016 2328 
Q 3016 3291 2770 3770 
Q 2525 4250 2034 4250 
z
M 2034 4750 
Q 2819 4750 3233 4129 
Q 3647 3509 3647 2328 
Q 3647 1150 3233 529 
Q 2819 -91 2034 -91 
Q 1250 -91 836 529 
Q 422 1150 422 2328 
Q 422 3509 836 4129 
Q 1250 4750 2034 4750 
z
" transform="scale(0.015625)"/>
       </defs>
       <use xlink:href="#DejaVuSans-2212"/>
       <use xlink:href="#DejaVuSans-32" transform="translate(83.789062 0)"/>
       <use xlink:href="#DejaVuSans-30" transform="translate(147.412109 0)"/>
      </g>
     </g>
    </g>
    <g id="xtick_2">
     <g id="line2d_2">
      <path d="M 130.332642 195.994688 
L 130.332642 23.254687 
" clip-path="url(#p02de46a584)" style="fill: none; stroke: #cccccc; stroke-linecap: round"/>
     </g>
     <g id="text_2">
      <!-- −15 -->
      <g style="fill: #262626" transform="translate(118.725064 213.852969) scale(0.11 -0.11)">
       <defs>
        <path id="DejaVuSans-31" d="M 794 531 
L 1825 531 
L 1825 4091 
L 703 3866 
L 703 4441 
L 1819 4666 
L 2450 4666 
L 2450 531 
L 3481 531 
L 3481 0 
L 794 0 
L 794 531 
z
" transform="scale(0.015625)"/>
        <path id="DejaVuSans-35" d="M 691 4666 
L 3169 4666 
L 3169 4134 
L 1269 4134 
L 1269 2991 
Q 1406 3038 1543 3061 
Q 1681 3084 1819 3084 
Q 2600 3084 3056 2656 
Q 3513 2228 3513 1497 
Q 3513 744 3044 326 
Q 2575 -91 1722 -91 
Q 1428 -91 1123 -41 
Q 819 9 494 109 
L 494 744 
Q 775 591 1075 516 
Q 1375 441 1709 441 
Q 2250 441 2565 725 
Q 2881 1009 2881 1497 
Q 2881 1984 2565 2268 
Q 2250 2553 1709 2553 
Q 1456 2553 1204 2497 
Q 953 2441 691 2322 
L 691 4666 
z
" transform="scale(0.015625)"/>
       </defs>
       <use xlink:href="#DejaVuSans-2212"/>
       <use xlink:href="#DejaVuSans-31" transform="translate(83.789062 0)"/>
       <use xlink:href="#DejaVuSans-35" transform="translate(147.412109 0)"/>
      </g>
     </g>
    </g>
    <g id="xtick_3">
     <g id="line2d_3">
      <path d="M 187.850824 195.994688 
L 187.850824 23.254687 
" clip-path="url(#p02de46a584)" style="fill: none; stroke: #cccccc; stroke-linecap: round"/>
     </g>
     <g id="text_3">
      <!-- −10 -->
      <g style="fill: #262626" transform="translate(176.243246 213.852969) scale(0.11 -0.11)">
       <use xlink:href="#DejaVuSans-2212"/>
       <use xlink:href="#DejaVuSans-31" transform="translate(83.789062 0)"/>
       <use xlink:href="#DejaVuSans-30" transform="translate(147.412109 0)"/>
      </g>
     </g>
    </g>
    <g id="xtick_4">
     <g id="line2d_4">
      <path d="M 245.369006 195.994688 
L 245.369006 23.254687 
" clip-path="url(#p02de46a584)" style="fill: none; stroke: #cccccc; stroke-linecap: round"/>
     </g>
     <g id="text_4">
      <!-- −5 -->
      <g style="fill: #262626" transform="translate(237.260803 213.852969) scale(0.11 -0.11)">
       <use xlink:href="#DejaVuSans-2212"/>
       <use xlink:href="#DejaVuSans-35" transform="translate(83.789062 0)"/>
      </g>
     </g>
    </g>
    <g id="xtick_5">
     <g id="line2d_5">
      <path d="M 302.887187 195.994688 
L 302.887187 23.254687 
" clip-path="url(#p02de46a584)" style="fill: none; stroke: #cccccc; stroke-linecap: round"/>
     </g>
     <g id="text_5">
      <!-- 0 -->
      <g style="fill: #262626" transform="translate(299.387812 213.852969) scale(0.11 -0.11)">
       <use xlink:href="#DejaVuSans-30"/>
      </g>
     </g>
    </g>
    <g id="xtick_6">
     <g id="line2d_6">
      <path d="M 360.405369 195.994688 
L 360.405369 23.254687 
" clip-path="url(#p02de46a584)" style="fill: none; stroke: #cccccc; stroke-linecap: round"/>
     </g>
     <g id="text_6">
      <!-- 5 -->
      <g style="fill: #262626" transform="translate(356.905994 213.852969) scale(0.11 -0.11)">
       <use xlink:href="#DejaVuSans-35"/>
      </g>
     </g>
    </g>
    <g id="xtick_7">
     <g id="line2d_7">
      <path d="M 417.923551 195.994688 
L 417.923551 23.254687 
" clip-path="url(#p02de46a584)" style="fill: none; stroke: #cccccc; stroke-linecap: round"/>
     </g>
     <g id="text_7">
      <!-- 10 -->
      <g style="fill: #262626" transform="translate(410.924801 213.852969) scale(0.11 -0.11)">
       <use xlink:href="#DejaVuSans-31"/>
       <use xlink:href="#DejaVuSans-30" transform="translate(63.623047 0)"/>
      </g>
     </g>
    </g>
    <g id="xtick_8">
     <g id="line2d_8">
      <path d="M 475.441733 195.994688 
L 475.441733 23.254687 
" clip-path="url(#p02de46a584)" style="fill: none; stroke: #cccccc; stroke-linecap: round"/>
     </g>
     <g id="text_8">
      <!-- 15 -->
      <g style="fill: #262626" transform="translate(468.442983 213.852969) scale(0.11 -0.11)">
       <use xlink:href="#DejaVuSans-31"/>
       <use xlink:href="#DejaVuSans-35" transform="translate(63.623047 0)"/>
      </g>
     </g>
    </g>
    <g id="xtick_9">
     <g id="line2d_9">
      <path d="M 532.959915 195.994688 
L 532.959915 23.254687 
" clip-path="url(#p02de46a584)" style="fill: none; stroke: #cccccc; stroke-linecap: round"/>
     </g>
     <g id="text_9">
      <!-- 20 -->
      <g style="fill: #262626" transform="translate(525.961165 213.852969) scale(0.11 -0.11)">
       <use xlink:href="#DejaVuSans-32"/>
       <use xlink:href="#DejaVuSans-30" transform="translate(63.623047 0)"/>
      </g>
     </g>
    </g>
    <g id="text_10">
     <!-- t -->
     <g style="fill: #262626" transform="translate(300.535 229.25875) scale(0.12 -0.12)">
      <defs>
       <path id="DejaVuSans-74" d="M 1172 4494 
L 1172 3500 
L 2356 3500 
L 2356 3053 
L 1172 3053 
L 1172 1153 
Q 1172 725 1289 603 
Q 1406 481 1766 481 
L 2356 481 
L 2356 0 
L 1766 0 
Q 1100 0 847 248 
Q 594 497 594 1153 
L 594 3053 
L 172 3053 
L 172 3500 
L 594 3500 
L 594 4494 
L 1172 4494 
z
" transform="scale(0.015625)"/>
      </defs>
      <use xlink:href="#DejaVuSans-74"/>
     </g>
    </g>
   </g>
   <g id="matplotlib.axis_2">
    <g id="ytick_1">
     <g id="line2d_10">
      <path d="M 49.807187 188.142869 
L 555.967187 188.142869 
" clip-path="url(#p02de46a584)" style="fill: none; stroke: #cccccc; stroke-linecap: round"/>
     </g>
     <g id="text_11">
      <!-- 0.0 -->
      <g style="fill: #262626" transform="translate(22.81375 192.32201) scale(0.11 -0.11)">
       <defs>
        <path id="DejaVuSans-2e" d="M 684 794 
L 1344 794 
L 1344 0 
L 684 0 
L 684 794 
z
" transform="scale(0.015625)"/>
       </defs>
       <use xlink:href="#DejaVuSans-30"/>
       <use xlink:href="#DejaVuSans-2e" transform="translate(63.623047 0)"/>
       <use xlink:href="#DejaVuSans-30" transform="translate(95.410156 0)"/>
      </g>
     </g>
    </g>
    <g id="ytick_2">
     <g id="line2d_11">
      <path d="M 49.807187 148.720352 
L 555.967187 148.720352 
" clip-path="url(#p02de46a584)" style="fill: none; stroke: #cccccc; stroke-linecap: round"/>
     </g>
     <g id="text_12">
      <!-- 0.1 -->
      <g style="fill: #262626" transform="translate(22.81375 152.899492) scale(0.11 -0.11)">
       <use xlink:href="#DejaVuSans-30"/>
       <use xlink:href="#DejaVuSans-2e" transform="translate(63.623047 0)"/>
       <use xlink:href="#DejaVuSans-31" transform="translate(95.410156 0)"/>
      </g>
     </g>
    </g>
    <g id="ytick_3">
     <g id="line2d_12">
      <path d="M 49.807187 109.297834 
L 555.967187 109.297834 
" clip-path="url(#p02de46a584)" style="fill: none; stroke: #cccccc; stroke-linecap: round"/>
     </g>
     <g id="text_13">
      <!-- 0.2 -->
      <g style="fill: #262626" transform="translate(22.81375 113.476975) scale(0.11 -0.11)">
       <use xlink:href="#DejaVuSans-30"/>
       <use xlink:href="#DejaVuSans-2e" transform="translate(63.623047 0)"/>
       <use xlink:href="#DejaVuSans-32" transform="translate(95.410156 0)"/>
      </g>
     </g>
    </g>
    <g id="ytick_4">
     <g id="line2d_13">
      <path d="M 49.807187 69.875317 
L 555.967187 69.875317 
" clip-path="url(#p02de46a584)" style="fill: none; stroke: #cccccc; stroke-linecap: round"/>
     </g>
     <g id="text_14">
      <!-- 0.3 -->
      <g style="fill: #262626" transform="translate(22.81375 74.054457) scale(0.11 -0.11)">
       <defs>
        <path id="DejaVuSans-33" d="M 2597 2516 
Q 3050 2419 3304 2112 
Q 3559 1806 3559 1356 
Q 3559 666 3084 287 
Q 2609 -91 1734 -91 
Q 1441 -91 1130 -33 
Q 819 25 488 141 
L 488 750 
Q 750 597 1062 519 
Q 1375 441 1716 441 
Q 2309 441 2620 675 
Q 2931 909 2931 1356 
Q 2931 1769 2642 2001 
Q 2353 2234 1838 2234 
L 1294 2234 
L 1294 2753 
L 1863 2753 
Q 2328 2753 2575 2939 
Q 2822 3125 2822 3475 
Q 2822 3834 2567 4026 
Q 2313 4219 1838 4219 
Q 1578 4219 1281 4162 
Q 984 4106 628 3988 
L 628 4550 
Q 988 4650 1302 4700 
Q 1616 4750 1894 4750 
Q 2613 4750 3031 4423 
Q 3450 4097 3450 3541 
Q 3450 3153 3228 2886 
Q 3006 2619 2597 2516 
z
" transform="scale(0.015625)"/>
       </defs>
       <use xlink:href="#DejaVuSans-30"/>
       <use xlink:href="#DejaVuSans-2e" transform="translate(63.623047 0)"/>
       <use xlink:href="#DejaVuSans-33" transform="translate(95.410156 0)"/>
      </g>
     </g>
    </g>
    <g id="ytick_5">
     <g id="line2d_14">
      <path d="M 49.807187 30.452799 
L 555.967187 30.452799 
" clip-path="url(#p02de46a584)" style="fill: none; stroke: #cccccc; stroke-linecap: round"/>
     </g>
     <g id="text_15">
      <!-- 0.4 -->
      <g style="fill: #262626" transform="translate(22.81375 34.63194) scale(0.11 -0.11)">
       <defs>
        <path id="DejaVuSans-34" d="M 2419 4116 
L 825 1625 
L 2419 1625 
L 2419 4116 
z
M 2253 4666 
L 3047 4666 
L 3047 1625 
L 3713 1625 
L 3713 1100 
L 3047 1100 
L 3047 0 
L 2419 0 
L 2419 1100 
L 313 1100 
L 313 1709 
L 2253 4666 
z
" transform="scale(0.015625)"/>
       </defs>
       <use xlink:href="#DejaVuSans-30"/>
       <use xlink:href="#DejaVuSans-2e" transform="translate(63.623047 0)"/>
       <use xlink:href="#DejaVuSans-34" transform="translate(95.410156 0)"/>
      </g>
     </g>
    </g>
    <g id="text_16">
     <!-- Density -->
     <g style="fill: #262626" transform="translate(16.318125 132.435) rotate(-90) scale(0.12 -0.12)">
      <defs>
       <path id="DejaVuSans-44" d="M 1259 4147 
L 1259 519 
L 2022 519 
Q 2988 519 3436 956 
Q 3884 1394 3884 2338 
Q 3884 3275 3436 3711 
Q 2988 4147 2022 4147 
L 1259 4147 
z
M 628 4666 
L 1925 4666 
Q 3281 4666 3915 4102 
Q 4550 3538 4550 2338 
Q 4550 1131 3912 565 
Q 3275 0 1925 0 
L 628 0 
L 628 4666 
z
" transform="scale(0.015625)"/>
       <path id="DejaVuSans-65" d="M 3597 1894 
L 3597 1613 
L 953 1613 
Q 991 1019 1311 708 
Q 1631 397 2203 397 
Q 2534 397 2845 478 
Q 3156 559 3463 722 
L 3463 178 
Q 3153 47 2828 -22 
Q 2503 -91 2169 -91 
Q 1331 -91 842 396 
Q 353 884 353 1716 
Q 353 2575 817 3079 
Q 1281 3584 2069 3584 
Q 2775 3584 3186 3129 
Q 3597 2675 3597 1894 
z
M 3022 2063 
Q 3016 2534 2758 2815 
Q 2500 3097 2075 3097 
Q 1594 3097 1305 2825 
Q 1016 2553 972 2059 
L 3022 2063 
z
" transform="scale(0.015625)"/>
       <path id="DejaVuSans-6e" d="M 3513 2113 
L 3513 0 
L 2938 0 
L 2938 2094 
Q 2938 2591 2744 2837 
Q 2550 3084 2163 3084 
Q 1697 3084 1428 2787 
Q 1159 2491 1159 1978 
L 1159 0 
L 581 0 
L 581 3500 
L 1159 3500 
L 1159 2956 
Q 1366 3272 1645 3428 
Q 1925 3584 2291 3584 
Q 2894 3584 3203 3211 
Q 3513 2838 3513 2113 
z
" transform="scale(0.015625)"/>
       <path id="DejaVuSans-73" d="M 2834 3397 
L 2834 2853 
Q 2591 2978 2328 3040 
Q 2066 3103 1784 3103 
Q 1356 3103 1142 2972 
Q 928 2841 928 2578 
Q 928 2378 1081 2264 
Q 1234 2150 1697 2047 
L 1894 2003 
Q 2506 1872 2764 1633 
Q 3022 1394 3022 966 
Q 3022 478 2636 193 
Q 2250 -91 1575 -91 
Q 1294 -91 989 -36 
Q 684 19 347 128 
L 347 722 
Q 666 556 975 473 
Q 1284 391 1588 391 
Q 1994 391 2212 530 
Q 2431 669 2431 922 
Q 2431 1156 2273 1281 
Q 2116 1406 1581 1522 
L 1381 1569 
Q 847 1681 609 1914 
Q 372 2147 372 2553 
Q 372 3047 722 3315 
Q 1072 3584 1716 3584 
Q 2034 3584 2315 3537 
Q 2597 3491 2834 3397 
z
" transform="scale(0.015625)"/>
       <path id="DejaVuSans-69" d="M 603 3500 
L 1178 3500 
L 1178 0 
L 603 0 
L 603 3500 
z
M 603 4863 
L 1178 4863 
L 1178 4134 
L 603 4134 
L 603 4863 
z
" transform="scale(0.015625)"/>
       <path id="DejaVuSans-79" d="M 2059 -325 
Q 1816 -950 1584 -1140 
Q 1353 -1331 966 -1331 
L 506 -1331 
L 506 -850 
L 844 -850 
Q 1081 -850 1212 -737 
Q 1344 -625 1503 -206 
L 1606 56 
L 191 3500 
L 800 3500 
L 1894 763 
L 2988 3500 
L 3597 3500 
L 2059 -325 
z
" transform="scale(0.015625)"/>
      </defs>
      <use xlink:href="#DejaVuSans-44"/>
      <use xlink:href="#DejaVuSans-65" transform="translate(77.001953 0)"/>
      <use xlink:href="#DejaVuSans-6e" transform="translate(138.525391 0)"/>
      <use xlink:href="#DejaVuSans-73" transform="translate(201.904297 0)"/>
      <use xlink:href="#DejaVuSans-69" transform="translate(254.003906 0)"/>
      <use xlink:href="#DejaVuSans-74" transform="translate(281.787109 0)"/>
      <use xlink:href="#DejaVuSans-79" transform="translate(320.996094 0)"/>
     </g>
    </g>
   </g>
   <g id="FillBetweenPolyCollection_1">
    <path d="M 49.807188 188.142869 
L 49.807188 188.142869 
L 50.313854 188.142869 
L 50.820521 188.142869 
L 51.327188 188.142869 
L 51.833854 188.142869 
L 52.340521 188.142869 
L 52.847187 188.142869 
L 53.353854 188.142869 
L 53.860521 188.142869 
L 54.367188 188.142869 
L 54.873854 188.142869 
L 55.380521 188.142869 
L 55.887188 188.142869 
L 56.393854 188.142869 
L 56.900521 188.142869 
L 57.407188 188.142869 
L 57.913854 188.142869 
L 58.420521 188.142869 
L 58.927188 188.142869 
L 59.433854 188.142869 
L 59.940521 188.142869 
L 60.447187 188.142869 
L 60.953854 188.142869 
L 61.460521 188.142869 
L 61.967188 188.142869 
L 62.473854 188.142869 
L 62.980521 188.142869 
L 63.487188 188.142869 
L 63.993854 188.142869 
L 64.500521 188.142869 
L 65.007188 188.142869 
L 65.513854 188.142869 
L 66.020521 188.142869 
L 66.527187 188.142869 
L 67.033854 188.142869 
L 67.540521 188.142869 
L 68.047188 188.142869 
L 68.553854 188.142869 
L 69.060521 188.142869 
L 69.567188 188.142869 
L 70.073854 188.142869 
L 70.580521 188.142869 
L 71.087188 188.142869 
L 71.593854 188.142869 
L 72.100521 188.142869 
L 72.607188 188.142869 
L 73.113854 188.142869 
L 73.620521 188.142869 
L 74.127187 188.142869 
L 74.633854 188.142869 
L 75.140521 188.142869 
L 75.647188 188.142869 
L 76.153854 188.142869 
L 76.660521 188.142869 
L 77.167188 188.142869 
L 77.673854 188.142869 
L 78.180521 188.142869 
L 78.687188 188.142869 
L 79.193854 188.142869 
L 79.700521 188.142869 
L 80.207188 188.142869 
L 80.713854 188.142869 
L 81.220521 188.142869 
L 81.727188 188.142869 
L 82.233854 188.142869 
L 82.740521 188.142869 
L 83.247188 188.142869 
L 83.753854 188.142869 
L 84.260521 188.142869 
L 84.767188 188.142869 
L 85.273854 188.142869 
L 85.780521 188.142869 
L 86.287188 188.142869 
L 86.793854 188.142869 
L 87.300521 188.142869 
L 87.807187 188.142869 
L 88.313854 188.142869 
L 88.820521 188.142869 
L 89.327188 188.142869 
L 89.833854 188.142869 
L 90.340521 188.142869 
L 90.847188 188.142869 
L 91.353854 188.142869 
L 91.860521 188.142869 
L 92.367188 188.142869 
L 92.873854 188.142869 
L 93.380521 188.142869 
L 93.887188 188.142869 
L 94.393854 188.142869 
L 94.900521 188.142869 
L 95.407187 188.142869 
L 95.913854 188.142869 
L 96.420521 188.142869 
L 96.927188 188.142869 
L 97.433854 188.142869 
L 97.940521 188.142869 
L 98.447188 188.142869 
L 98.953854 188.142869 
L 99.460521 188.142869 
L 99.967187 188.142869 
L 100.473854 188.142869 
L 100.980521 188.142869 
L 101.487188 188.142869 
L 101.993854 188.142869 
L 102.500521 188.142869 
L 103.007187 188.142869 
L 103.513854 188.142869 
L 104.020521 188.142869 
L 104.527188 188.142869 
L 105.033854 188.142869 
L 105.540521 188.142869 
L 106.047188 188.142869 
L 106.553854 188.142869 
L 107.060521 188.142869 
L 107.567188 188.142869 
L 108.073854 188.142869 
L 108.580521 188.142869 
L 109.087187 188.142869 
L 109.593854 188.142869 
L 110.100521 188.142869 
L 110.607187 188.142869 
L 111.113854 188.142869 
L 111.620521 188.142869 
L 112.127188 188.142869 
L 112.633854 188.142869 
L 113.140521 188.142869 
L 113.647188 188.142869 
L 114.153854 188.142869 
L 114.660521 188.142869 
L 114.660521 188.142869 
L 114.660521 188.142869 
L 114.153854 188.142869 
L 113.647188 188.142869 
L 113.140521 188.142869 
L 112.633854 188.142869 
L 112.127188 188.142869 
L 111.620521 188.142869 
L 111.113854 188.142869 
L 110.607187 188.142869 
L 110.100521 188.142869 
L 109.593854 188.142869 
L 109.087187 188.142869 
L 108.580521 188.142869 
L 108.073854 188.142869 
L 107.567188 188.142869 
L 107.060521 188.142869 
L 106.553854 188.142869 
L 106.047188 188.142869 
L 105.540521 188.142869 
L 105.033854 188.142869 
L 104.527188 188.142869 
L 104.020521 188.142869 
L 103.513854 188.142869 
L 103.007187 188.142869 
L 102.500521 188.142869 
L 101.993854 188.142869 
L 101.487188 188.142869 
L 100.980521 188.142869 
L 100.473854 188.142869 
L 99.967187 188.142869 
L 99.460521 188.142869 
L 98.953854 188.142869 
L 98.447188 188.142869 
L 97.940521 188.142869 
L 97.433854 188.142869 
L 96.927188 188.142869 
L 96.420521 188.142869 
L 95.913854 188.142869 
L 95.407187 188.142869 
L 94.900521 188.142869 
L 94.393854 188.142869 
L 93.887188 188.142869 
L 93.380521 188.142869 
L 92.873854 188.142869 
L 92.367188 188.142869 
L 91.860521 188.142869 
L 91.353854 188.142869 
L 90.847188 188.142869 
L 90.340521 188.142869 
L 89.833854 188.142869 
L 89.327188 188.142869 
L 88.820521 188.142869 
L 88.313854 188.142869 
L 87.807187 188.142869 
L 87.300521 188.142869 
L 86.793854 188.142869 
L 86.287188 188.142869 
L 85.780521 188.142869 
L 85.273854 188.142869 
L 84.767188 188.142869 
L 84.260521 188.142869 
L 83.753854 188.142869 
L 83.247188 188.142869 
L 82.740521 188.142869 
L 82.233854 188.142869 
L 81.727188 188.142869 
L 81.220521 188.142869 
L 80.713854 188.142869 
L 80.207188 188.142869 
L 79.700521 188.142869 
L 79.193854 188.142869 
L 78.687188 188.142869 
L 78.180521 188.142869 
L 77.673854 188.142869 
L 77.167188 188.142869 
L 76.660521 188.142869 
L 76.153854 188.142869 
L 75.647188 188.142869 
L 75.140521 188.142869 
L 74.633854 188.142869 
L 74.127187 188.142869 
L 73.620521 188.142869 
L 73.113854 188.142869 
L 72.607188 188.142869 
L 72.100521 188.142869 
L 71.593854 188.142869 
L 71.087188 188.142869 
L 70.580521 188.142869 
L 70.073854 188.142869 
L 69.567188 188.142869 
L 69.060521 188.142869 
L 68.553854 188.142869 
L 68.047188 188.142869 
L 67.540521 188.142869 
L 67.033854 188.142869 
L 66.527187 188.142869 
L 66.020521 188.142869 
L 65.513854 188.142869 
L 65.007188 188.142869 
L 64.500521 188.142869 
L 63.993854 188.142869 
L 63.487188 188.142869 
L 62.980521 188.142869 
L 62.473854 188.142869 
L 61.967188 188.142869 
L 61.460521 188.142869 
L 60.953854 188.142869 
L 60.447187 188.142869 
L 59.940521 188.142869 
L 59.433854 188.142869 
L 58.927188 188.142869 
L 58.420521 188.142869 
L 57.913854 188.142869 
L 57.407188 188.142869 
L 56.900521 188.142869 
L 56.393854 188.142869 
L 55.887188 188.142869 
L 55.380521 188.142869 
L 54.873854 188.142869 
L 54.367188 188.142869 
L 53.860521 188.142869 
L 53.353854 188.142869 
L 52.847187 188.142869 
L 52.340521 188.142869 
L 51.833854 188.142869 
L 51.327188 188.142869 
L 50.820521 188.142869 
L 50.313854 188.142869 
L 49.807188 188.142869 
z
" clip-path="url(#p02de46a584)" style="fill: #d65f5f; fill-opacity: 0.35; stroke: #d65f5f; stroke-opacity: 0.35"/>
    <path d="M 491.113854 188.142869 
L 491.113854 188.142869 
L 491.620521 188.142869 
L 492.127187 188.142869 
L 492.633854 188.142869 
L 493.140521 188.142869 
L 493.647187 188.142869 
L 494.153854 188.142869 
L 494.660521 188.142869 
L 495.167187 188.142869 
L 495.673854 188.142869 
L 496.180521 188.142869 
L 496.687187 188.142869 
L 497.193854 188.142869 
L 497.700521 188.142869 
L 498.207187 188.142869 
L 498.713854 188.142869 
L 499.220521 188.142869 
L 499.727188 188.142869 
L 500.233854 188.142869 
L 500.740521 188.142869 
L 501.247187 188.142869 
L 501.753854 188.142869 
L 502.260521 188.142869 
L 502.767187 188.142869 
L 503.273854 188.142869 
L 503.780521 188.142869 
L 504.287187 188.142869 
L 504.793854 188.142869 
L 505.300521 188.142869 
L 505.807187 188.142869 
L 506.313854 188.142869 
L 506.820521 188.142869 
L 507.327187 188.142869 
L 507.833854 188.142869 
L 508.340521 188.142869 
L 508.847187 188.142869 
L 509.353854 188.142869 
L 509.860521 188.142869 
L 510.367188 188.142869 
L 510.873854 188.142869 
L 511.380521 188.142869 
L 511.887187 188.142869 
L 512.393854 188.142869 
L 512.900521 188.142869 
L 513.407187 188.142869 
L 513.913854 188.142869 
L 514.420521 188.142869 
L 514.927187 188.142869 
L 515.433854 188.142869 
L 515.940521 188.142869 
L 516.447187 188.142869 
L 516.953854 188.142869 
L 517.460521 188.142869 
L 517.967187 188.142869 
L 518.473854 188.142869 
L 518.980521 188.142869 
L 519.487187 188.142869 
L 519.993854 188.142869 
L 520.500521 188.142869 
L 521.007187 188.142869 
L 521.513854 188.142869 
L 522.020521 188.142869 
L 522.527187 188.142869 
L 523.033854 188.142869 
L 523.540521 188.142869 
L 524.047187 188.142869 
L 524.553854 188.142869 
L 525.060521 188.142869 
L 525.567187 188.142869 
L 526.073854 188.142869 
L 526.580521 188.142869 
L 527.087187 188.142869 
L 527.593854 188.142869 
L 528.100521 188.142869 
L 528.607188 188.142869 
L 529.113854 188.142869 
L 529.620521 188.142869 
L 530.127187 188.142869 
L 530.633854 188.142869 
L 531.140521 188.142869 
L 531.647187 188.142869 
L 532.153854 188.142869 
L 532.660521 188.142869 
L 533.167187 188.142869 
L 533.673854 188.142869 
L 534.180521 188.142869 
L 534.687187 188.142869 
L 535.193854 188.142869 
L 535.700521 188.142869 
L 536.207187 188.142869 
L 536.713854 188.142869 
L 537.220521 188.142869 
L 537.727188 188.142869 
L 538.233854 188.142869 
L 538.740521 188.142869 
L 539.247187 188.142869 
L 539.753854 188.142869 
L 540.260521 188.142869 
L 540.767187 188.142869 
L 541.273854 188.142869 
L 541.780521 188.142869 
L 542.287187 188.142869 
L 542.793854 188.142869 
L 543.300521 188.142869 
L 543.807187 188.142869 
L 544.313854 188.142869 
L 544.820521 188.142869 
L 545.327188 188.142869 
L 545.833854 188.142869 
L 546.340521 188.142869 
L 546.847187 188.142869 
L 547.353854 188.142869 
L 547.860521 188.142869 
L 548.367188 188.142869 
L 548.873854 188.142869 
L 549.380521 188.142869 
L 549.887187 188.142869 
L 550.393854 188.142869 
L 550.900521 188.142869 
L 551.407187 188.142869 
L 551.913854 188.142869 
L 552.420521 188.142869 
L 552.927187 188.142869 
L 553.433854 188.142869 
L 553.940521 188.142869 
L 554.447187 188.142869 
L 554.953854 188.142869 
L 555.460521 188.142869 
L 555.967187 188.142869 
L 555.967187 188.142869 
L 555.967187 188.142869 
L 555.460521 188.142869 
L 554.953854 188.142869 
L 554.447187 188.142869 
L 553.940521 188.142869 
L 553.433854 188.142869 
L 552.927187 188.142869 
L 552.420521 188.142869 
L 551.913854 188.142869 
L 551.407187 188.142869 
L 550.900521 188.142869 
L 550.393854 188.142869 
L 549.887187 188.142869 
L 549.380521 188.142869 
L 548.873854 188.142869 
L 548.367188 188.142869 
L 547.860521 188.142869 
L 547.353854 188.142869 
L 546.847187 188.142869 
L 546.340521 188.142869 
L 545.833854 188.142869 
L 545.327188 188.142869 
L 544.820521 188.142869 
L 544.313854 188.142869 
L 543.807187 188.142869 
L 543.300521 188.142869 
L 542.793854 188.142869 
L 542.287187 188.142869 
L 541.780521 188.142869 
L 541.273854 188.142869 
L 540.767187 188.142869 
L 540.260521 188.142869 
L 539.753854 188.142869 
L 539.247187 188.142869 
L 538.740521 188.142869 
L 538.233854 188.142869 
L 537.727188 188.142869 
L 537.220521 188.142869 
L 536.713854 188.142869 
L 536.207187 188.142869 
L 535.700521 188.142869 
L 535.193854 188.142869 
L 534.687187 188.142869 
L 534.180521 188.142869 
L 533.673854 188.142869 
L 533.167187 188.142869 
L 532.660521 188.142869 
L 532.153854 188.142869 
L 531.647187 188.142869 
L 531.140521 188.142869 
L 530.633854 188.142869 
L 530.127187 188.142869 
L 529.620521 188.142869 
L 529.113854 188.142869 
L 528.607188 188.142869 
L 528.100521 188.142869 
L 527.593854 188.142869 
L 527.087187 188.142869 
L 526.580521 188.142869 
L 526.073854 188.142869 
L 525.567187 188.142869 
L 525.060521 188.142869 
L 524.553854 188.142869 
L 524.047187 188.142869 
L 523.540521 188.142869 
L 523.033854 188.142869 
L 522.527187 188.142869 
L 522.020521 188.142869 
L 521.513854 188.142869 
L 521.007187 188.142869 
L 520.500521 188.142869 
L 519.993854 188.142869 
L 519.487187 188.142869 
L 518.980521 188.142869 
L 518.473854 188.142869 
L 517.967187 188.142869 
L 517.460521 188.142869 
L 516.953854 188.142869 
L 516.447187 188.142869 
L 515.940521 188.142869 
L 515.433854 188.142869 
L 514.927187 188.142869 
L 514.420521 188.142869 
L 513.913854 188.142869 
L 513.407187 188.142869 
L 512.900521 188.142869 
L 512.393854 188.142869 
L 511.887187 188.142869 
L 511.380521 188.142869 
L 510.873854 188.142869 
L 510.367188 188.142869 
L 509.860521 188.142869 
L 509.353854 188.142869 
L 508.847187 188.142869 
L 508.340521 188.142869 
L 507.833854 188.142869 
L 507.327187 188.142869 
L 506.820521 188.142869 
L 506.313854 188.142869 
L 505.807187 188.142869 
L 505.300521 188.142869 
L 504.793854 188.142869 
L 504.287187 188.142869 
L 503.780521 188.142869 
L 503.273854 188.142869 
L 502.767187 188.142869 
L 502.260521 188.142869 
L 501.753854 188.142869 
L 501.247187 188.142869 
L 500.740521 188.142869 
L 500.233854 188.142869 
L 499.727188 188.142869 
L 499.220521 188.142869 
L 498.713854 188.142869 
L 498.207187 188.142869 
L 497.700521 188.142869 
L 497.193854 188.142869 
L 496.687187 188.142869 
L 496.180521 188.142869 
L 495.673854 188.142869 
L 495.167187 188.142869 
L 494.660521 188.142869 
L 494.153854 188.142869 
L 493.647187 188.142869 
L 493.140521 188.142869 
L 492.633854 188.142869 
L 492.127187 188.142869 
L 491.620521 188.142869 
L 491.113854 188.142869 
z
" clip-path="url(#p02de46a584)" style="fill: #d65f5f; fill-opacity: 0.35; stroke: #d65f5f; stroke-opacity: 0.35"/>
   </g>
   <g id="line2d_15">
    <path d="M 49.807188 188.142869 
L 258.047187 188.042578 
L 262.100521 187.799187 
L 264.633854 187.438516 
L 266.660521 186.928898 
L 268.180521 186.348658 
L 269.700521 185.531346 
L 271.220521 184.400116 
L 272.233854 183.426399 
L 273.247187 182.240863 
L 274.260521 180.809258 
L 275.273854 179.094899 
L 276.287188 177.059305 
L 277.300521 174.663074 
L 278.313854 171.867008 
L 279.833854 166.841782 
L 281.353854 160.721591 
L 282.873854 153.425545 
L 284.393854 144.918842 
L 285.913854 135.228218 
L 287.940521 120.653853 
L 290.473854 100.498383 
L 295.033854 63.831237 
L 296.553854 53.244834 
L 298.073854 44.29146 
L 299.087187 39.44722 
L 300.100521 35.631883 
L 301.113854 32.932711 
L 301.620521 32.022305 
L 302.127187 31.412374 
L 302.633854 31.106506 
L 303.140521 31.106506 
L 303.647187 31.412374 
L 304.153854 32.022305 
L 304.660521 32.932711 
L 305.167188 34.13825 
L 306.180521 37.404944 
L 307.193854 41.747056 
L 308.207187 47.066233 
L 309.727187 56.615445 
L 311.247187 67.63984 
L 313.780521 87.947723 
L 317.833854 120.653853 
L 319.860521 135.228218 
L 321.380521 144.918842 
L 322.900521 153.425545 
L 324.420521 160.721591 
L 325.940521 166.841782 
L 327.460521 171.867008 
L 328.980521 175.908739 
L 330.500521 179.094899 
L 332.020521 181.558061 
L 333.540521 183.426399 
L 335.060521 184.81747 
L 336.580521 185.834544 
L 338.100521 186.565066 
L 339.620521 187.080708 
L 341.647187 187.53068 
L 344.180521 187.846581 
L 347.727188 188.042578 
L 354.313854 188.131884 
L 388.260521 188.142869 
L 555.967187 188.142869 
L 555.967187 188.142869 
" clip-path="url(#p02de46a584)" style="fill: none; stroke: #4878d0; stroke-width: 2; stroke-linecap: round"/>
   </g>
   <g id="line2d_16">
    <path d="M 490.725685 195.994688 
L 490.725685 23.254687 
" clip-path="url(#p02de46a584)" style="fill: none; stroke: #d65f5f; stroke-width: 2; stroke-linecap: round"/>
   </g>
   <g id="line2d_17">
    <path d="M 115.04869 195.994688 
L 115.04869 23.254687 
" clip-path="url(#p02de46a584)" style="fill: none; stroke-dasharray: 7.4,3.2; stroke-dashoffset: 0; stroke: #d65f5f; stroke-width: 2"/>
   </g>
   <g id="patch_3">
    <path d="M 49.807187 195.994688 
L 49.807187 23.254688 
" style="fill: none; stroke: #cccccc; stroke-width: 1.25; stroke-linejoin: miter; stroke-linecap: square"/>
   </g>
   <g id="patch_4">
    <path d="M 555.967187 195.994688 
L 555.967187 23.254688 
" style="fill: none; stroke: #cccccc; stroke-width: 1.25; stroke-linejoin: miter; stroke-linecap: square"/>
   </g>
   <g id="patch_5">
    <path d="M 49.807188 195.994688 
L 555.967187 195.994688 
" style="fill: none; stroke: #cccccc; stroke-width: 1.25; stroke-linejoin: miter; stroke-linecap: square"/>
   </g>
   <g id="patch_6">
    <path d="M 49.807188 23.254687 
L 555.967187 23.254687 
" style="fill: none; stroke: #cccccc; stroke-width: 1.25; stroke-linejoin: miter; stroke-linecap: square"/>
   </g>
   <g id="text_17">
    <!-- t-distribution (df = 198)  — H₀: β₁ = 0 -->
    <g style="fill: #262626" transform="translate(166.429844 17.254687) scale(0.13 -0.13)">
     <defs>
      <path id="DejaVuSans-Bold-74" d="M 1759 4494 
L 1759 3500 
L 2913 3500 
L 2913 2700 
L 1759 2700 
L 1759 1216 
Q 1759 972 1856 886 
Q 1953 800 2241 800 
L 2816 800 
L 2816 0 
L 1856 0 
Q 1194 0 917 276 
Q 641 553 641 1216 
L 641 2700 
L 84 2700 
L 84 3500 
L 641 3500 
L 641 4494 
L 1759 4494 
z
" transform="scale(0.015625)"/>
      <path id="DejaVuSans-Bold-2d" d="M 347 2297 
L 2309 2297 
L 2309 1388 
L 347 1388 
L 347 2297 
z
" transform="scale(0.015625)"/>
      <path id="DejaVuSans-Bold-64" d="M 2919 2988 
L 2919 4863 
L 4044 4863 
L 4044 0 
L 2919 0 
L 2919 506 
Q 2688 197 2409 53 
Q 2131 -91 1766 -91 
Q 1119 -91 703 423 
Q 288 938 288 1747 
Q 288 2556 703 3070 
Q 1119 3584 1766 3584 
Q 2128 3584 2408 3439 
Q 2688 3294 2919 2988 
z
M 2181 722 
Q 2541 722 2730 984 
Q 2919 1247 2919 1747 
Q 2919 2247 2730 2509 
Q 2541 2772 2181 2772 
Q 1825 2772 1636 2509 
Q 1447 2247 1447 1747 
Q 1447 1247 1636 984 
Q 1825 722 2181 722 
z
" transform="scale(0.015625)"/>
      <path id="DejaVuSans-Bold-69" d="M 538 3500 
L 1656 3500 
L 1656 0 
L 538 0 
L 538 3500 
z
M 538 4863 
L 1656 4863 
L 1656 3950 
L 538 3950 
L 538 4863 
z
" transform="scale(0.015625)"/>
      <path id="DejaVuSans-Bold-73" d="M 3272 3391 
L 3272 2541 
Q 2913 2691 2578 2766 
Q 2244 2841 1947 2841 
Q 1628 2841 1473 2761 
Q 1319 2681 1319 2516 
Q 1319 2381 1436 2309 
Q 1553 2238 1856 2203 
L 2053 2175 
Q 2913 2066 3209 1816 
Q 3506 1566 3506 1031 
Q 3506 472 3093 190 
Q 2681 -91 1863 -91 
Q 1516 -91 1145 -36 
Q 775 19 384 128 
L 384 978 
Q 719 816 1070 734 
Q 1422 653 1784 653 
Q 2113 653 2278 743 
Q 2444 834 2444 1013 
Q 2444 1163 2330 1236 
Q 2216 1309 1875 1350 
L 1678 1375 
Q 931 1469 631 1722 
Q 331 1975 331 2491 
Q 331 3047 712 3315 
Q 1094 3584 1881 3584 
Q 2191 3584 2531 3537 
Q 2872 3491 3272 3391 
z
" transform="scale(0.015625)"/>
      <path id="DejaVuSans-Bold-72" d="M 3138 2547 
Q 2991 2616 2845 2648 
Q 2700 2681 2553 2681 
Q 2122 2681 1889 2404 
Q 1656 2128 1656 1613 
L 1656 0 
L 538 0 
L 538 3500 
L 1656 3500 
L 1656 2925 
Q 1872 3269 2151 3426 
Q 2431 3584 2822 3584 
Q 2878 3584 2943 3579 
Q 3009 3575 3134 3559 
L 3138 2547 
z
" transform="scale(0.015625)"/>
      <path id="DejaVuSans-Bold-62" d="M 2400 722 
Q 2759 722 2948 984 
Q 3138 1247 3138 1747 
Q 3138 2247 2948 2509 
Q 2759 2772 2400 2772 
Q 2041 2772 1848 2508 
Q 1656 2244 1656 1747 
Q 1656 1250 1848 986 
Q 2041 722 2400 722 
z
M 1656 2988 
Q 1888 3294 2169 3439 
Q 2450 3584 2816 3584 
Q 3463 3584 3878 3070 
Q 4294 2556 4294 1747 
Q 4294 938 3878 423 
Q 3463 -91 2816 -91 
Q 2450 -91 2169 54 
Q 1888 200 1656 506 
L 1656 0 
L 538 0 
L 538 4863 
L 1656 4863 
L 1656 2988 
z
" transform="scale(0.015625)"/>
      <path id="DejaVuSans-Bold-75" d="M 500 1363 
L 500 3500 
L 1625 3500 
L 1625 3150 
Q 1625 2866 1622 2436 
Q 1619 2006 1619 1863 
Q 1619 1441 1641 1255 
Q 1663 1069 1716 984 
Q 1784 875 1895 815 
Q 2006 756 2150 756 
Q 2500 756 2700 1025 
Q 2900 1294 2900 1772 
L 2900 3500 
L 4019 3500 
L 4019 0 
L 2900 0 
L 2900 506 
Q 2647 200 2364 54 
Q 2081 -91 1741 -91 
Q 1134 -91 817 281 
Q 500 653 500 1363 
z
" transform="scale(0.015625)"/>
      <path id="DejaVuSans-Bold-6f" d="M 2203 2784 
Q 1831 2784 1636 2517 
Q 1441 2250 1441 1747 
Q 1441 1244 1636 976 
Q 1831 709 2203 709 
Q 2569 709 2762 976 
Q 2956 1244 2956 1747 
Q 2956 2250 2762 2517 
Q 2569 2784 2203 2784 
z
M 2203 3584 
Q 3106 3584 3614 3096 
Q 4122 2609 4122 1747 
Q 4122 884 3614 396 
Q 3106 -91 2203 -91 
Q 1297 -91 786 396 
Q 275 884 275 1747 
Q 275 2609 786 3096 
Q 1297 3584 2203 3584 
z
" transform="scale(0.015625)"/>
      <path id="DejaVuSans-Bold-6e" d="M 4056 2131 
L 4056 0 
L 2931 0 
L 2931 347 
L 2931 1631 
Q 2931 2084 2911 2256 
Q 2891 2428 2841 2509 
Q 2775 2619 2662 2680 
Q 2550 2741 2406 2741 
Q 2056 2741 1856 2470 
Q 1656 2200 1656 1722 
L 1656 0 
L 538 0 
L 538 3500 
L 1656 3500 
L 1656 2988 
Q 1909 3294 2193 3439 
Q 2478 3584 2822 3584 
Q 3428 3584 3742 3212 
Q 4056 2841 4056 2131 
z
" transform="scale(0.015625)"/>
      <path id="DejaVuSans-Bold-20" transform="scale(0.015625)"/>
      <path id="DejaVuSans-Bold-28" d="M 2413 -844 
L 1484 -844 
Q 1006 -72 778 623 
Q 550 1319 550 2003 
Q 550 2688 779 3389 
Q 1009 4091 1484 4856 
L 2413 4856 
Q 2013 4116 1813 3408 
Q 1613 2700 1613 2009 
Q 1613 1319 1811 609 
Q 2009 -100 2413 -844 
z
" transform="scale(0.015625)"/>
      <path id="DejaVuSans-Bold-66" d="M 2841 4863 
L 2841 4128 
L 2222 4128 
Q 1984 4128 1890 4042 
Q 1797 3956 1797 3744 
L 1797 3500 
L 2753 3500 
L 2753 2700 
L 1797 2700 
L 1797 0 
L 678 0 
L 678 2700 
L 122 2700 
L 122 3500 
L 678 3500 
L 678 3744 
Q 678 4316 997 4589 
Q 1316 4863 1984 4863 
L 2841 4863 
z
" transform="scale(0.015625)"/>
      <path id="DejaVuSans-Bold-3d" d="M 678 3084 
L 4684 3084 
L 4684 2350 
L 678 2350 
L 678 3084 
z
M 678 1663 
L 4684 1663 
L 4684 922 
L 678 922 
L 678 1663 
z
" transform="scale(0.015625)"/>
      <path id="DejaVuSans-Bold-31" d="M 750 831 
L 1813 831 
L 1813 3847 
L 722 3622 
L 722 4441 
L 1806 4666 
L 2950 4666 
L 2950 831 
L 4013 831 
L 4013 0 
L 750 0 
L 750 831 
z
" transform="scale(0.015625)"/>
      <path id="DejaVuSans-Bold-39" d="M 641 103 
L 641 966 
Q 928 831 1190 764 
Q 1453 697 1709 697 
Q 2247 697 2547 995 
Q 2847 1294 2900 1881 
Q 2688 1725 2447 1647 
Q 2206 1569 1925 1569 
Q 1209 1569 770 1986 
Q 331 2403 331 3084 
Q 331 3838 820 4291 
Q 1309 4744 2131 4744 
Q 3044 4744 3544 4128 
Q 4044 3513 4044 2388 
Q 4044 1231 3459 570 
Q 2875 -91 1856 -91 
Q 1528 -91 1228 -42 
Q 928 6 641 103 
z
M 2125 2350 
Q 2441 2350 2600 2554 
Q 2759 2759 2759 3169 
Q 2759 3575 2600 3781 
Q 2441 3988 2125 3988 
Q 1809 3988 1650 3781 
Q 1491 3575 1491 3169 
Q 1491 2759 1650 2554 
Q 1809 2350 2125 2350 
z
" transform="scale(0.015625)"/>
      <path id="DejaVuSans-Bold-38" d="M 2228 2088 
Q 1891 2088 1709 1903 
Q 1528 1719 1528 1375 
Q 1528 1031 1709 848 
Q 1891 666 2228 666 
Q 2563 666 2741 848 
Q 2919 1031 2919 1375 
Q 2919 1722 2741 1905 
Q 2563 2088 2228 2088 
z
M 1350 2484 
Q 925 2613 709 2878 
Q 494 3144 494 3541 
Q 494 4131 934 4440 
Q 1375 4750 2228 4750 
Q 3075 4750 3515 4442 
Q 3956 4134 3956 3541 
Q 3956 3144 3739 2878 
Q 3522 2613 3097 2484 
Q 3572 2353 3814 2058 
Q 4056 1763 4056 1313 
Q 4056 619 3595 264 
Q 3134 -91 2228 -91 
Q 1319 -91 855 264 
Q 391 619 391 1313 
Q 391 1763 633 2058 
Q 875 2353 1350 2484 
z
M 1631 3419 
Q 1631 3141 1786 2991 
Q 1941 2841 2228 2841 
Q 2509 2841 2662 2991 
Q 2816 3141 2816 3419 
Q 2816 3697 2662 3845 
Q 2509 3994 2228 3994 
Q 1941 3994 1786 3844 
Q 1631 3694 1631 3419 
z
" transform="scale(0.015625)"/>
      <path id="DejaVuSans-Bold-29" d="M 513 -844 
Q 913 -100 1113 609 
Q 1313 1319 1313 2009 
Q 1313 2700 1113 3408 
Q 913 4116 513 4856 
L 1441 4856 
Q 1916 4091 2145 3389 
Q 2375 2688 2375 2003 
Q 2375 1319 2147 623 
Q 1919 -72 1441 -844 
L 513 -844 
z
" transform="scale(0.015625)"/>
      <path id="DejaVuSans-Bold-2014" d="M 344 2156 
L 6056 2156 
L 6056 1350 
L 344 1350 
L 344 2156 
z
" transform="scale(0.015625)"/>
      <path id="DejaVuSans-Bold-48" d="M 588 4666 
L 1791 4666 
L 1791 2888 
L 3566 2888 
L 3566 4666 
L 4769 4666 
L 4769 0 
L 3566 0 
L 3566 1978 
L 1791 1978 
L 1791 0 
L 588 0 
L 588 4666 
z
" transform="scale(0.015625)"/>
      <path id="DejaVuSans-Bold-2080" d="M 1806 1288 
Q 1806 1779 1706 1979 
Q 1606 2179 1368 2179 
Q 1131 2179 1028 1979 
Q 928 1779 928 1288 
Q 928 791 1028 588 
Q 1131 385 1369 385 
Q 1603 385 1706 588 
Q 1806 791 1806 1288 
z
M 2547 1285 
Q 2547 626 2241 279 
Q 1931 -71 1369 -71 
Q 797 -71 494 279 
Q 188 632 188 1285 
Q 188 1935 494 2285 
Q 803 2638 1369 2638 
Q 1931 2638 2241 2285 
Q 2547 1935 2547 1285 
z
" transform="scale(0.015625)"/>
      <path id="DejaVuSans-Bold-3a" d="M 716 3500 
L 1844 3500 
L 1844 2291 
L 716 2291 
L 716 3500 
z
M 716 1209 
L 1844 1209 
L 1844 0 
L 716 0 
L 716 1209 
z
" transform="scale(0.015625)"/>
      <path id="DejaVuSans-Bold-3b2" d="M 2575 3038 
Q 2772 3309 2772 3503 
Q 2772 3769 2648 3948 
Q 2525 4128 2241 4128 
Q 1900 4128 1778 3864 
Q 1656 3600 1656 3103 
L 1656 1747 
Q 1656 1250 1848 986 
Q 2041 722 2400 722 
Q 2800 722 2953 934 
Q 3106 1147 3106 1275 
Q 3106 1722 2738 1988 
Q 2538 2122 1988 2134 
L 1988 2847 
Q 2497 2925 2575 3038 
z
M 538 -1331 
L 538 3044 
Q 538 3922 969 4369 
Q 1325 4741 1672 4845 
Q 2019 4950 2259 4950 
Q 2500 4947 2538 4941 
Q 3178 4841 3538 4438 
Q 3788 4163 3788 3600 
Q 3788 3313 3616 3053 
Q 3406 2734 3094 2709 
Q 3556 2584 3844 2322 
Q 4294 1919 4294 1288 
Q 4294 731 3903 320 
Q 3513 -91 2809 -91 
Q 2106 -91 1656 506 
L 1656 -1331 
L 538 -1331 
z
" transform="scale(0.015625)"/>
      <path id="DejaVuSans-Bold-2081" d="M 441 466 
L 1088 466 
L 1088 2094 
L 384 1932 
L 384 2432 
L 1100 2585 
L 1806 2585 
L 1806 466 
L 2444 466 
L 2444 -24 
L 441 -24 
L 441 466 
z
" transform="scale(0.015625)"/>
      <path id="DejaVuSans-Bold-30" d="M 2944 2338 
Q 2944 3213 2780 3570 
Q 2616 3928 2228 3928 
Q 1841 3928 1675 3570 
Q 1509 3213 1509 2338 
Q 1509 1453 1675 1090 
Q 1841 728 2228 728 
Q 2613 728 2778 1090 
Q 2944 1453 2944 2338 
z
M 4147 2328 
Q 4147 1169 3647 539 
Q 3147 -91 2228 -91 
Q 1306 -91 806 539 
Q 306 1169 306 2328 
Q 306 3491 806 4120 
Q 1306 4750 2228 4750 
Q 3147 4750 3647 4120 
Q 4147 3491 4147 2328 
z
" transform="scale(0.015625)"/>
     </defs>
     <use xlink:href="#DejaVuSans-Bold-74"/>
     <use xlink:href="#DejaVuSans-Bold-2d" transform="translate(47.802734 0)"/>
     <use xlink:href="#DejaVuSans-Bold-64" transform="translate(89.306641 0)"/>
     <use xlink:href="#DejaVuSans-Bold-69" transform="translate(160.888672 0)"/>
     <use xlink:href="#DejaVuSans-Bold-73" transform="translate(195.166016 0)"/>
     <use xlink:href="#DejaVuSans-Bold-74" transform="translate(254.6875 0)"/>
     <use xlink:href="#DejaVuSans-Bold-72" transform="translate(302.490234 0)"/>
     <use xlink:href="#DejaVuSans-Bold-69" transform="translate(351.806641 0)"/>
     <use xlink:href="#DejaVuSans-Bold-62" transform="translate(386.083984 0)"/>
     <use xlink:href="#DejaVuSans-Bold-75" transform="translate(457.666016 0)"/>
     <use xlink:href="#DejaVuSans-Bold-74" transform="translate(528.857422 0)"/>
     <use xlink:href="#DejaVuSans-Bold-69" transform="translate(576.660156 0)"/>
     <use xlink:href="#DejaVuSans-Bold-6f" transform="translate(610.9375 0)"/>
     <use xlink:href="#DejaVuSans-Bold-6e" transform="translate(679.638672 0)"/>
     <use xlink:href="#DejaVuSans-Bold-20" transform="translate(750.830078 0)"/>
     <use xlink:href="#DejaVuSans-Bold-28" transform="translate(785.644531 0)"/>
     <use xlink:href="#DejaVuSans-Bold-64" transform="translate(831.347656 0)"/>
     <use xlink:href="#DejaVuSans-Bold-66" transform="translate(902.929688 0)"/>
     <use xlink:href="#DejaVuSans-Bold-20" transform="translate(946.435547 0)"/>
     <use xlink:href="#DejaVuSans-Bold-3d" transform="translate(981.25 0)"/>
     <use xlink:href="#DejaVuSans-Bold-20" transform="translate(1065.039062 0)"/>
     <use xlink:href="#DejaVuSans-Bold-31" transform="translate(1099.853516 0)"/>
     <use xlink:href="#DejaVuSans-Bold-39" transform="translate(1169.433594 0)"/>
     <use xlink:href="#DejaVuSans-Bold-38" transform="translate(1239.013672 0)"/>
     <use xlink:href="#DejaVuSans-Bold-29" transform="translate(1308.59375 0)"/>
     <use xlink:href="#DejaVuSans-Bold-20" transform="translate(1354.296875 0)"/>
     <use xlink:href="#DejaVuSans-Bold-20" transform="translate(1389.111328 0)"/>
     <use xlink:href="#DejaVuSans-Bold-2014" transform="translate(1423.925781 0)"/>
     <use xlink:href="#DejaVuSans-Bold-20" transform="translate(1523.925781 0)"/>
     <use xlink:href="#DejaVuSans-Bold-48" transform="translate(1558.740234 0)"/>
     <use xlink:href="#DejaVuSans-Bold-2080" transform="translate(1642.431641 0)"/>
     <use xlink:href="#DejaVuSans-Bold-3a" transform="translate(1686.230469 0)"/>
     <use xlink:href="#DejaVuSans-Bold-20" transform="translate(1726.220703 0)"/>
     <use xlink:href="#DejaVuSans-Bold-3b2" transform="translate(1761.035156 0)"/>
     <use xlink:href="#DejaVuSans-Bold-2081" transform="translate(1832.617188 0)"/>
     <use xlink:href="#DejaVuSans-Bold-20" transform="translate(1876.416016 0)"/>
     <use xlink:href="#DejaVuSans-Bold-3d" transform="translate(1911.230469 0)"/>
     <use xlink:href="#DejaVuSans-Bold-20" transform="translate(1995.019531 0)"/>
     <use xlink:href="#DejaVuSans-Bold-30" transform="translate(2029.833984 0)"/>
    </g>
   </g>
   <g id="legend_1">
    <g id="patch_7">
     <path d="M 430.23125 60.610938 
L 548.967187 60.610938 
Q 550.967187 60.610938 550.967187 58.610938 
L 550.967187 30.254687 
Q 550.967187 28.254687 548.967187 28.254687 
L 430.23125 28.254687 
Q 428.23125 28.254687 428.23125 30.254687 
L 428.23125 58.610938 
Q 428.23125 60.610938 430.23125 60.610938 
z
" style="fill: #ffffff; opacity: 0.8; stroke: #cccccc; stroke-linejoin: miter"/>
    </g>
    <g id="patch_8">
     <path d="M 432.23125 39.853125 
L 452.23125 39.853125 
L 452.23125 32.853125 
L 432.23125 32.853125 
z
" style="fill: #d65f5f; fill-opacity: 0.35; stroke: #d65f5f; stroke-opacity: 0.35; stroke-linejoin: miter"/>
    </g>
    <g id="text_18">
     <!-- p-value &lt; 0.0001 -->
     <g style="fill: #262626" transform="translate(460.23125 39.853125) scale(0.1 -0.1)">
      <defs>
       <path id="DejaVuSans-70" d="M 1159 525 
L 1159 -1331 
L 581 -1331 
L 581 3500 
L 1159 3500 
L 1159 2969 
Q 1341 3281 1617 3432 
Q 1894 3584 2278 3584 
Q 2916 3584 3314 3078 
Q 3713 2572 3713 1747 
Q 3713 922 3314 415 
Q 2916 -91 2278 -91 
Q 1894 -91 1617 61 
Q 1341 213 1159 525 
z
M 3116 1747 
Q 3116 2381 2855 2742 
Q 2594 3103 2138 3103 
Q 1681 3103 1420 2742 
Q 1159 2381 1159 1747 
Q 1159 1113 1420 752 
Q 1681 391 2138 391 
Q 2594 391 2855 752 
Q 3116 1113 3116 1747 
z
" transform="scale(0.015625)"/>
       <path id="DejaVuSans-2d" d="M 313 2009 
L 1997 2009 
L 1997 1497 
L 313 1497 
L 313 2009 
z
" transform="scale(0.015625)"/>
       <path id="DejaVuSans-76" d="M 191 3500 
L 800 3500 
L 1894 563 
L 2988 3500 
L 3597 3500 
L 2284 0 
L 1503 0 
L 191 3500 
z
" transform="scale(0.015625)"/>
       <path id="DejaVuSans-61" d="M 2194 1759 
Q 1497 1759 1228 1600 
Q 959 1441 959 1056 
Q 959 750 1161 570 
Q 1363 391 1709 391 
Q 2188 391 2477 730 
Q 2766 1069 2766 1631 
L 2766 1759 
L 2194 1759 
z
M 3341 1997 
L 3341 0 
L 2766 0 
L 2766 531 
Q 2569 213 2275 61 
Q 1981 -91 1556 -91 
Q 1019 -91 701 211 
Q 384 513 384 1019 
Q 384 1609 779 1909 
Q 1175 2209 1959 2209 
L 2766 2209 
L 2766 2266 
Q 2766 2663 2505 2880 
Q 2244 3097 1772 3097 
Q 1472 3097 1187 3025 
Q 903 2953 641 2809 
L 641 3341 
Q 956 3463 1253 3523 
Q 1550 3584 1831 3584 
Q 2591 3584 2966 3190 
Q 3341 2797 3341 1997 
z
" transform="scale(0.015625)"/>
       <path id="DejaVuSans-6c" d="M 603 4863 
L 1178 4863 
L 1178 0 
L 603 0 
L 603 4863 
z
" transform="scale(0.015625)"/>
       <path id="DejaVuSans-75" d="M 544 1381 
L 544 3500 
L 1119 3500 
L 1119 1403 
Q 1119 906 1312 657 
Q 1506 409 1894 409 
Q 2359 409 2629 706 
Q 2900 1003 2900 1516 
L 2900 3500 
L 3475 3500 
L 3475 0 
L 2900 0 
L 2900 538 
Q 2691 219 2414 64 
Q 2138 -91 1772 -91 
Q 1169 -91 856 284 
Q 544 659 544 1381 
z
M 1991 3584 
L 1991 3584 
z
" transform="scale(0.015625)"/>
       <path id="DejaVuSans-20" transform="scale(0.015625)"/>
       <path id="DejaVuSans-3c" d="M 4684 3150 
L 1459 2003 
L 4684 863 
L 4684 294 
L 678 1747 
L 678 2266 
L 4684 3719 
L 4684 3150 
z
" transform="scale(0.015625)"/>
      </defs>
      <use xlink:href="#DejaVuSans-70"/>
      <use xlink:href="#DejaVuSans-2d" transform="translate(63.476562 0)"/>
      <use xlink:href="#DejaVuSans-76" transform="translate(96.935547 0)"/>
      <use xlink:href="#DejaVuSans-61" transform="translate(156.115234 0)"/>
      <use xlink:href="#DejaVuSans-6c" transform="translate(217.394531 0)"/>
      <use xlink:href="#DejaVuSans-75" transform="translate(245.177734 0)"/>
      <use xlink:href="#DejaVuSans-65" transform="translate(308.556641 0)"/>
      <use xlink:href="#DejaVuSans-20" transform="translate(370.080078 0)"/>
      <use xlink:href="#DejaVuSans-3c" transform="translate(401.867188 0)"/>
      <use xlink:href="#DejaVuSans-20" transform="translate(485.65625 0)"/>
      <use xlink:href="#DejaVuSans-30" transform="translate(517.443359 0)"/>
      <use xlink:href="#DejaVuSans-2e" transform="translate(581.066406 0)"/>
      <use xlink:href="#DejaVuSans-30" transform="translate(612.853516 0)"/>
      <use xlink:href="#DejaVuSans-30" transform="translate(676.476562 0)"/>
      <use xlink:href="#DejaVuSans-30" transform="translate(740.099609 0)"/>
      <use xlink:href="#DejaVuSans-31" transform="translate(803.722656 0)"/>
     </g>
    </g>
    <g id="line2d_18">
     <path d="M 432.23125 51.03125 
L 442.23125 51.03125 
L 452.23125 51.03125 
" style="fill: none; stroke: #d65f5f; stroke-width: 2; stroke-linecap: round"/>
    </g>
    <g id="text_19">
     <!-- t = 16.3 -->
     <g style="fill: #262626" transform="translate(460.23125 54.53125) scale(0.1 -0.1)">
      <defs>
       <path id="DejaVuSans-3d" d="M 678 2906 
L 4684 2906 
L 4684 2381 
L 678 2381 
L 678 2906 
z
M 678 1631 
L 4684 1631 
L 4684 1100 
L 678 1100 
L 678 1631 
z
" transform="scale(0.015625)"/>
       <path id="DejaVuSans-36" d="M 2113 2584 
Q 1688 2584 1439 2293 
Q 1191 2003 1191 1497 
Q 1191 994 1439 701 
Q 1688 409 2113 409 
Q 2538 409 2786 701 
Q 3034 994 3034 1497 
Q 3034 2003 2786 2293 
Q 2538 2584 2113 2584 
z
M 3366 4563 
L 3366 3988 
Q 3128 4100 2886 4159 
Q 2644 4219 2406 4219 
Q 1781 4219 1451 3797 
Q 1122 3375 1075 2522 
Q 1259 2794 1537 2939 
Q 1816 3084 2150 3084 
Q 2853 3084 3261 2657 
Q 3669 2231 3669 1497 
Q 3669 778 3244 343 
Q 2819 -91 2113 -91 
Q 1303 -91 875 529 
Q 447 1150 447 2328 
Q 447 3434 972 4092 
Q 1497 4750 2381 4750 
Q 2619 4750 2861 4703 
Q 3103 4656 3366 4563 
z
" transform="scale(0.015625)"/>
      </defs>
      <use xlink:href="#DejaVuSans-74"/>
      <use xlink:href="#DejaVuSans-20" transform="translate(39.208984 0)"/>
      <use xlink:href="#DejaVuSans-3d" transform="translate(70.996094 0)"/>
      <use xlink:href="#DejaVuSans-20" transform="translate(154.785156 0)"/>
      <use xlink:href="#DejaVuSans-31" transform="translate(186.572266 0)"/>
      <use xlink:href="#DejaVuSans-36" transform="translate(250.195312 0)"/>
      <use xlink:href="#DejaVuSans-2e" transform="translate(313.818359 0)"/>
      <use xlink:href="#DejaVuSans-33" transform="translate(345.605469 0)"/>
     </g>
    </g>
   </g>
  </g>
 </g>
 <defs>
  <clipPath id="p02de46a584">
   <rect x="49.807187" y="23.254687" width="506.16" height="172.74"/>
  </clipPath>
 </defs>
</svg>
